0
SECTION
2
HEADER
9
$INSUNITS
70
4
9
$ACADVER
1
AC1014
9
$HANDSEED
5
FFFF
0
ENDSEC
0
SECTION
2
TABLES
0
TABLE
2
VPORT
5
8
100
AcDbSymbolTable
0
ENDTAB
0
TABLE
2
LTYPE
5
5
100
AcDbSymbolTable
0
LTYPE
5
14
100
AcDbSymbolTableRecord
100
AcDbLinetypeTableRecord
2
BYBLOCK
70
0
0
LTYPE
5
15
100
AcDbSymbolTableRecord
100
AcDbLinetypeTableRecord
2
BYLAYER
70
0
0
LTYPE
5
16
100
AcDbSymbolTableRecord
100
AcDbLinetypeTableRecord
2
DASHED
70
0
3
Dashed __ __ __ __ __ __ __ __ __ __ __ __ __ _
72
65
73
2
40
0.75
49
0.5
74
0
49
-0.25
74
0
0
ENDTAB
0
TABLE
2
LAYER
5
2
100
AcDbSymbolTable
70
2
0
LAYER
5
50
100
AcDbSymbolTableRecord
100
AcDbLayerTableRecord
2
0
70
0
62
7
6
CONTINUOUS
0
ENDTAB
0
TABLE
2
STYLE
5
3
100
AcDbSymbolTable
70
1
0
STYLE
5
11
100
AcDbSymbolTableRecord
100
AcDbTextStyleTableRecord
2
STANDARD
70
0
0
ENDTAB
0
TABLE
2
VIEW
5
6
100
AcDbSymbolTable
70
0
0
ENDTAB
0
TABLE
2
UCS
5
7
100
AcDbSymbolTable
70
0
0
ENDTAB
0
TABLE
2
APPID
5
9
100
AcDbSymbolTable
70
2
0
APPID
5
12
100
AcDbSymbolTableRecord
100
AcDbRegAppTableRecord
2
ACAD
70
0
0
ENDTAB
0
TABLE
2
DIMSTYLE
5
A
100
AcDbSymbolTable
70
1
0
ENDTAB
0
TABLE
2
BLOCK_RECORD
5
1
100
AcDbSymbolTable
70
1
0
BLOCK_RECORD
5
1F
100
AcDbSymbolTableRecord
100
AcDbBlockTableRecord
2
*MODEL_SPACE
0
BLOCK_RECORD
5
1B
100
AcDbSymbolTableRecord
100
AcDbBlockTableRecord
2
*PAPER_SPACE
0
ENDTAB
0
ENDSEC
0
SECTION
2
BLOCKS
0
BLOCK
5
20
100
AcDbEntity
100
AcDbBlockBegin
2
*MODEL_SPACE
0
ENDBLK
5
21
100
AcDbEntity
100
AcDbBlockEnd
0
BLOCK
5
1C
100
AcDbEntity
100
AcDbBlockBegin
2
*PAPER_SPACE
0
ENDBLK
5
1D
100
AcDbEntity
100
AcDbBlockEnd
0
ENDSEC
0
SECTION
2
ENTITIES
0
POINT
5
100
100
AcDbEntity
8
0
100
AcDbPoint
10
63.000000000000007
20
10.149999999999988
30
0
0
POINT
5
101
100
AcDbEntity
8
0
100
AcDbPoint
10
362.99999999999989
20
10.149999999999986
30
0
0
POINT
5
102
100
AcDbEntity
8
0
100
AcDbPoint
10
63.000000000000007
20
-4.8500000000000121
30
0
0
ARC
5
103
100
AcDbEntity
8
0
100
AcDbCircle
10
33.513311165064444
20
-52.269915105886327
30
0
40
0.51368787051533782
210
0
220
0
230
1
100
AcDbArc
50
177.80560163603855
51
268.48930314536261
0
LWPOLYLINE
5
104
100
AcDbEntity
8
0
100
AcDbPolyline
90
8
70
1
43
0.0
10
52.550000000000011
20
-38.750000000000007
10
65.550000000000011
20
-38.750000000000007
42
-0.41421356237309503
10
66.050000000000011
20
-39.25
10
66.050000000000011
20
-52.250000000000007
42
-0.41421356237309503
10
65.550000000000011
20
-52.75
10
52.550000000000011
20
-52.75
42
-0.41421356237309503
10
52.050000000000011
20
-52.250000000000007
10
52.049999999999997
20
-39.250000000000007
42
-0.41421356237309503
0
LWPOLYLINE
5
105
100
AcDbEntity
8
0
100
AcDbPolyline
90
8
70
1
43
0.0
10
71.599999999999994
20
-38.750000000000007
10
84.600000000000009
20
-38.750000000000007
42
-0.41421356237309503
10
85.100000000000023
20
-39.250000000000014
10
85.100000000000023
20
-52.250000000000007
42
-0.41421356237309503
10
84.600000000000009
20
-52.75
10
71.599999999999994
20
-52.75
42
-0.41421356237309503
10
71.100000000000009
20
-52.250000000000014
10
71.099999999999994
20
-39.250000000000007
42
-0.41421356237309503
0
LWPOLYLINE
5
106
100
AcDbEntity
8
0
100
AcDbPolyline
90
8
70
1
43
0.0
10
90.650000000000006
20
-38.750000000000007
10
103.65000000000001
20
-38.750000000000007
42
-0.41421356237309503
10
104.15000000000001
20
-39.250000000000014
10
104.14999999999999
20
-52.250000000000007
42
-0.41421356237309503
10
103.65000000000001
20
-52.75
10
90.650000000000006
20
-52.75
42
-0.41421356237309503
10
90.150000000000006
20
-52.25
10
90.150000000000006
20
-39.250000000000007
42
-0.41421356237309503
0
LWPOLYLINE
5
107
100
AcDbEntity
8
0
100
AcDbPolyline
90
8
70
1
43
0.0
10
109.7
20
-38.750000000000007
10
122.70000000000002
20
-38.750000000000007
42
-0.41421356237309503
10
123.2
20
-39.249999999999993
10
123.2
20
-52.250000000000007
42
-0.41421356237309503
10
122.70000000000002
20
-52.75
10
109.7
20
-52.75
42
-0.41421356237309503
10
109.2
20
-52.25
10
109.2
20
-39.250000000000007
42
-0.41421356237309503
0
LWPOLYLINE
5
108
100
AcDbEntity
8
0
100
AcDbPolyline
90
8
70
1
43
0.0
10
128.75000000000003
20
-38.750000000000007
10
141.75000000000003
20
-38.750000000000007
42
-0.41421356237309503
10
142.25000000000003
20
-39.250000000000014
10
142.25
20
-52.250000000000007
42
-0.41421356237309503
10
141.75000000000003
20
-52.75
10
128.75000000000003
20
-52.75
42
-0.41421356237309503
10
128.25000000000003
20
-52.250000000000014
10
128.25
20
-39.250000000000007
42
-0.41421356237309503
0
LWPOLYLINE
5
109
100
AcDbEntity
8
0
100
AcDbPolyline
90
8
70
1
43
0.0
10
147.80000000000004
20
-38.750000000000007
10
160.79999999999998
20
-38.749999999999972
42
-0.41421356237309503
10
161.30000000000001
20
-39.250000000000014
10
161.29999999999998
20
-52.250000000000007
42
-0.41421356237309503
10
160.79999999999998
20
-52.75
10
147.80000000000004
20
-52.75
42
-0.41421356237309503
10
147.30000000000001
20
-52.25
10
147.30000000000001
20
-39.250000000000007
42
-0.41421356237309503
0
LWPOLYLINE
5
110
100
AcDbEntity
8
0
100
AcDbPolyline
90
8
70
1
43
0.0
10
166.85000000000002
20
-38.750000000000007
10
179.84999999999999
20
-38.750000000000007
42
-0.41421356237309503
10
180.34999999999999
20
-39.250000000000014
10
180.34999999999999
20
-52.250000000000007
42
-0.41421356237309503
10
179.84999999999999
20
-52.75
10
166.85000000000002
20
-52.75
42
-0.41421356237309503
10
166.35000000000002
20
-52.25
10
166.35000000000002
20
-39.250000000000007
42
-0.41421356237309503
0
LWPOLYLINE
5
111
100
AcDbEntity
8
0
100
AcDbPolyline
90
8
70
1
43
0.0
10
185.90000000000003
20
-38.750000000000007
10
198.90000000000001
20
-38.750000000000007
42
-0.41421356237309503
10
199.40000000000001
20
-39.250000000000014
10
199.40000000000001
20
-52.250000000000007
42
-0.41421356237309503
10
198.90000000000001
20
-52.75
10
185.90000000000003
20
-52.75
42
-0.41421356237309503
10
185.40000000000003
20
-52.25
10
185.40000000000003
20
-39.250000000000007
42
-0.41421356237309503
0
LWPOLYLINE
5
112
100
AcDbEntity
8
0
100
AcDbPolyline
90
8
70
1
43
0.0
10
204.95000000000002
20
-38.750000000000007
10
217.94999999999999
20
-38.750000000000007
42
-0.41421356237309503
10
218.44999999999999
20
-39.250000000000014
10
218.44999999999999
20
-52.250000000000007
42
-0.41421356237309503
10
217.94999999999999
20
-52.75
10
204.95000000000002
20
-52.75
42
-0.41421356237309503
10
204.44999999999999
20
-52.25
10
204.44999999999999
20
-39.250000000000007
42
-0.41421356237309503
0
LWPOLYLINE
5
113
100
AcDbEntity
8
0
100
AcDbPolyline
90
8
70
1
43
0.0
10
224.00000000000003
20
-38.750000000000007
10
237.00000000000003
20
-38.750000000000007
42
-0.41421356237309503
10
237.5
20
-39.249999999999979
10
237.50000000000003
20
-52.250000000000007
42
-0.41421356237309503
10
237.00000000000003
20
-52.75
10
224.00000000000003
20
-52.75
42
-0.41421356237309503
10
223.5
20
-52.25
10
223.5
20
-39.250000000000007
42
-0.41421356237309503
0
LWPOLYLINE
5
114
100
AcDbEntity
8
0
100
AcDbPolyline
90
8
70
1
43
0.0
10
243.05000000000001
20
-38.750000000000007
10
256.05000000000001
20
-38.750000000000007
42
-0.41421356237309503
10
256.55000000000001
20
-39.250000000000014
10
256.55000000000001
20
-52.250000000000007
42
-0.41421356237309503
10
256.05000000000001
20
-52.75
10
243.05000000000001
20
-52.75
42
-0.41421356237309503
10
242.54999999999998
20
-52.25
10
242.54999999999998
20
-39.250000000000007
42
-0.41421356237309503
0
LWPOLYLINE
5
115
100
AcDbEntity
8
0
100
AcDbPolyline
90
8
70
1
43
0.0
10
262.10000000000002
20
-38.750000000000007
10
275.10000000000002
20
-38.750000000000007
42
-0.41421356237309503
10
275.60000000000002
20
-39.250000000000014
10
275.60000000000002
20
-52.250000000000007
42
-0.41421356237309503
10
275.10000000000002
20
-52.75
10
262.10000000000002
20
-52.75
42
-0.41421356237309503
10
261.60000000000002
20
-52.25
10
261.60000000000002
20
-39.250000000000007
42
-0.41421356237309503
0
LWPOLYLINE
5
116
100
AcDbEntity
8
0
100
AcDbPolyline
90
8
70
1
43
0.0
10
281.15000000000003
20
-38.750000000000007
10
294.15000000000003
20
-38.750000000000007
42
-0.41421356237309503
10
294.65000000000003
20
-39.250000000000014
10
294.65000000000003
20
-52.250000000000007
42
-0.41421356237309503
10
294.15000000000003
20
-52.75
10
281.15000000000003
20
-52.75
42
-0.41421356237309503
10
280.65000000000003
20
-52.25
10
280.65000000000003
20
-39.250000000000007
42
-0.41421356237309503
0
LWPOLYLINE
5
117
100
AcDbEntity
8
0
100
AcDbPolyline
90
8
70
1
43
0.0
10
300.20000000000005
20
-38.750000000000007
10
313.20000000000005
20
-38.750000000000007
42
-0.41421356237309503
10
313.70000000000005
20
-39.250000000000014
10
313.70000000000005
20
-52.250000000000007
42
-0.41421356237309503
10
313.20000000000005
20
-52.75
10
300.20000000000005
20
-52.75
42
-0.41421356237309503
10
299.70000000000005
20
-52.25
10
299.70000000000005
20
-39.250000000000007
42
-0.41421356237309503
0
LWPOLYLINE
5
118
100
AcDbEntity
8
0
100
AcDbPolyline
90
8
70
1
43
0.0
10
319.25
20
-38.750000000000007
10
332.25
20
-38.750000000000007
42
-0.41421356237309503
10
332.75
20
-39.249999999999979
10
332.75
20
-52.250000000000007
42
-0.41421356237309503
10
332.25
20
-52.75
10
319.25
20
-52.75
42
-0.41421356237309503
10
318.75
20
-52.250000000000028
10
318.74999999999994
20
-39.250000000000007
42
-0.41421356237309503
0
LWPOLYLINE
5
119
100
AcDbEntity
8
0
100
AcDbPolyline
90
8
70
1
43
0.0
10
338.29999999999995
20
-38.750000000000007
10
351.30000000000001
20
-38.750000000000007
42
-0.41421356237309503
10
351.80000000000001
20
-39.249999999999979
10
351.80000000000001
20
-52.250000000000007
42
-0.41421356237309503
10
351.30000000000001
20
-52.75
10
338.29999999999995
20
-52.75
42
-0.41421356237309503
10
337.80000000000001
20
-52.250000000000028
10
337.80000000000001
20
-39.250000000000007
42
-0.41421356237309503
0
LWPOLYLINE
5
120
100
AcDbEntity
8
0
100
AcDbPolyline
90
8
70
1
43
0.0
10
357.35000000000002
20
-38.750000000000007
10
370.35000000000002
20
-38.750000000000007
42
-0.41421356237309503
10
370.85000000000002
20
-39.249999999999979
10
370.85000000000002
20
-52.250000000000007
42
-0.41421356237309503
10
370.35000000000002
20
-52.75
10
357.35000000000002
20
-52.75
42
-0.41421356237309503
10
356.85000000000002
20
-52.250000000000028
10
356.85000000000002
20
-39.250000000000007
42
-0.41421356237309503
0
LWPOLYLINE
5
121
100
AcDbEntity
8
0
100
AcDbPolyline
90
8
70
1
43
0.0
10
376.39999999999998
20
-38.750000000000007
10
389.40000000000003
20
-38.750000000000007
42
-0.41421356237309503
10
389.90000000000003
20
-39.249999999999979
10
389.90000000000003
20
-52.250000000000007
42
-0.41421356237309503
10
389.40000000000003
20
-52.75
10
376.39999999999998
20
-52.75
42
-0.41421356237309503
10
375.90000000000003
20
-52.250000000000028
10
375.90000000000003
20
-39.250000000000007
42
-0.41421356237309503
0
LWPOLYLINE
5
122
100
AcDbEntity
8
0
100
AcDbPolyline
90
8
70
1
43
0.0
10
33.500000000000007
20
-57.800000000000011
10
46.5
20
-57.800000000000004
42
-0.41421356237309503
10
47.000000000000014
20
-58.300000000000011
10
47.000000000000014
20
-71.300000000000011
42
-0.41421356237309503
10
46.5
20
-71.800000000000011
10
33.500000000000007
20
-71.800000000000011
42
-0.41421356237309503
10
33.000000000000007
20
-71.300000000000011
10
33.000000000000014
20
-58.299999999999997
42
-0.41421356237309503
0
LWPOLYLINE
5
123
100
AcDbEntity
8
0
100
AcDbPolyline
90
8
70
1
43
0.0
10
52.550000000000011
20
-57.800000000000011
10
65.550000000000011
20
-57.800000000000011
42
-0.41421356237309503
10
66.050000000000011
20
-58.300000000000011
10
66.050000000000026
20
-71.300000000000011
42
-0.41421356237309503
10
65.550000000000011
20
-71.800000000000011
10
52.550000000000011
20
-71.800000000000011
42
-0.41421356237309503
10
52.050000000000011
20
-71.300000000000011
10
52.050000000000018
20
-58.299999999999997
42
-0.41421356237309503
0
LWPOLYLINE
5
124
100
AcDbEntity
8
0
100
AcDbPolyline
90
8
70
1
43
0.0
10
71.599999999999994
20
-57.800000000000011
10
84.600000000000009
20
-57.800000000000011
42
-0.41421356237309503
10
85.100000000000023
20
-58.300000000000018
10
85.100000000000023
20
-71.300000000000011
42
-0.41421356237309503
10
84.600000000000009
20
-71.800000000000011
10
71.599999999999994
20
-71.800000000000011
42
-0.41421356237309503
10
71.100000000000009
20
-71.300000000000026
10
71.100000000000009
20
-58.299999999999997
42
-0.41421356237309503
0
LWPOLYLINE
5
125
100
AcDbEntity
8
0
100
AcDbPolyline
90
8
70
1
43
0.0
10
90.650000000000006
20
-57.800000000000011
10
103.65000000000001
20
-57.800000000000011
42
-0.41421356237309503
10
104.15000000000001
20
-58.300000000000018
10
104.15000000000001
20
-71.300000000000011
42
-0.41421356237309503
10
103.65000000000001
20
-71.800000000000011
10
90.650000000000006
20
-71.800000000000011
42
-0.41421356237309503
10
90.150000000000006
20
-71.300000000000011
10
90.15000000000002
20
-58.299999999999997
42
-0.41421356237309503
0
LWPOLYLINE
5
126
100
AcDbEntity
8
0
100
AcDbPolyline
90
8
70
1
43
0.0
10
109.7
20
-57.800000000000011
10
122.70000000000002
20
-57.800000000000011
42
-0.41421356237309503
10
123.2
20
-58.299999999999997
10
123.20000000000002
20
-71.300000000000011
42
-0.41421356237309503
10
122.70000000000002
20
-71.800000000000011
10
109.7
20
-71.800000000000011
42
-0.41421356237309503
10
109.2
20
-71.300000000000011
10
109.20000000000002
20
-58.299999999999997
42
-0.41421356237309503
0
LWPOLYLINE
5
127
100
AcDbEntity
8
0
100
AcDbPolyline
90
8
70
1
43
0.0
10
128.75000000000003
20
-57.800000000000011
10
141.75000000000003
20
-57.800000000000011
42
-0.41421356237309503
10
142.25000000000003
20
-58.300000000000018
10
142.25000000000003
20
-71.300000000000011
42
-0.41421356237309503
10
141.75000000000003
20
-71.800000000000011
10
128.75000000000003
20
-71.800000000000011
42
-0.41421356237309503
10
128.25000000000003
20
-71.300000000000026
10
128.25000000000003
20
-58.299999999999997
42
-0.41421356237309503
0
LWPOLYLINE
5
128
100
AcDbEntity
8
0
100
AcDbPolyline
90
8
70
1
43
0.0
10
147.80000000000004
20
-57.800000000000011
10
160.79999999999998
20
-57.799999999999976
42
-0.41421356237309503
10
161.30000000000001
20
-58.300000000000018
10
161.29999999999998
20
-71.300000000000011
42
-0.41421356237309503
10
160.79999999999998
20
-71.800000000000011
10
147.80000000000004
20
-71.800000000000011
42
-0.41421356237309503
10
147.30000000000001
20
-71.300000000000011
10
147.30000000000004
20
-58.299999999999997
42
-0.41421356237309503
0
LWPOLYLINE
5
129
100
AcDbEntity
8
0
100
AcDbPolyline
90
8
70
1
43
0.0
10
166.85000000000002
20
-57.800000000000011
10
179.84999999999999
20
-57.800000000000011
42
-0.41421356237309503
10
180.34999999999999
20
-58.300000000000018
10
180.34999999999999
20
-71.300000000000011
42
-0.41421356237309503
10
179.84999999999999
20
-71.800000000000011
10
166.85000000000002
20
-71.800000000000011
42
-0.41421356237309503
10
166.35000000000002
20
-71.300000000000011
10
166.35000000000005
20
-58.299999999999997
42
-0.41421356237309503
0
LWPOLYLINE
5
130
100
AcDbEntity
8
0
100
AcDbPolyline
90
8
70
1
43
0.0
10
185.90000000000003
20
-57.800000000000011
10
198.90000000000001
20
-57.800000000000011
42
-0.41421356237309503
10
199.40000000000001
20
-58.300000000000018
10
199.40000000000001
20
-71.300000000000011
42
-0.41421356237309503
10
198.90000000000001
20
-71.800000000000011
10
185.90000000000003
20
-71.800000000000011
42
-0.41421356237309503
10
185.40000000000003
20
-71.300000000000011
10
185.40000000000006
20
-58.299999999999997
42
-0.41421356237309503
0
LWPOLYLINE
5
131
100
AcDbEntity
8
0
100
AcDbPolyline
90
8
70
1
43
0.0
10
204.95000000000002
20
-57.800000000000011
10
217.94999999999999
20
-57.800000000000011
42
-0.41421356237309503
10
218.44999999999999
20
-58.300000000000018
10
218.44999999999999
20
-71.300000000000011
42
-0.41421356237309503
10
217.94999999999999
20
-71.800000000000011
10
204.95000000000002
20
-71.800000000000011
42
-0.41421356237309503
10
204.44999999999999
20
-71.300000000000011
10
204.44999999999999
20
-58.299999999999997
42
-0.41421356237309503
0
LWPOLYLINE
5
132
100
AcDbEntity
8
0
100
AcDbPolyline
90
8
70
1
43
0.0
10
224.00000000000003
20
-57.800000000000011
10
237.00000000000003
20
-57.800000000000011
42
-0.41421356237309503
10
237.5
20
-58.299999999999983
10
237.50000000000003
20
-71.300000000000011
42
-0.41421356237309503
10
237.00000000000003
20
-71.800000000000011
10
224.00000000000003
20
-71.800000000000011
42
-0.41421356237309503
10
223.5
20
-71.300000000000011
10
223.5
20
-58.299999999999997
42
-0.41421356237309503
0
LWPOLYLINE
5
133
100
AcDbEntity
8
0
100
AcDbPolyline
90
8
70
1
43
0.0
10
243.05000000000001
20
-57.800000000000011
10
256.05000000000001
20
-57.800000000000011
42
-0.41421356237309503
10
256.55000000000001
20
-58.300000000000018
10
256.55000000000001
20
-71.300000000000011
42
-0.41421356237309503
10
256.05000000000001
20
-71.800000000000011
10
243.05000000000001
20
-71.800000000000011
42
-0.41421356237309503
10
242.54999999999998
20
-71.300000000000011
10
242.55000000000001
20
-58.299999999999997
42
-0.41421356237309503
0
LWPOLYLINE
5
134
100
AcDbEntity
8
0
100
AcDbPolyline
90
8
70
1
43
0.0
10
262.10000000000002
20
-57.800000000000011
10
275.10000000000002
20
-57.800000000000011
42
-0.41421356237309503
10
275.60000000000002
20
-58.300000000000018
10
275.60000000000002
20
-71.300000000000011
42
-0.41421356237309503
10
275.10000000000002
20
-71.800000000000011
10
262.10000000000002
20
-71.800000000000011
42
-0.41421356237309503
10
261.60000000000002
20
-71.300000000000011
10
261.60000000000002
20
-58.299999999999997
42
-0.41421356237309503
0
LWPOLYLINE
5
135
100
AcDbEntity
8
0
100
AcDbPolyline
90
8
70
1
43
0.0
10
290.67500000000001
20
-57.800000000000011
10
303.67500000000001
20
-57.800000000000011
42
-0.41421356237309503
10
304.17500000000001
20
-58.300000000000018
10
304.17500000000001
20
-71.300000000000011
42
-0.41421356237309503
10
303.67500000000001
20
-71.800000000000011
10
290.67500000000001
20
-71.800000000000011
42
-0.41421356237309503
10
290.17499999999995
20
-71.300000000000011
10
290.17499999999995
20
-58.299999999999997
42
-0.41421356237309503
0
LWPOLYLINE
5
136
100
AcDbEntity
8
0
100
AcDbPolyline
90
8
70
1
43
0.0
10
282.23700000000002
20
-58.800000000000011
10
288.23700000000002
20
-58.800000000000011
42
-0.41421356237309503
10
288.73699999999997
20
-59.299999999999983
10
288.73700000000002
20
-73.300000000000011
42
-0.41421356237309503
10
288.23700000000002
20
-73.800000000000011
10
282.23700000000002
20
-73.800000000000011
42
-0.41421356237309503
10
281.73700000000002
20
-73.299999999999997
10
281.73700000000002
20
-59.300000000000004
42
-0.41421356237309503
0
LWPOLYLINE
5
137
100
AcDbEntity
8
0
100
AcDbPolyline
90
8
70
1
43
0.0
10
306.113
20
-58.800000000000011
10
312.113
20
-58.800000000000011
42
-0.41421356237309503
10
312.613
20
-59.300000000000011
10
312.613
20
-73.300000000000011
42
-0.41421356237309503
10
312.113
20
-73.800000000000011
10
306.113
20
-73.800000000000011
42
-0.41421356237309503
10
305.613
20
-73.299999999999997
10
305.613
20
-59.300000000000004
42
-0.41421356237309503
0
LWPOLYLINE
5
138
100
AcDbEntity
8
0
100
AcDbPolyline
90
8
70
1
43
0.0
10
319.25
20
-57.800000000000011
10
332.25
20
-57.800000000000011
42
-0.41421356237309503
10
332.75
20
-58.299999999999983
10
332.75000000000006
20
-71.300000000000011
42
-0.41421356237309503
10
332.25
20
-71.800000000000011
10
319.25
20
-71.800000000000011
42
-0.41421356237309503
10
318.75
20
-71.30000000000004
10
318.75
20
-58.299999999999997
42
-0.41421356237309503
0
LWPOLYLINE
5
139
100
AcDbEntity
8
0
100
AcDbPolyline
90
8
70
1
43
0.0
10
338.29999999999995
20
-57.800000000000011
10
351.30000000000001
20
-57.800000000000011
42
-0.41421356237309503
10
351.80000000000001
20
-58.299999999999983
10
351.80000000000007
20
-71.300000000000011
42
-0.41421356237309503
10
351.30000000000001
20
-71.800000000000011
10
338.29999999999995
20
-71.800000000000011
42
-0.41421356237309503
10
337.80000000000001
20
-71.30000000000004
10
337.80000000000001
20
-58.299999999999997
42
-0.41421356237309503
0
LWPOLYLINE
5
140
100
AcDbEntity
8
0
100
AcDbPolyline
90
8
70
1
43
0.0
10
357.35000000000002
20
-57.800000000000011
10
370.35000000000002
20
-57.800000000000011
42
-0.41421356237309503
10
370.85000000000002
20
-58.299999999999983
10
370.85000000000008
20
-71.300000000000011
42
-0.41421356237309503
10
370.35000000000002
20
-71.800000000000011
10
357.35000000000002
20
-71.800000000000011
42
-0.41421356237309503
10
356.85000000000002
20
-71.30000000000004
10
356.85000000000002
20
-58.299999999999997
42
-0.41421356237309503
0
LWPOLYLINE
5
141
100
AcDbEntity
8
0
100
AcDbPolyline
90
8
70
1
43
0.0
10
376.39999999999998
20
-57.800000000000011
10
389.40000000000003
20
-57.800000000000011
42
-0.41421356237309503
10
389.90000000000003
20
-58.299999999999983
10
389.90000000000009
20
-71.300000000000011
42
-0.41421356237309503
10
389.40000000000003
20
-71.800000000000011
10
376.39999999999998
20
-71.800000000000011
42
-0.41421356237309503
10
375.90000000000003
20
-71.30000000000004
10
375.90000000000003
20
-58.299999999999997
42
-0.41421356237309503
0
LWPOLYLINE
5
142
100
AcDbEntity
8
0
100
AcDbPolyline
90
8
70
1
43
0.0
10
38.26250000000001
20
-76.850000000000009
10
51.262500000000003
20
-76.850000000000009
42
-0.41421356237309503
10
51.762500000000017
20
-77.350000000000009
10
51.762500000000017
20
-90.349999999999994
42
-0.41421356237309503
10
51.262500000000003
20
-90.850000000000009
10
38.26250000000001
20
-90.850000000000009
42
-0.41421356237309503
10
37.76250000000001
20
-90.349999999999994
10
37.76250000000001
20
-77.350000000000009
42
-0.41421356237309503
0
LWPOLYLINE
5
143
100
AcDbEntity
8
0
100
AcDbPolyline
90
8
70
1
43
0.0
10
62.075000000000017
20
-76.850000000000009
10
75.075000000000003
20
-76.850000000000009
42
-0.41421356237309503
10
75.575000000000017
20
-77.350000000000009
10
75.575000000000017
20
-90.349999999999994
42
-0.41421356237309503
10
75.075000000000003
20
-90.850000000000009
10
62.075000000000017
20
-90.850000000000009
42
-0.41421356237309503
10
61.575000000000003
20
-90.349999999999994
10
61.575000000000017
20
-77.350000000000009
42
-0.41421356237309503
0
LWPOLYLINE
5
144
100
AcDbEntity
8
0
100
AcDbPolyline
90
8
70
1
43
0.0
10
81.125
20
-76.850000000000009
10
94.125000000000014
20
-76.850000000000009
42
-0.41421356237309503
10
94.625000000000028
20
-77.350000000000009
10
94.625000000000028
20
-90.349999999999994
42
-0.41421356237309503
10
94.125000000000014
20
-90.850000000000009
10
81.125
20
-90.850000000000009
42
-0.41421356237309503
10
80.625000000000014
20
-90.350000000000023
10
80.625
20
-77.350000000000009
42
-0.41421356237309503
0
LWPOLYLINE
5
145
100
AcDbEntity
8
0
100
AcDbPolyline
90
8
70
1
43
0.0
10
100.17500000000001
20
-76.850000000000009
10
113.17500000000003
20
-76.850000000000009
42
-0.41421356237309503
10
113.67500000000001
20
-77.349999999999994
10
113.67500000000004
20
-90.349999999999994
42
-0.41421356237309503
10
113.17500000000003
20
-90.850000000000009
10
100.17500000000001
20
-90.850000000000009
42
-0.41421356237309503
10
99.675000000000011
20
-90.349999999999994
10
99.675000000000011
20
-77.350000000000009
42
-0.41421356237309503
0
LWPOLYLINE
5
146
100
AcDbEntity
8
0
100
AcDbPolyline
90
8
70
1
43
0.0
10
119.22500000000001
20
-76.850000000000009
10
132.22500000000002
20
-76.850000000000009
42
-0.41421356237309503
10
132.72500000000002
20
-77.350000000000009
10
132.72500000000002
20
-90.349999999999994
42
-0.41421356237309503
10
132.22500000000002
20
-90.850000000000009
10
119.22500000000001
20
-90.850000000000009
42
-0.41421356237309503
10
118.72500000000002
20
-90.350000000000023
10
118.72500000000002
20
-77.350000000000009
42
-0.41421356237309503
0
LWPOLYLINE
5
147
100
AcDbEntity
8
0
100
AcDbPolyline
90
8
70
1
43
0.0
10
138.27500000000003
20
-76.850000000000009
10
151.27500000000001
20
-76.850000000000009
42
-0.41421356237309503
10
151.77500000000003
20
-77.350000000000009
10
151.77500000000003
20
-90.349999999999994
42
-0.41421356237309503
10
151.27500000000001
20
-90.850000000000009
10
138.27500000000003
20
-90.850000000000009
42
-0.41421356237309503
10
137.77500000000001
20
-90.349999999999994
10
137.77500000000003
20
-77.350000000000009
42
-0.41421356237309503
0
LWPOLYLINE
5
148
100
AcDbEntity
8
0
100
AcDbPolyline
90
8
70
1
43
0.0
10
157.32500000000002
20
-76.850000000000009
10
170.32499999999999
20
-76.850000000000009
42
-0.41421356237309503
10
170.82499999999999
20
-77.350000000000009
10
170.82499999999999
20
-90.349999999999994
42
-0.41421356237309503
10
170.32499999999999
20
-90.850000000000009
10
157.32500000000002
20
-90.850000000000009
42
-0.41421356237309503
10
156.82500000000002
20
-90.349999999999994
10
156.82500000000002
20
-77.350000000000009
42
-0.41421356237309503
0
LWPOLYLINE
5
149
100
AcDbEntity
8
0
100
AcDbPolyline
90
8
70
1
43
0.0
10
176.37500000000003
20
-76.850000000000009
10
189.375
20
-76.850000000000009
42
-0.41421356237309503
10
189.875
20
-77.350000000000009
10
189.875
20
-90.349999999999994
42
-0.41421356237309503
10
189.375
20
-90.850000000000009
10
176.37500000000003
20
-90.850000000000009
42
-0.41421356237309503
10
175.87500000000003
20
-90.349999999999994
10
175.87500000000003
20
-77.350000000000009
42
-0.41421356237309503
0
LWPOLYLINE
5
150
100
AcDbEntity
8
0
100
AcDbPolyline
90
8
70
1
43
0.0
10
195.42500000000001
20
-76.850000000000009
10
208.42499999999998
20
-76.850000000000009
42
-0.41421356237309503
10
208.92499999999998
20
-77.350000000000009
10
208.92499999999998
20
-90.349999999999994
42
-0.41421356237309503
10
208.42499999999998
20
-90.850000000000009
10
195.42500000000001
20
-90.850000000000009
42
-0.41421356237309503
10
194.92500000000001
20
-90.349999999999994
10
194.92500000000001
20
-77.350000000000009
42
-0.41421356237309503
0
LWPOLYLINE
5
151
100
AcDbEntity
8
0
100
AcDbPolyline
90
8
70
1
43
0.0
10
214.47500000000002
20
-76.850000000000009
10
227.47500000000002
20
-76.850000000000009
42
-0.41421356237309503
10
227.97499999999999
20
-77.34999999999998
10
227.97500000000002
20
-90.349999999999994
42
-0.41421356237309503
10
227.47500000000002
20
-90.850000000000009
10
214.47500000000002
20
-90.850000000000009
42
-0.41421356237309503
10
213.97500000000002
20
-90.349999999999994
10
213.97500000000002
20
-77.350000000000009
42
-0.41421356237309503
0
LWPOLYLINE
5
152
100
AcDbEntity
8
0
100
AcDbPolyline
90
8
70
1
43
0.0
10
233.52500000000003
20
-76.850000000000009
10
246.52500000000003
20
-76.850000000000009
42
-0.41421356237309503
10
247.02500000000001
20
-77.34999999999998
10
247.02500000000003
20
-90.349999999999994
42
-0.41421356237309503
10
246.52500000000003
20
-90.850000000000009
10
233.52500000000003
20
-90.850000000000009
42
-0.41421356237309503
10
233.02500000000003
20
-90.349999999999994
10
233.02500000000003
20
-77.350000000000009
42
-0.41421356237309503
0
LWPOLYLINE
5
153
100
AcDbEntity
8
0
100
AcDbPolyline
90
8
70
1
43
0.0
10
252.57499999999999
20
-76.850000000000009
10
265.57499999999999
20
-76.850000000000009
42
-0.41421356237309503
10
266.07500000000005
20
-77.350000000000009
10
266.07500000000005
20
-90.349999999999994
42
-0.41421356237309503
10
265.57499999999999
20
-90.850000000000009
10
252.57499999999999
20
-90.850000000000009
42
-0.41421356237309503
10
252.07499999999999
20
-90.349999999999994
10
252.07499999999999
20
-77.350000000000009
42
-0.41421356237309503
0
LWPOLYLINE
5
154
100
AcDbEntity
8
0
100
AcDbPolyline
90
8
70
1
43
0.0
10
271.625
20
-76.850000000000009
10
284.625
20
-76.850000000000009
42
-0.41421356237309503
10
285.125
20
-77.350000000000009
10
285.125
20
-90.349999999999994
42
-0.41421356237309503
10
284.625
20
-90.850000000000009
10
271.625
20
-90.850000000000009
42
-0.41421356237309503
10
271.125
20
-90.349999999999994
10
271.125
20
-77.350000000000009
42
-0.41421356237309503
0
LWPOLYLINE
5
155
100
AcDbEntity
8
0
100
AcDbPolyline
90
8
70
1
43
0.0
10
295.4375
20
-76.850000000000009
10
308.4375
20
-76.850000000000037
42
-0.41421356237309503
10
308.9375
20
-77.350000000000009
10
308.9375
20
-90.349999999999994
42
-0.41421356237309503
10
308.4375
20
-90.850000000000009
10
295.4375
20
-90.850000000000009
42
-0.41421356237309503
10
294.9375
20
-90.349999999999994
10
294.9375
20
-77.350000000000009
42
-0.41421356237309503
0
LWPOLYLINE
5
156
100
AcDbEntity
8
0
100
AcDbPolyline
90
8
70
1
43
0.0
10
319.25
20
-76.850000000000009
10
332.25
20
-76.850000000000037
42
-0.41421356237309503
10
332.75
20
-77.350000000000009
10
332.75000000000006
20
-90.349999999999994
42
-0.41421356237309503
10
332.25
20
-90.850000000000009
10
319.25
20
-90.849999999999966
42
-0.41421356237309503
10
318.75
20
-90.349999999999994
10
318.74999999999994
20
-77.350000000000009
42
-0.41421356237309503
0
LWPOLYLINE
5
157
100
AcDbEntity
8
0
100
AcDbPolyline
90
8
70
1
43
0.0
10
338.29999999999995
20
-76.850000000000009
10
351.30000000000001
20
-76.850000000000037
42
-0.41421356237309503
10
351.80000000000001
20
-77.350000000000009
10
351.80000000000007
20
-90.349999999999994
42
-0.41421356237309503
10
351.30000000000001
20
-90.850000000000009
10
338.29999999999995
20
-90.849999999999966
42
-0.41421356237309503
10
337.80000000000001
20
-90.349999999999994
10
337.80000000000001
20
-77.350000000000009
42
-0.41421356237309503
0
LWPOLYLINE
5
158
100
AcDbEntity
8
0
100
AcDbPolyline
90
8
70
1
43
0.0
10
357.35000000000002
20
-76.850000000000009
10
370.35000000000002
20
-76.850000000000037
42
-0.41421356237309503
10
370.85000000000002
20
-77.350000000000009
10
370.85000000000008
20
-90.349999999999994
42
-0.41421356237309503
10
370.35000000000002
20
-90.850000000000009
10
357.35000000000002
20
-90.849999999999966
42
-0.41421356237309503
10
356.85000000000002
20
-90.349999999999994
10
356.85000000000002
20
-77.350000000000009
42
-0.41421356237309503
0
LWPOLYLINE
5
159
100
AcDbEntity
8
0
100
AcDbPolyline
90
8
70
1
43
0.0
10
389.90000000000003
20
-86.875
10
389.90000000000009
20
-99.875
42
-0.41421356237309503
10
389.40000000000003
20
-100.37500000000001
10
376.39999999999998
20
-100.37499999999997
42
-0.41421356237309503
10
375.90000000000003
20
-99.875
10
375.90000000000003
20
-86.875
42
-0.41421356237309503
10
376.39999999999998
20
-86.375000000000014
10
389.40000000000003
20
-86.375000000000028
42
-0.41421356237309503
0
LWPOLYLINE
5
160
100
AcDbEntity
8
0
100
AcDbPolyline
90
8
70
1
43
0.0
10
388.89999999999998
20
-78.436999999999998
10
388.89999999999998
20
-84.436999999999998
42
-0.41421356237309503
10
388.40000000000003
20
-84.937000000000012
10
374.40000000000003
20
-84.93700000000004
42
-0.41421356237309503
10
373.89999999999998
20
-84.436999999999998
10
373.90000000000009
20
-78.436999999999998
42
-0.41421356237309503
10
374.40000000000003
20
-77.936999999999998
10
388.40000000000003
20
-77.937000000000026
42
-0.41421356237309503
0
LWPOLYLINE
5
161
100
AcDbEntity
8
0
100
AcDbPolyline
90
8
70
1
43
0.0
10
388.89999999999998
20
-102.31300000000002
10
388.89999999999998
20
-108.31300000000002
42
-0.41421356237309503
10
388.40000000000003
20
-108.81300000000002
10
374.40000000000003
20
-108.81300000000007
42
-0.41421356237309503
10
373.89999999999998
20
-108.31300000000002
10
373.90000000000009
20
-102.31300000000002
42
-0.41421356237309503
10
374.40000000000003
20
-101.81300000000002
10
388.40000000000003
20
-101.81300000000005
42
-0.41421356237309503
0
LWPOLYLINE
5
162
100
AcDbEntity
8
0
100
AcDbPolyline
90
8
70
1
43
0.0
10
40.643750000000011
20
-95.900000000000006
10
53.643750000000011
20
-95.900000000000006
42
-0.41421356237309503
10
54.143750000000004
20
-96.400000000000006
10
54.143749999999997
20
-109.40000000000001
42
-0.41421356237309503
10
53.643750000000011
20
-109.90000000000001
10
40.643750000000011
20
-109.90000000000002
42
-0.41421356237309503
10
40.143750000000011
20
-109.40000000000001
10
40.143750000000004
20
-96.400000000000006
42
-0.41421356237309503
0
LWPOLYLINE
5
163
100
AcDbEntity
8
0
100
AcDbPolyline
90
8
70
1
43
0.0
10
66.837500000000006
20
-95.900000000000006
10
79.837500000000006
20
-95.900000000000006
42
-0.41421356237309503
10
80.337500000000006
20
-96.400000000000006
10
80.337499999999991
20
-109.40000000000001
42
-0.41421356237309503
10
79.837500000000006
20
-109.90000000000001
10
66.837500000000006
20
-109.90000000000002
42
-0.41421356237309503
10
66.337500000000006
20
-109.40000000000001
10
66.337500000000006
20
-96.400000000000006
42
-0.41421356237309503
0
LWPOLYLINE
5
164
100
AcDbEntity
8
0
100
AcDbPolyline
90
8
70
1
43
0.0
10
85.887500000000017
20
-95.900000000000006
10
98.887500000000003
20
-95.900000000000006
42
-0.41421356237309503
10
99.387500000000003
20
-96.400000000000006
10
99.387499999999989
20
-109.40000000000001
42
-0.41421356237309503
10
98.887500000000003
20
-109.90000000000001
10
85.887500000000017
20
-109.90000000000001
42
-0.41421356237309503
10
85.387500000000017
20
-109.40000000000001
10
85.387500000000003
20
-96.400000000000006
42
-0.41421356237309503
0
LWPOLYLINE
5
165
100
AcDbEntity
8
0
100
AcDbPolyline
90
8
70
1
43
0.0
10
104.93750000000003
20
-95.900000000000006
10
117.93750000000003
20
-95.90000000000002
42
-0.41421356237309503
10
118.43750000000001
20
-96.400000000000006
10
118.43750000000001
20
-109.40000000000001
42
-0.41421356237309503
10
117.93750000000003
20
-109.90000000000001
10
104.93750000000003
20
-109.90000000000002
42
-0.41421356237309503
10
104.43750000000001
20
-109.40000000000001
10
104.43750000000001
20
-96.400000000000006
42
-0.41421356237309503
0
LWPOLYLINE
5
166
100
AcDbEntity
8
0
100
AcDbPolyline
90
8
70
1
43
0.0
10
123.98750000000001
20
-95.900000000000006
10
136.98750000000001
20
-95.900000000000006
42
-0.41421356237309503
10
137.48750000000004
20
-96.400000000000006
10
137.48750000000001
20
-109.40000000000001
42
-0.41421356237309503
10
136.98750000000001
20
-109.90000000000001
10
123.98750000000001
20
-109.90000000000001
42
-0.41421356237309503
10
123.48750000000003
20
-109.40000000000001
10
123.48750000000001
20
-96.400000000000006
42
-0.41421356237309503
0
LWPOLYLINE
5
167
100
AcDbEntity
8
0
100
AcDbPolyline
90
8
70
1
43
0.0
10
143.03750000000002
20
-95.900000000000006
10
156.03750000000002
20
-95.900000000000006
42
-0.41421356237309503
10
156.53750000000002
20
-96.400000000000006
10
156.53749999999999
20
-109.40000000000001
42
-0.41421356237309503
10
156.03750000000002
20
-109.90000000000001
10
143.03750000000002
20
-109.90000000000002
42
-0.41421356237309503
10
142.53750000000002
20
-109.40000000000001
10
142.53750000000002
20
-96.400000000000006
42
-0.41421356237309503
0
LWPOLYLINE
5
168
100
AcDbEntity
8
0
100
AcDbPolyline
90
8
70
1
43
0.0
10
162.08750000000003
20
-95.900000000000006
10
175.08750000000003
20
-95.900000000000006
42
-0.41421356237309503
10
175.58750000000003
20
-96.400000000000006
10
175.58750000000003
20
-109.40000000000001
42
-0.41421356237309503
10
175.08750000000003
20
-109.90000000000001
10
162.08750000000003
20
-109.89999999999998
42
-0.41421356237309503
10
161.58750000000003
20
-109.40000000000001
10
161.58750000000001
20
-96.400000000000006
42
-0.41421356237309503
0
LWPOLYLINE
5
169
100
AcDbEntity
8
0
100
AcDbPolyline
90
8
70
1
43
0.0
10
181.13749999999999
20
-95.900000000000006
10
194.13749999999999
20
-95.900000000000006
42
-0.41421356237309503
10
194.63750000000002
20
-96.400000000000006
10
194.63749999999999
20
-109.40000000000001
42
-0.41421356237309503
10
194.13749999999999
20
-109.90000000000001
10
181.13749999999999
20
-109.90000000000002
42
-0.41421356237309503
10
180.63749999999999
20
-109.40000000000001
10
180.63749999999999
20
-96.400000000000006
42
-0.41421356237309503
0
LWPOLYLINE
5
170
100
AcDbEntity
8
0
100
AcDbPolyline
90
8
70
1
43
0.0
10
200.1875
20
-95.900000000000006
10
213.1875
20
-95.900000000000006
42
-0.41421356237309503
10
213.68750000000003
20
-96.400000000000006
10
213.6875
20
-109.40000000000001
42
-0.41421356237309503
10
213.1875
20
-109.90000000000001
10
200.1875
20
-109.90000000000002
42
-0.41421356237309503
10
199.6875
20
-109.40000000000001
10
199.6875
20
-96.400000000000006
42
-0.41421356237309503
0
LWPOLYLINE
5
171
100
AcDbEntity
8
0
100
AcDbPolyline
90
8
70
1
43
0.0
10
219.23749999999998
20
-95.900000000000006
10
232.23749999999998
20
-95.900000000000006
42
-0.41421356237309503
10
232.73750000000001
20
-96.400000000000006
10
232.73750000000001
20
-109.40000000000001
42
-0.41421356237309503
10
232.23749999999998
20
-109.90000000000001
10
219.23749999999998
20
-109.90000000000002
42
-0.41421356237309503
10
218.73749999999998
20
-109.40000000000001
10
218.73749999999998
20
-96.400000000000006
42
-0.41421356237309503
0
LWPOLYLINE
5
172
100
AcDbEntity
8
0
100
AcDbPolyline
90
8
70
1
43
0.0
10
238.28749999999999
20
-95.900000000000006
10
251.28749999999999
20
-95.900000000000006
42
-0.41421356237309503
10
251.78750000000002
20
-96.400000000000006
10
251.78750000000002
20
-109.40000000000001
42
-0.41421356237309503
10
251.28749999999999
20
-109.90000000000001
10
238.28749999999999
20
-109.89999999999998
42
-0.41421356237309503
10
237.78750000000002
20
-109.40000000000001
10
237.78749999999999
20
-96.400000000000006
42
-0.41421356237309503
0
LWPOLYLINE
5
173
100
AcDbEntity
8
0
100
AcDbPolyline
90
8
70
1
43
0.0
10
257.33749999999998
20
-95.900000000000006
10
270.33750000000003
20
-95.900000000000006
42
-0.41421356237309503
10
270.83750000000003
20
-96.400000000000006
10
270.83750000000003
20
-109.40000000000001
42
-0.41421356237309503
10
270.33750000000003
20
-109.90000000000001
10
257.33749999999998
20
-109.89999999999998
42
-0.41421356237309503
10
256.83750000000003
20
-109.40000000000001
10
256.83749999999998
20
-96.400000000000006
42
-0.41421356237309503
0
LWPOLYLINE
5
174
100
AcDbEntity
8
0
100
AcDbPolyline
90
8
70
1
43
0.0
10
288.29375000000005
20
-95.900000000000006
10
301.29375000000005
20
-95.900000000000006
42
-0.41421356237309503
10
301.79375000000005
20
-96.400000000000006
10
301.79374999999999
20
-109.40000000000001
42
-0.41421356237309503
10
301.29375000000005
20
-109.90000000000001
10
288.29375000000005
20
-109.90000000000002
42
-0.41421356237309503
10
287.79375000000005
20
-109.40000000000001
10
287.79375000000005
20
-96.400000000000006
42
-0.41421356237309503
0
LWPOLYLINE
5
175
100
AcDbEntity
8
0
100
AcDbPolyline
90
8
70
1
43
0.0
10
279.85575
20
-96.900000000000006
10
285.85575
20
-96.899999999999991
42
-0.41421356237309503
10
286.35575000000006
20
-97.400000000000006
10
286.35575000000006
20
-111.40000000000001
42
-0.41421356237309503
10
285.85575
20
-111.90000000000001
10
279.85575
20
-111.90000000000001
42
-0.41421356237309503
10
279.35575
20
-111.40000000000001
10
279.35575
20
-97.400000000000006
42
-0.41421356237309503
0
LWPOLYLINE
5
176
100
AcDbEntity
8
0
100
AcDbPolyline
90
8
70
1
43
0.0
10
303.73175000000003
20
-96.900000000000006
10
309.73175000000003
20
-96.899999999999991
42
-0.41421356237309503
10
310.23175000000003
20
-97.400000000000006
10
310.23175000000003
20
-111.40000000000001
42
-0.41421356237309503
10
309.73175000000003
20
-111.90000000000001
10
303.73175000000003
20
-111.90000000000001
42
-0.41421356237309503
10
303.23175000000003
20
-111.40000000000001
10
303.23175000000003
20
-97.400000000000006
42
-0.41421356237309503
0
LWPOLYLINE
5
177
100
AcDbEntity
8
0
100
AcDbPolyline
90
8
70
1
43
0.0
10
319.25
20
-95.900000000000006
10
332.25
20
-95.900000000000034
42
-0.41421356237309503
10
332.75
20
-96.400000000000006
10
332.75
20
-109.40000000000001
42
-0.41421356237309503
10
332.25
20
-109.90000000000001
10
319.25
20
-109.89999999999998
42
-0.41421356237309503
10
318.75
20
-109.40000000000001
10
318.74999999999994
20
-96.400000000000006
42
-0.41421356237309503
0
LWPOLYLINE
5
178
100
AcDbEntity
8
0
100
AcDbPolyline
90
8
70
1
43
0.0
10
338.29999999999995
20
-95.900000000000006
10
351.30000000000001
20
-95.900000000000034
42
-0.41421356237309503
10
351.80000000000001
20
-96.400000000000006
10
351.80000000000001
20
-109.40000000000001
42
-0.41421356237309503
10
351.30000000000001
20
-109.90000000000001
10
338.29999999999995
20
-109.89999999999998
42
-0.41421356237309503
10
337.80000000000001
20
-109.40000000000001
10
337.80000000000001
20
-96.400000000000006
42
-0.41421356237309503
0
LWPOLYLINE
5
179
100
AcDbEntity
8
0
100
AcDbPolyline
90
8
70
1
43
0.0
10
357.35000000000002
20
-95.900000000000006
10
370.35000000000002
20
-95.900000000000034
42
-0.41421356237309503
10
370.85000000000002
20
-96.400000000000006
10
370.85000000000002
20
-109.40000000000001
42
-0.41421356237309503
10
370.35000000000002
20
-109.90000000000001
10
357.35000000000002
20
-109.89999999999998
42
-0.41421356237309503
10
356.85000000000002
20
-109.40000000000001
10
356.85000000000002
20
-96.400000000000006
42
-0.41421356237309503
0
LWPOLYLINE
5
180
100
AcDbEntity
8
0
100
AcDbPolyline
90
8
70
1
43
0.0
10
45.40625
20
-114.95000000000002
10
58.406250000000014
20
-114.95000000000002
42
-0.41421356237309503
10
58.906250000000007
20
-115.45
10
58.90625
20
-128.45000000000002
42
-0.41421356237309503
10
58.406250000000014
20
-128.94999999999999
10
45.40625
20
-128.94999999999999
42
-0.41421356237309503
10
44.906250000000014
20
-128.45000000000002
10
44.906250000000014
20
-115.45
42
-0.41421356237309503
0
LWPOLYLINE
5
181
100
AcDbEntity
8
0
100
AcDbPolyline
90
8
70
1
43
0.0
10
36.968250000000012
20
-115.95
10
42.968250000000012
20
-115.94999999999999
42
-0.41421356237309503
10
43.468250000000012
20
-116.44999999999999
10
43.468250000000019
20
-130.44999999999999
42
-0.41421356237309503
10
42.968250000000012
20
-130.95000000000002
10
36.968250000000012
20
-130.95000000000002
42
-0.41421356237309503
10
36.468250000000005
20
-130.44999999999999
10
36.468250000000019
20
-116.44999999999999
42
-0.41421356237309503
0
LWPOLYLINE
5
182
100
AcDbEntity
8
0
100
AcDbPolyline
90
8
70
1
43
0.0
10
60.844250000000017
20
-115.95
10
66.844250000000017
20
-115.94999999999999
42
-0.41421356237309503
10
67.344250000000017
20
-116.44999999999999
10
67.344250000000017
20
-130.44999999999999
42
-0.41421356237309503
10
66.844250000000017
20
-130.95000000000002
10
60.844250000000017
20
-130.95000000000002
42
-0.41421356237309503
10
60.344250000000002
20
-130.44999999999999
10
60.344250000000024
20
-116.44999999999999
42
-0.41421356237309503
0
LWPOLYLINE
5
183
100
AcDbEntity
8
0
100
AcDbPolyline
90
8
70
1
43
0.0
10
76.362500000000011
20
-114.95000000000002
10
89.362500000000011
20
-114.94999999999999
42
-0.41421356237309503
10
89.862500000000011
20
-115.45
10
89.862499999999997
20
-128.45000000000002
42
-0.41421356237309503
10
89.362500000000011
20
-128.94999999999999
10
76.362500000000011
20
-128.94999999999999
42
-0.41421356237309503
10
75.862500000000011
20
-128.45000000000002
10
75.862500000000011
20
-115.45
42
-0.41421356237309503
0
LWPOLYLINE
5
184
100
AcDbEntity
8
0
100
AcDbPolyline
90
8
70
1
43
0.0
10
95.412500000000023
20
-114.95000000000002
10
108.41250000000001
20
-114.94999999999999
42
-0.41421356237309503
10
108.91250000000001
20
-115.45
10
108.91249999999999
20
-128.45000000000002
42
-0.41421356237309503
10
108.41250000000001
20
-128.94999999999999
10
95.412500000000023
20
-128.95000000000002
42
-0.41421356237309503
10
94.912500000000009
20
-128.45000000000002
10
94.912500000000023
20
-115.45
42
-0.41421356237309503
0
LWPOLYLINE
5
185
100
AcDbEntity
8
0
100
AcDbPolyline
90
8
70
1
43
0.0
10
114.46250000000001
20
-114.95000000000002
10
127.46250000000002
20
-114.94999999999999
42
-0.41421356237309503
10
127.96250000000002
20
-115.45
10
127.96250000000001
20
-128.45000000000002
42
-0.41421356237309503
10
127.46250000000002
20
-128.94999999999999
10
114.46250000000001
20
-128.94999999999999
42
-0.41421356237309503
10
113.96250000000002
20
-128.45000000000002
10
113.96250000000002
20
-115.45
42
-0.41421356237309503
0
LWPOLYLINE
5
186
100
AcDbEntity
8
0
100
AcDbPolyline
90
8
70
1
43
0.0
10
133.51250000000002
20
-114.95000000000002
10
146.51250000000002
20
-114.94999999999999
42
-0.41421356237309503
10
147.01250000000002
20
-115.45
10
147.01249999999999
20
-128.45000000000002
42
-0.41421356237309503
10
146.51250000000002
20
-128.94999999999999
10
133.51250000000002
20
-128.95000000000002
42
-0.41421356237309503
10
133.01250000000002
20
-128.45000000000002
10
133.01250000000005
20
-115.45
42
-0.41421356237309503
0
LWPOLYLINE
5
187
100
AcDbEntity
8
0
100
AcDbPolyline
90
8
70
1
43
0.0
10
152.56250000000003
20
-114.95000000000002
10
165.56250000000003
20
-114.94999999999999
42
-0.41421356237309503
10
166.06250000000003
20
-115.45
10
166.06250000000003
20
-128.45000000000002
42
-0.41421356237309503
10
165.56250000000003
20
-128.94999999999999
10
152.56250000000003
20
-128.95000000000002
42
-0.41421356237309503
10
152.06250000000003
20
-128.45000000000002
10
152.06250000000006
20
-115.45
42
-0.41421356237309503
0
LWPOLYLINE
5
188
100
AcDbEntity
8
0
100
AcDbPolyline
90
8
70
1
43
0.0
10
171.61249999999998
20
-114.95000000000002
10
184.61250000000001
20
-114.94999999999999
42
-0.41421356237309503
10
185.11250000000001
20
-115.45
10
185.11249999999995
20
-128.45000000000002
42
-0.41421356237309503
10
184.61250000000001
20
-128.94999999999999
10
171.61249999999998
20
-128.95000000000002
42
-0.41421356237309503
10
171.11249999999998
20
-128.45000000000002
10
171.11249999999998
20
-115.45
42
-0.41421356237309503
0
LWPOLYLINE
5
189
100
AcDbEntity
8
0
100
AcDbPolyline
90
8
70
1
43
0.0
10
190.66249999999999
20
-114.95000000000002
10
203.66250000000002
20
-114.94999999999999
42
-0.41421356237309503
10
204.16250000000002
20
-115.45
10
204.16249999999997
20
-128.45000000000002
42
-0.41421356237309503
10
203.66250000000002
20
-128.94999999999999
10
190.66249999999999
20
-128.95000000000002
42
-0.41421356237309503
10
190.16249999999999
20
-128.45000000000002
10
190.16249999999999
20
-115.45
42
-0.41421356237309503
0
LWPOLYLINE
5
190
100
AcDbEntity
8
0
100
AcDbPolyline
90
8
70
1
43
0.0
10
209.71250000000001
20
-114.95000000000002
10
222.71250000000003
20
-114.94999999999999
42
-0.41421356237309503
10
223.21250000000003
20
-115.45
10
223.21249999999998
20
-128.45000000000002
42
-0.41421356237309503
10
222.71250000000003
20
-128.94999999999999
10
209.71250000000001
20
-128.95000000000002
42
-0.41421356237309503
10
209.21250000000001
20
-128.45000000000002
10
209.21250000000001
20
-115.45
42
-0.41421356237309503
0
LWPOLYLINE
5
191
100
AcDbEntity
8
0
100
AcDbPolyline
90
8
70
1
43
0.0
10
228.76249999999999
20
-114.95000000000002
10
241.76249999999999
20
-114.94999999999999
42
-0.41421356237309503
10
242.26249999999999
20
-115.45
10
242.26249999999999
20
-128.45000000000002
42
-0.41421356237309503
10
241.76249999999999
20
-128.94999999999999
10
228.76249999999999
20
-128.94999999999999
42
-0.41421356237309503
10
228.26250000000002
20
-128.45000000000002
10
228.26250000000002
20
-115.45
42
-0.41421356237309503
0
LWPOLYLINE
5
192
100
AcDbEntity
8
0
100
AcDbPolyline
90
8
70
1
43
0.0
10
247.8125
20
-114.95000000000002
10
260.8125
20
-114.94999999999999
42
-0.41421356237309503
10
261.3125
20
-115.45
10
261.3125
20
-128.45000000000002
42
-0.41421356237309503
10
260.8125
20
-128.94999999999999
10
247.8125
20
-128.94999999999999
42
-0.41421356237309503
10
247.31250000000003
20
-128.45000000000002
10
247.31250000000003
20
-115.45
42
-0.41421356237309503
0
LWPOLYLINE
5
193
100
AcDbEntity
8
0
100
AcDbPolyline
90
8
70
1
43
0.0
10
274.00625000000002
20
-114.95000000000002
10
287.00625000000002
20
-114.95000000000003
42
-0.41421356237309503
10
287.50625000000002
20
-115.45
10
287.50625000000002
20
-128.45000000000002
42
-0.41421356237309503
10
287.00625000000002
20
-128.94999999999999
10
274.00625000000002
20
-128.95000000000002
42
-0.41421356237309503
10
273.50625000000002
20
-128.45000000000002
10
273.50625000000002
20
-115.45
42
-0.41421356237309503
0
LWPOLYLINE
5
194
100
AcDbEntity
8
0
100
AcDbPolyline
90
8
70
1
43
0.0
10
300.20000000000005
20
-114.95000000000002
10
313.20000000000005
20
-114.94999999999999
42
-0.41421356237309503
10
313.70000000000005
20
-115.45
10
313.70000000000005
20
-128.45000000000002
42
-0.41421356237309503
10
313.20000000000005
20
-128.94999999999999
10
300.20000000000005
20
-128.95000000000002
42
-0.41421356237309503
10
299.70000000000005
20
-128.45000000000002
10
299.70000000000005
20
-115.45
42
-0.41421356237309503
0
LWPOLYLINE
5
195
100
AcDbEntity
8
0
100
AcDbPolyline
90
8
70
1
43
0.0
10
319.25
20
-114.95000000000002
10
332.25
20
-114.95000000000003
42
-0.41421356237309503
10
332.75
20
-115.45
10
332.75
20
-128.45000000000002
42
-0.41421356237309503
10
332.25
20
-128.94999999999999
10
319.25
20
-128.94999999999999
42
-0.41421356237309503
10
318.75
20
-128.45000000000002
10
318.75
20
-115.45
42
-0.41421356237309503
0
LWPOLYLINE
5
196
100
AcDbEntity
8
0
100
AcDbPolyline
90
8
70
1
43
0.0
10
338.29999999999995
20
-114.95000000000002
10
351.30000000000001
20
-114.95000000000003
42
-0.41421356237309503
10
351.80000000000001
20
-115.45
10
351.80000000000001
20
-128.45000000000002
42
-0.41421356237309503
10
351.30000000000001
20
-128.94999999999999
10
338.29999999999995
20
-128.94999999999999
42
-0.41421356237309503
10
337.80000000000001
20
-128.45000000000002
10
337.80000000000001
20
-115.45
42
-0.41421356237309503
0
LWPOLYLINE
5
197
100
AcDbEntity
8
0
100
AcDbPolyline
90
8
70
1
43
0.0
10
357.35000000000002
20
-114.95000000000002
10
370.35000000000002
20
-114.95000000000003
42
-0.41421356237309503
10
370.85000000000002
20
-115.45
10
370.85000000000002
20
-128.45000000000002
42
-0.41421356237309503
10
370.35000000000002
20
-128.94999999999999
10
357.35000000000002
20
-128.94999999999999
42
-0.41421356237309503
10
356.85000000000002
20
-128.45000000000002
10
356.85000000000002
20
-115.45
42
-0.41421356237309503
0
LWPOLYLINE
5
198
100
AcDbEntity
8
0
100
AcDbPolyline
90
8
70
1
43
0.0
10
389.90000000000003
20
-124.97500000000001
10
389.90000000000009
20
-137.97500000000002
42
-0.41421356237309503
10
389.40000000000003
20
-138.47500000000002
10
376.39999999999998
20
-138.47499999999999
42
-0.41421356237309503
10
375.90000000000003
20
-137.97500000000002
10
375.90000000000003
20
-124.97500000000001
42
-0.41421356237309503
10
376.39999999999998
20
-124.47500000000002
10
389.40000000000003
20
-124.47500000000004
42
-0.41421356237309503
0
LWPOLYLINE
5
199
100
AcDbEntity
8
0
100
AcDbPolyline
90
8
70
1
43
0.0
10
388.89999999999998
20
-116.53700000000001
10
388.89999999999998
20
-122.53700000000002
42
-0.41421356237309503
10
388.40000000000003
20
-123.03700000000003
10
374.40000000000003
20
-123.03700000000006
42
-0.41421356237309503
10
373.89999999999998
20
-122.53700000000002
10
373.89999999999998
20
-116.53700000000001
42
-0.41421356237309503
10
374.40000000000003
20
-116.03700000000001
10
388.40000000000003
20
-116.03700000000003
42
-0.41421356237309503
0
LWPOLYLINE
5
200
100
AcDbEntity
8
0
100
AcDbPolyline
90
8
70
1
43
0.0
10
388.89999999999998
20
-140.41300000000001
10
388.89999999999998
20
-146.41299999999998
42
-0.41421356237309503
10
388.40000000000003
20
-146.91300000000001
10
374.40000000000003
20
-146.91300000000004
42
-0.41421356237309503
10
373.89999999999998
20
-146.41299999999998
10
373.90000000000009
20
-140.41300000000001
42
-0.41421356237309503
10
374.40000000000003
20
-139.91300000000001
10
388.40000000000003
20
-139.91300000000001
42
-0.41421356237309503
0
LWPOLYLINE
5
201
100
AcDbEntity
8
0
100
AcDbPolyline
90
8
70
1
43
0.0
10
59.693750000000009
20
-134.00000000000003
10
72.693749999999994
20
-134
42
-0.41421356237309503
10
73.193750000000009
20
-134.5
10
73.193750000000009
20
-147.50000000000003
42
-0.41421356237309503
10
72.693749999999994
20
-148.00000000000003
10
59.693750000000009
20
-148.00000000000003
42
-0.41421356237309503
10
59.193750000000009
20
-147.50000000000003
10
59.193750000000023
20
-134.5
42
-0.41421356237309503
0
LWPOLYLINE
5
202
100
AcDbEntity
8
0
100
AcDbPolyline
90
8
70
1
43
0.0
10
83.506250000000009
20
-134.00000000000003
10
96.506250000000023
20
-134.00000000000003
42
-0.41421356237309503
10
97.006250000000009
20
-134.5
10
97.006250000000023
20
-147.50000000000003
42
-0.41421356237309503
10
96.506250000000023
20
-148.00000000000003
10
83.506250000000009
20
-148
42
-0.41421356237309503
10
83.006250000000023
20
-147.50000000000003
10
83.006250000000023
20
-134.5
42
-0.41421356237309503
0
LWPOLYLINE
5
203
100
AcDbEntity
8
0
100
AcDbPolyline
90
8
70
1
43
0.0
10
154.94375000000002
20
-134.00000000000003
10
167.94375000000002
20
-134.00000000000003
42
-0.41421356237309503
10
168.44374999999999
20
-134.5
10
168.44375000000002
20
-147.50000000000003
42
-0.41421356237309503
10
167.94375000000002
20
-148.00000000000003
10
154.94375000000002
20
-148
42
-0.41421356237309503
10
154.44375000000002
20
-147.50000000000003
10
154.44375000000002
20
-134.5
42
-0.41421356237309503
0
LWPOLYLINE
5
204
100
AcDbEntity
8
0
100
AcDbPolyline
90
8
70
1
43
0.0
10
108.44375000000001
20
-135.00000000000003
10
114.44375000000001
20
-135.00000000000003
42
-0.41421356237309503
10
114.94375000000002
20
-135.50000000000003
10
114.94375000000002
20
-149.5
42
-0.41421356237309503
10
114.44375000000001
20
-150.00000000000003
10
108.44375000000001
20
-150.00000000000003
42
-0.41421356237309503
10
107.94375000000001
20
-149.5
10
107.94375000000001
20
-135.50000000000003
42
-0.41421356237309503
0
LWPOLYLINE
5
205
100
AcDbEntity
8
0
100
AcDbPolyline
90
8
70
1
43
0.0
10
208.44374999999999
20
-135.00000000000003
10
214.44375000000002
20
-135.00000000000003
42
-0.41421356237309503
10
214.94375000000002
20
-135.50000000000003
10
214.94375000000002
20
-149.5
42
-0.41421356237309503
10
214.44375000000002
20
-150.00000000000003
10
208.44374999999999
20
-150.00000000000003
42
-0.41421356237309503
10
207.94374999999999
20
-149.5
10
207.94374999999999
20
-135.50000000000003
42
-0.41421356237309503
0
LWPOLYLINE
5
206
100
AcDbEntity
8
0
100
AcDbPolyline
90
8
70
1
43
0.0
10
224.00000000000003
20
-134.00000000000003
10
237.00000000000003
20
-134.00000000000003
42
-0.41421356237309503
10
237.5
20
-134.5
10
237.50000000000003
20
-147.50000000000003
42
-0.41421356237309503
10
237.00000000000003
20
-148.00000000000003
10
224.00000000000003
20
-148.00000000000003
42
-0.41421356237309503
10
223.5
20
-147.50000000000003
10
223.5
20
-134.5
42
-0.41421356237309503
0
LWPOLYLINE
5
207
100
AcDbEntity
8
0
100
AcDbPolyline
90
8
70
1
43
0.0
10
243.05000000000001
20
-134.00000000000003
10
256.05000000000001
20
-134
42
-0.41421356237309503
10
256.55000000000001
20
-134.5
10
256.55000000000001
20
-147.50000000000003
42
-0.41421356237309503
10
256.05000000000001
20
-148.00000000000003
10
243.05000000000001
20
-148.00000000000003
42
-0.41421356237309503
10
242.54999999999998
20
-147.50000000000003
10
242.55000000000001
20
-134.5
42
-0.41421356237309503
0
LWPOLYLINE
5
208
100
AcDbEntity
8
0
100
AcDbPolyline
90
8
70
1
43
0.0
10
262.10000000000002
20
-134.00000000000003
10
275.10000000000002
20
-134
42
-0.41421356237309503
10
275.60000000000002
20
-134.5
10
275.60000000000002
20
-147.50000000000003
42
-0.41421356237309503
10
275.10000000000002
20
-148.00000000000003
10
262.10000000000002
20
-148.00000000000003
42
-0.41421356237309503
10
261.60000000000002
20
-147.50000000000003
10
261.60000000000002
20
-134.5
42
-0.41421356237309503
0
LWPOLYLINE
5
209
100
AcDbEntity
8
0
100
AcDbPolyline
90
8
70
1
43
0.0
10
281.15000000000003
20
-134.00000000000003
10
294.15000000000003
20
-134
42
-0.41421356237309503
10
294.65000000000003
20
-134.5
10
294.65000000000003
20
-147.50000000000003
42
-0.41421356237309503
10
294.15000000000003
20
-148.00000000000003
10
281.15000000000003
20
-148.00000000000003
42
-0.41421356237309503
10
280.65000000000003
20
-147.50000000000003
10
280.65000000000003
20
-134.5
42
-0.41421356237309503
0
LWPOLYLINE
5
210
100
AcDbEntity
8
0
100
AcDbPolyline
90
8
70
1
43
0.0
10
300.20000000000005
20
-134.00000000000003
10
313.20000000000005
20
-134
42
-0.41421356237309503
10
313.70000000000005
20
-134.5
10
313.70000000000005
20
-147.50000000000003
42
-0.41421356237309503
10
313.20000000000005
20
-148.00000000000003
10
300.20000000000005
20
-148.00000000000003
42
-0.41421356237309503
10
299.70000000000005
20
-147.50000000000003
10
299.70000000000005
20
-134.5
42
-0.41421356237309503
0
LWPOLYLINE
5
211
100
AcDbEntity
8
0
100
AcDbPolyline
90
8
70
1
43
0.0
10
319.25
20
-134.00000000000003
10
332.25
20
-134.00000000000003
42
-0.41421356237309503
10
332.75
20
-134.5
10
332.75000000000006
20
-147.50000000000003
42
-0.41421356237309503
10
332.25
20
-148.00000000000003
10
319.25
20
-148
42
-0.41421356237309503
10
318.75
20
-147.50000000000003
10
318.75
20
-134.5
42
-0.41421356237309503
0
LWPOLYLINE
5
212
100
AcDbEntity
8
0
100
AcDbPolyline
90
8
70
1
43
0.0
10
338.29999999999995
20
-134.00000000000003
10
351.30000000000001
20
-134.00000000000003
42
-0.41421356237309503
10
351.80000000000001
20
-134.5
10
351.80000000000007
20
-147.50000000000003
42
-0.41421356237309503
10
351.30000000000001
20
-148.00000000000003
10
338.29999999999995
20
-148
42
-0.41421356237309503
10
337.80000000000001
20
-147.50000000000003
10
337.80000000000001
20
-134.5
42
-0.41421356237309503
0
LWPOLYLINE
5
213
100
AcDbEntity
8
0
100
AcDbPolyline
90
8
70
1
43
0.0
10
357.35000000000002
20
-134.00000000000003
10
370.35000000000002
20
-134.00000000000003
42
-0.41421356237309503
10
370.85000000000002
20
-134.5
10
370.85000000000008
20
-147.50000000000003
42
-0.41421356237309503
10
370.35000000000002
20
-148.00000000000003
10
357.35000000000002
20
-148
42
-0.41421356237309503
10
356.85000000000002
20
-147.50000000000003
10
356.85000000000002
20
-134.5
42
-0.41421356237309503
0
LWPOLYLINE
5
214
100
AcDbEntity
8
0
100
AcDbPolyline
90
8
70
1
43
0.0
10
3.0000000000000289
20
-170.00000086080325
10
456.99999999999994
20
-170.00000086080325
42
0.41421356237309503
10
460
20
-167.00000086080323
10
460
20
16.999999139196767
42
0.41421356237309503
10
457
20
19.999999139196738
10
2.9999999950329519
20
19.999998390827301
42
0.41421356188815622
10
5.4953155422779711e-15
20
16.999998390827287
10
4.4408920985006262e-15
20
-167.00000086080325
42
0.41421356237309503
0
LWPOLYLINE
5
215
100
AcDbEntity
8
0
100
AcDbPolyline
90
4
70
1
43
0.0
10
405.18000000000001
20
-87.540000860803232
10
442.89999999999998
20
-87.540000860803232
10
442.89999999999998
20
-137.50000086080325
10
405.18000000000001
20
-137.50000086080325
0
LWPOLYLINE
5
216
100
AcDbEntity
8
0
100
AcDbPolyline
90
4
70
1
43
0.0
10
402.89999999999998
20
-61.250000860803397
10
442.89999999999998
20
-61.250000860803397
10
442.89999999999998
20
-64.250000860803397
10
402.89999999999998
20
-64.250000860803397
0
LWPOLYLINE
5
217
100
AcDbEntity
8
0
100
AcDbPolyline
90
4
70
1
43
0.0
10
442.89999999999998
20
-51.65000086080326
10
402.89999999999998
20
-51.65000086080326
10
402.89999999999998
20
-48.65000086080326
10
442.89999999999998
20
-48.65000086080326
0
LWPOLYLINE
5
218
100
AcDbEntity
8
0
100
AcDbPolyline
90
4
70
1
43
0.0
10
402.89999999999998
20
-23.65000086080326
10
442.89999999999998
20
-23.65000086080326
10
442.89999999999998
20
-38.65000086080326
10
402.89999999999998
20
-38.65000086080326
0
LWPOLYLINE
5
219
100
AcDbEntity
8
0
100
AcDbPolyline
90
8
70
1
43
0.0
10
65.000000000000014
20
10.149999999999986
10
360.99999999999994
20
10.149999999999986
42
-0.4142135623730846
10
362.99999999999989
20
8.1499999999999577
10
362.99999999999989
20
-2.8499999999999837
42
-0.41421356237309503
10
360.99999999999989
20
-4.8500000000000121
10
65.000000000000014
20
-4.8500000000000121
42
-0.41421356237309503
10
63.000000000000007
20
-2.8500000000000103
10
63.000000000000007
20
8.1499999999999808
42
-0.41421356237309503
0
CIRCLE
5
220
100
AcDbEntity
8
0
100
AcDbCircle
10
5.000000074505806
20
-165.00000302147163
30
0
40
1.6000000000000003
210
0
220
0
230
1
0
CIRCLE
5
221
100
AcDbEntity
8
0
100
AcDbCircle
10
5.000000074505806
20
14.99999913919674
30
0
40
1.6000000000000003
210
0
220
0
230
1
0
CIRCLE
5
222
100
AcDbEntity
8
0
100
AcDbCircle
10
455.00000648200512
20
14.999999068948306
30
0
40
1.5999999999999659
210
0
220
0
230
1
0
CIRCLE
5
223
100
AcDbEntity
8
0
100
AcDbCircle
10
455.00000648200512
20
-165.00000302147163
30
0
40
1.5999999999999943
210
0
220
0
230
1
0
LWPOLYLINE
5
224
100
AcDbEntity
8
0
100
AcDbPolyline
90
8
70
1
43
0.0
10
33.500000000000007
20
-38.749999863714876
42
0.41421356237309503
10
33.000000000000007
20
-39.250000000000007
10
33.000000000000007
20
-52.250000000000007
42
0.41421356237309503
10
33.500000000000007
20
-52.75
10
46.500000000000014
20
-52.75
42
0.41421356237309503
10
47.000000000000014
20
-52.250000000000007
10
47.000000000000014
20
-39.250000000000007
42
0.41421356237309503
10
46.500000000000014
20
-38.749999863714876
0
CIRCLE
5
225
100
AcDbEntity
8
0
100
AcDbCircle
10
95.000000074505806
20
14.99999913919674
30
0
40
1.6000000000000003
210
0
220
0
230
1
0
CIRCLE
5
226
100
AcDbEntity
8
0
100
AcDbCircle
10
185.00000007450581
20
14.99999913919674
30
0
40
1.6000000000000003
210
0
220
0
230
1
0
CIRCLE
5
227
100
AcDbEntity
8
0
100
AcDbCircle
10
275.00000007450581
20
14.99999913919674
30
0
40
1.6000000000000003
210
0
220
0
230
1
0
CIRCLE
5
228
100
AcDbEntity
8
0
100
AcDbCircle
10
365.00000007450581
20
14.99999913919674
30
0
40
1.6000000000000003
210
0
220
0
230
1
0
CIRCLE
5
229
100
AcDbEntity
8
0
100
AcDbCircle
10
455.00000007450581
20
14.99999913919674
30
0
40
1.6000000000000003
210
0
220
0
230
1
0
CIRCLE
5
230
100
AcDbEntity
8
0
100
AcDbCircle
10
95.000000074505806
20
-165.00000302147163
30
0
40
1.6000000000000003
210
0
220
0
230
1
0
CIRCLE
5
231
100
AcDbEntity
8
0
100
AcDbCircle
10
185.00000007450581
20
-165.00000302147163
30
0
40
1.6000000000000003
210
0
220
0
230
1
0
CIRCLE
5
232
100
AcDbEntity
8
0
100
AcDbCircle
10
275.00000007450581
20
-165.00000302147163
30
0
40
1.6000000000000003
210
0
220
0
230
1
0
CIRCLE
5
233
100
AcDbEntity
8
0
100
AcDbCircle
10
365.00000007450581
20
-165.00000302147163
30
0
40
1.6000000000000003
210
0
220
0
230
1
0
CIRCLE
5
234
100
AcDbEntity
8
0
100
AcDbCircle
10
455.00000007450581
20
-165.00000302147163
30
0
40
1.6000000000000003
210
0
220
0
230
1
0
CIRCLE
5
235
100
AcDbEntity
8
0
100
AcDbCircle
10
5.0000000745058104
20
-75.000001605861328
30
0
40
1.6000000000000003
210
0
220
0
230
1
0
CIRCLE
5
236
100
AcDbEntity
8
0
100
AcDbCircle
10
455.00000663101673
20
-75.000000860803254
30
0
40
1.5999999999999805
210
0
220
0
230
1
0
LWPOLYLINE
5
237
100
AcDbEntity
8
0
100
AcDbPolyline
90
8
70
1
43
0.0
10
35.643750000000011
20
-148.00000000000003
10
48.643749999999997
20
-148.00000000000003
42
0.41421356237309503
10
49.143750000000004
20
-147.50000000000003
10
49.143750000000004
20
-134.5
42
0.41421356237309503
10
48.643749999999997
20
-134.00000000000003
10
35.643750000000011
20
-134.00000000000003
42
0.41421356237309503
10
35.143750000000004
20
-134.5
10
35.143750000000004
20
-147.50000000000003
42
0.41421356237309503
0
ENDSEC
0
SECTION
2
OBJECTS
0
DICTIONARY
5
C
100
AcDbDictionary
3
ACAD_GROUP
350
D
3
ACAD_MLINESTYLE
350
17
0
DICTIONARY
5
D
100
AcDbDictionary
0
DICTIONARY
5
1A
330
C
100
AcDbDictionary
0
DICTIONARY
5
17
100
AcDbDictionary
0
ENDSEC
0
EOF
