0
SECTION
2
HEADER
9
$INSUNITS
70
4
9
$ACADVER
1
AC1014
9
$HANDSEED
5
FFFF
0
ENDSEC
0
SECTION
2
TABLES
0
TABLE
2
VPORT
5
8
100
AcDbSymbolTable
0
ENDTAB
0
TABLE
2
LTYPE
5
5
100
AcDbSymbolTable
0
LTYPE
5
14
100
AcDbSymbolTableRecord
100
AcDbLinetypeTableRecord
2
BYBLOCK
70
0
0
LTYPE
5
15
100
AcDbSymbolTableRecord
100
AcDbLinetypeTableRecord
2
BYLAYER
70
0
0
LTYPE
5
16
100
AcDbSymbolTableRecord
100
AcDbLinetypeTableRecord
2
DASHED
70
0
3
Dashed __ __ __ __ __ __ __ __ __ __ __ __ __ _
72
65
73
2
40
0.75
49
0.5
74
0
49
-0.25
74
0
0
ENDTAB
0
TABLE
2
LAYER
5
2
100
AcDbSymbolTable
70
2
0
LAYER
5
50
100
AcDbSymbolTableRecord
100
AcDbLayerTableRecord
2
0
70
0
62
7
6
CONTINUOUS
0
ENDTAB
0
TABLE
2
STYLE
5
3
100
AcDbSymbolTable
70
1
0
STYLE
5
11
100
AcDbSymbolTableRecord
100
AcDbTextStyleTableRecord
2
STANDARD
70
0
0
ENDTAB
0
TABLE
2
VIEW
5
6
100
AcDbSymbolTable
70
0
0
ENDTAB
0
TABLE
2
UCS
5
7
100
AcDbSymbolTable
70
0
0
ENDTAB
0
TABLE
2
APPID
5
9
100
AcDbSymbolTable
70
2
0
APPID
5
12
100
AcDbSymbolTableRecord
100
AcDbRegAppTableRecord
2
ACAD
70
0
0
ENDTAB
0
TABLE
2
DIMSTYLE
5
A
100
AcDbSymbolTable
70
1
0
ENDTAB
0
TABLE
2
BLOCK_RECORD
5
1
100
AcDbSymbolTable
70
1
0
BLOCK_RECORD
5
1F
100
AcDbSymbolTableRecord
100
AcDbBlockTableRecord
2
*MODEL_SPACE
0
BLOCK_RECORD
5
1B
100
AcDbSymbolTableRecord
100
AcDbBlockTableRecord
2
*PAPER_SPACE
0
ENDTAB
0
ENDSEC
0
SECTION
2
BLOCKS
0
BLOCK
5
20
100
AcDbEntity
100
AcDbBlockBegin
2
*MODEL_SPACE
0
ENDBLK
5
21
100
AcDbEntity
100
AcDbBlockEnd
0
BLOCK
5
1C
100
AcDbEntity
100
AcDbBlockBegin
2
*PAPER_SPACE
0
ENDBLK
5
1D
100
AcDbEntity
100
AcDbBlockEnd
0
ENDSEC
0
SECTION
2
ENTITIES
0
POINT
5
100
100
AcDbEntity
8
0
100
AcDbPoint
10
23.000000342726729
20
-10.250000000000014
30
0
0
POINT
5
101
100
AcDbEntity
8
0
100
AcDbPoint
10
379.90000034272663
20
-10.250000000000014
30
0
0
POINT
5
102
100
AcDbEntity
8
0
100
AcDbPoint
10
23.000000342726729
20
-27.750000000000018
30
0
0
ARC
5
103
100
AcDbEntity
8
0
100
AcDbCircle
10
23.513311165064444
20
-47.269915105886327
30
0
40
0.51368787051533782
210
0
220
0
230
1
100
AcDbArc
50
177.80560163603855
51
268.48930314536261
0
LWPOLYLINE
5
104
100
AcDbEntity
8
0
100
AcDbPolyline
90
8
70
1
43
0.0
10
42.550000000000011
20
-33.750000000000007
10
55.550000000000011
20
-33.750000000000007
42
-0.41421356237309503
10
56.050000000000011
20
-34.25
10
56.050000000000011
20
-47.250000000000007
42
-0.41421356237309503
10
55.550000000000011
20
-47.75
10
42.550000000000011
20
-47.75
42
-0.41421356237309503
10
42.050000000000011
20
-47.250000000000007
10
42.049999999999997
20
-34.250000000000007
42
-0.41421356237309503
0
LWPOLYLINE
5
105
100
AcDbEntity
8
0
100
AcDbPolyline
90
8
70
1
43
0.0
10
61.600000000000001
20
-33.750000000000007
10
74.600000000000009
20
-33.750000000000007
42
-0.41421356237309503
10
75.100000000000023
20
-34.250000000000014
10
75.100000000000009
20
-47.250000000000007
42
-0.41421356237309503
10
74.600000000000009
20
-47.75
10
61.600000000000001
20
-47.75
42
-0.41421356237309503
10
61.100000000000009
20
-47.250000000000014
10
61.099999999999994
20
-34.250000000000007
42
-0.41421356237309503
0
LWPOLYLINE
5
106
100
AcDbEntity
8
0
100
AcDbPolyline
90
8
70
1
43
0.0
10
80.650000000000006
20
-33.750000000000007
10
93.650000000000006
20
-33.750000000000007
42
-0.41421356237309503
10
94.150000000000006
20
-34.250000000000014
10
94.149999999999991
20
-47.250000000000007
42
-0.41421356237309503
10
93.650000000000006
20
-47.75
10
80.650000000000006
20
-47.75
42
-0.41421356237309503
10
80.150000000000006
20
-47.25
10
80.150000000000006
20
-34.250000000000007
42
-0.41421356237309503
0
LWPOLYLINE
5
107
100
AcDbEntity
8
0
100
AcDbPolyline
90
8
70
1
43
0.0
10
99.700000000000003
20
-33.750000000000007
10
112.70000000000002
20
-33.750000000000007
42
-0.41421356237309503
10
113.2
20
-34.249999999999993
10
113.2
20
-47.250000000000007
42
-0.41421356237309503
10
112.70000000000002
20
-47.75
10
99.700000000000003
20
-47.75
42
-0.41421356237309503
10
99.200000000000003
20
-47.25
10
99.200000000000003
20
-34.250000000000007
42
-0.41421356237309503
0
LWPOLYLINE
5
108
100
AcDbEntity
8
0
100
AcDbPolyline
90
8
70
1
43
0.0
10
118.75000000000001
20
-33.750000000000007
10
131.75000000000003
20
-33.750000000000007
42
-0.41421356237309503
10
132.25000000000003
20
-34.250000000000014
10
132.25
20
-47.250000000000007
42
-0.41421356237309503
10
131.75000000000003
20
-47.75
10
118.75000000000001
20
-47.75
42
-0.41421356237309503
10
118.25000000000003
20
-47.250000000000014
10
118.25000000000001
20
-34.250000000000007
42
-0.41421356237309503
0
LWPOLYLINE
5
109
100
AcDbEntity
8
0
100
AcDbPolyline
90
8
70
1
43
0.0
10
137.80000000000004
20
-33.750000000000007
10
150.80000000000001
20
-33.750000000000007
42
-0.41421356237309503
10
151.30000000000001
20
-34.250000000000014
10
151.29999999999998
20
-47.250000000000007
42
-0.41421356237309503
10
150.80000000000001
20
-47.75
10
137.80000000000004
20
-47.75
42
-0.41421356237309503
10
137.30000000000001
20
-47.25
10
137.30000000000001
20
-34.250000000000007
42
-0.41421356237309503
0
LWPOLYLINE
5
110
100
AcDbEntity
8
0
100
AcDbPolyline
90
8
70
1
43
0.0
10
156.85000000000002
20
-33.750000000000007
10
169.84999999999999
20
-33.750000000000007
42
-0.41421356237309503
10
170.34999999999999
20
-34.250000000000014
10
170.34999999999999
20
-47.250000000000007
42
-0.41421356237309503
10
169.84999999999999
20
-47.75
10
156.85000000000002
20
-47.75
42
-0.41421356237309503
10
156.35000000000002
20
-47.25
10
156.35000000000002
20
-34.250000000000007
42
-0.41421356237309503
0
LWPOLYLINE
5
111
100
AcDbEntity
8
0
100
AcDbPolyline
90
8
70
1
43
0.0
10
175.90000000000003
20
-33.750000000000007
10
188.90000000000001
20
-33.750000000000007
42
-0.41421356237309503
10
189.40000000000001
20
-34.250000000000014
10
189.40000000000001
20
-47.250000000000007
42
-0.41421356237309503
10
188.90000000000001
20
-47.75
10
175.90000000000003
20
-47.75
42
-0.41421356237309503
10
175.40000000000003
20
-47.25
10
175.40000000000003
20
-34.250000000000007
42
-0.41421356237309503
0
LWPOLYLINE
5
112
100
AcDbEntity
8
0
100
AcDbPolyline
90
8
70
1
43
0.0
10
194.95000000000002
20
-33.750000000000007
10
207.94999999999999
20
-33.750000000000007
42
-0.41421356237309503
10
208.44999999999999
20
-34.250000000000014
10
208.44999999999999
20
-47.250000000000007
42
-0.41421356237309503
10
207.94999999999999
20
-47.75
10
194.95000000000002
20
-47.75
42
-0.41421356237309503
10
194.44999999999999
20
-47.25
10
194.44999999999999
20
-34.250000000000007
42
-0.41421356237309503
0
LWPOLYLINE
5
113
100
AcDbEntity
8
0
100
AcDbPolyline
90
8
70
1
43
0.0
10
214.00000000000003
20
-33.750000000000007
10
227.00000000000003
20
-33.750000000000007
42
-0.41421356237309503
10
227.5
20
-34.249999999999979
10
227.50000000000003
20
-47.250000000000007
42
-0.41421356237309503
10
227.00000000000003
20
-47.75
10
214.00000000000003
20
-47.75
42
-0.41421356237309503
10
213.5
20
-47.25
10
213.5
20
-34.250000000000007
42
-0.41421356237309503
0
LWPOLYLINE
5
114
100
AcDbEntity
8
0
100
AcDbPolyline
90
8
70
1
43
0.0
10
233.05000000000001
20
-33.750000000000007
10
246.05000000000001
20
-33.750000000000007
42
-0.41421356237309503
10
246.55000000000001
20
-34.250000000000014
10
246.55000000000001
20
-47.250000000000007
42
-0.41421356237309503
10
246.05000000000001
20
-47.75
10
233.05000000000001
20
-47.75
42
-0.41421356237309503
10
232.54999999999998
20
-47.25
10
232.54999999999998
20
-34.250000000000007
42
-0.41421356237309503
0
LWPOLYLINE
5
115
100
AcDbEntity
8
0
100
AcDbPolyline
90
8
70
1
43
0.0
10
252.10000000000002
20
-33.750000000000007
10
265.10000000000002
20
-33.750000000000007
42
-0.41421356237309503
10
265.60000000000002
20
-34.250000000000014
10
265.60000000000002
20
-47.250000000000007
42
-0.41421356237309503
10
265.10000000000002
20
-47.75
10
252.10000000000002
20
-47.75
42
-0.41421356237309503
10
251.59999999999999
20
-47.25
10
251.59999999999999
20
-34.250000000000007
42
-0.41421356237309503
0
LWPOLYLINE
5
116
100
AcDbEntity
8
0
100
AcDbPolyline
90
8
70
1
43
0.0
10
271.15000000000003
20
-33.750000000000007
10
284.15000000000003
20
-33.750000000000007
42
-0.41421356237309503
10
284.65000000000003
20
-34.250000000000014
10
284.65000000000003
20
-47.250000000000007
42
-0.41421356237309503
10
284.15000000000003
20
-47.75
10
271.15000000000003
20
-47.75
42
-0.41421356237309503
10
270.65000000000003
20
-47.25
10
270.65000000000003
20
-34.250000000000007
42
-0.41421356237309503
0
LWPOLYLINE
5
117
100
AcDbEntity
8
0
100
AcDbPolyline
90
8
70
1
43
0.0
10
290.20000000000005
20
-33.750000000000007
10
303.20000000000005
20
-33.750000000000007
42
-0.41421356237309503
10
303.70000000000005
20
-34.250000000000014
10
303.70000000000005
20
-47.250000000000007
42
-0.41421356237309503
10
303.20000000000005
20
-47.75
10
290.20000000000005
20
-47.75
42
-0.41421356237309503
10
289.70000000000005
20
-47.25
10
289.70000000000005
20
-34.250000000000007
42
-0.41421356237309503
0
LWPOLYLINE
5
118
100
AcDbEntity
8
0
100
AcDbPolyline
90
8
70
1
43
0.0
10
309.25
20
-33.750000000000007
10
322.25
20
-33.750000000000007
42
-0.41421356237309503
10
322.75
20
-34.249999999999979
10
322.75
20
-47.250000000000007
42
-0.41421356237309503
10
322.25
20
-47.75
10
309.25
20
-47.75
42
-0.41421356237309503
10
308.75
20
-47.250000000000028
10
308.74999999999994
20
-34.250000000000007
42
-0.41421356237309503
0
LWPOLYLINE
5
119
100
AcDbEntity
8
0
100
AcDbPolyline
90
8
70
1
43
0.0
10
328.29999999999995
20
-33.750000000000007
10
341.30000000000001
20
-33.750000000000007
42
-0.41421356237309503
10
341.80000000000001
20
-34.249999999999979
10
341.80000000000001
20
-47.250000000000007
42
-0.41421356237309503
10
341.30000000000001
20
-47.75
10
328.29999999999995
20
-47.75
42
-0.41421356237309503
10
327.80000000000001
20
-47.250000000000028
10
327.80000000000001
20
-34.250000000000007
42
-0.41421356237309503
0
LWPOLYLINE
5
120
100
AcDbEntity
8
0
100
AcDbPolyline
90
8
70
1
43
0.0
10
347.35000000000002
20
-33.750000000000007
10
360.35000000000002
20
-33.750000000000007
42
-0.41421356237309503
10
360.85000000000002
20
-34.249999999999979
10
360.85000000000002
20
-47.250000000000007
42
-0.41421356237309503
10
360.35000000000002
20
-47.75
10
347.35000000000002
20
-47.75
42
-0.41421356237309503
10
346.85000000000002
20
-47.250000000000028
10
346.85000000000002
20
-34.250000000000007
42
-0.41421356237309503
0
LWPOLYLINE
5
121
100
AcDbEntity
8
0
100
AcDbPolyline
90
8
70
1
43
0.0
10
366.39999999999998
20
-33.750000000000007
10
379.40000000000003
20
-33.750000000000007
42
-0.41421356237309503
10
379.90000000000003
20
-34.249999999999979
10
379.90000000000003
20
-47.250000000000007
42
-0.41421356237309503
10
379.40000000000003
20
-47.75
10
366.39999999999998
20
-47.75
42
-0.41421356237309503
10
365.90000000000003
20
-47.250000000000028
10
365.90000000000003
20
-34.250000000000007
42
-0.41421356237309503
0
LWPOLYLINE
5
122
100
AcDbEntity
8
0
100
AcDbPolyline
90
8
70
1
43
0.0
10
23.500000000000007
20
-52.800000000000011
10
36.500000000000007
20
-52.800000000000011
42
-0.41421356237309503
10
37.000000000000007
20
-53.300000000000011
10
37.000000000000014
20
-66.300000000000011
42
-0.41421356237309503
10
36.500000000000007
20
-66.800000000000011
10
23.500000000000007
20
-66.800000000000011
42
-0.41421356237309503
10
23.000000000000007
20
-66.300000000000011
10
23.000000000000014
20
-53.299999999999997
42
-0.41421356237309503
0
LWPOLYLINE
5
123
100
AcDbEntity
8
0
100
AcDbPolyline
90
8
70
1
43
0.0
10
42.550000000000011
20
-52.800000000000011
10
55.550000000000011
20
-52.800000000000011
42
-0.41421356237309503
10
56.050000000000011
20
-53.300000000000011
10
56.050000000000026
20
-66.300000000000011
42
-0.41421356237309503
10
55.550000000000011
20
-66.800000000000011
10
42.550000000000011
20
-66.800000000000011
42
-0.41421356237309503
10
42.050000000000011
20
-66.300000000000011
10
42.050000000000018
20
-53.299999999999997
42
-0.41421356237309503
0
LWPOLYLINE
5
124
100
AcDbEntity
8
0
100
AcDbPolyline
90
8
70
1
43
0.0
10
61.600000000000001
20
-52.800000000000011
10
74.600000000000009
20
-52.800000000000011
42
-0.41421356237309503
10
75.100000000000023
20
-53.300000000000018
10
75.100000000000023
20
-66.300000000000011
42
-0.41421356237309503
10
74.600000000000009
20
-66.800000000000011
10
61.600000000000001
20
-66.800000000000011
42
-0.41421356237309503
10
61.100000000000009
20
-66.300000000000026
10
61.100000000000009
20
-53.299999999999997
42
-0.41421356237309503
0
LWPOLYLINE
5
125
100
AcDbEntity
8
0
100
AcDbPolyline
90
8
70
1
43
0.0
10
80.650000000000006
20
-52.800000000000011
10
93.650000000000006
20
-52.800000000000011
42
-0.41421356237309503
10
94.150000000000006
20
-53.300000000000018
10
94.150000000000006
20
-66.300000000000011
42
-0.41421356237309503
10
93.650000000000006
20
-66.800000000000011
10
80.650000000000006
20
-66.800000000000011
42
-0.41421356237309503
10
80.150000000000006
20
-66.300000000000011
10
80.15000000000002
20
-53.299999999999997
42
-0.41421356237309503
0
LWPOLYLINE
5
126
100
AcDbEntity
8
0
100
AcDbPolyline
90
8
70
1
43
0.0
10
99.700000000000003
20
-52.800000000000011
10
112.70000000000002
20
-52.800000000000011
42
-0.41421356237309503
10
113.2
20
-53.299999999999997
10
113.20000000000002
20
-66.300000000000011
42
-0.41421356237309503
10
112.70000000000002
20
-66.800000000000011
10
99.700000000000003
20
-66.800000000000011
42
-0.41421356237309503
10
99.200000000000003
20
-66.300000000000011
10
99.200000000000017
20
-53.299999999999997
42
-0.41421356237309503
0
LWPOLYLINE
5
127
100
AcDbEntity
8
0
100
AcDbPolyline
90
8
70
1
43
0.0
10
118.75000000000001
20
-52.800000000000011
10
131.75000000000003
20
-52.800000000000011
42
-0.41421356237309503
10
132.25000000000003
20
-53.300000000000018
10
132.25000000000003
20
-66.300000000000011
42
-0.41421356237309503
10
131.75000000000003
20
-66.800000000000011
10
118.75000000000001
20
-66.800000000000011
42
-0.41421356237309503
10
118.25000000000003
20
-66.300000000000026
10
118.25000000000003
20
-53.299999999999997
42
-0.41421356237309503
0
LWPOLYLINE
5
128
100
AcDbEntity
8
0
100
AcDbPolyline
90
8
70
1
43
0.0
10
137.80000000000004
20
-52.800000000000011
10
150.80000000000001
20
-52.800000000000011
42
-0.41421356237309503
10
151.30000000000001
20
-53.300000000000018
10
151.30000000000001
20
-66.300000000000011
42
-0.41421356237309503
10
150.80000000000001
20
-66.800000000000011
10
137.80000000000004
20
-66.800000000000011
42
-0.41421356237309503
10
137.30000000000001
20
-66.300000000000011
10
137.30000000000004
20
-53.299999999999997
42
-0.41421356237309503
0
LWPOLYLINE
5
129
100
AcDbEntity
8
0
100
AcDbPolyline
90
8
70
1
43
0.0
10
156.85000000000002
20
-52.800000000000011
10
169.84999999999999
20
-52.800000000000011
42
-0.41421356237309503
10
170.34999999999999
20
-53.300000000000018
10
170.34999999999999
20
-66.300000000000011
42
-0.41421356237309503
10
169.84999999999999
20
-66.800000000000011
10
156.85000000000002
20
-66.800000000000011
42
-0.41421356237309503
10
156.35000000000002
20
-66.300000000000011
10
156.35000000000002
20
-53.299999999999997
42
-0.41421356237309503
0
LWPOLYLINE
5
130
100
AcDbEntity
8
0
100
AcDbPolyline
90
8
70
1
43
0.0
10
175.90000000000003
20
-52.800000000000011
10
188.90000000000001
20
-52.800000000000011
42
-0.41421356237309503
10
189.40000000000001
20
-53.300000000000018
10
189.40000000000001
20
-66.300000000000011
42
-0.41421356237309503
10
188.90000000000001
20
-66.800000000000011
10
175.90000000000003
20
-66.800000000000011
42
-0.41421356237309503
10
175.40000000000003
20
-66.300000000000011
10
175.40000000000006
20
-53.299999999999997
42
-0.41421356237309503
0
LWPOLYLINE
5
131
100
AcDbEntity
8
0
100
AcDbPolyline
90
8
70
1
43
0.0
10
194.95000000000002
20
-52.800000000000011
10
207.94999999999999
20
-52.800000000000011
42
-0.41421356237309503
10
208.44999999999999
20
-53.300000000000018
10
208.44999999999999
20
-66.300000000000011
42
-0.41421356237309503
10
207.94999999999999
20
-66.800000000000011
10
194.95000000000002
20
-66.800000000000011
42
-0.41421356237309503
10
194.44999999999999
20
-66.300000000000011
10
194.44999999999999
20
-53.299999999999997
42
-0.41421356237309503
0
LWPOLYLINE
5
132
100
AcDbEntity
8
0
100
AcDbPolyline
90
8
70
1
43
0.0
10
214.00000000000003
20
-52.800000000000011
10
227.00000000000003
20
-52.800000000000011
42
-0.41421356237309503
10
227.5
20
-53.299999999999983
10
227.50000000000003
20
-66.300000000000011
42
-0.41421356237309503
10
227.00000000000003
20
-66.800000000000011
10
214.00000000000003
20
-66.800000000000011
42
-0.41421356237309503
10
213.5
20
-66.300000000000011
10
213.5
20
-53.299999999999997
42
-0.41421356237309503
0
LWPOLYLINE
5
133
100
AcDbEntity
8
0
100
AcDbPolyline
90
8
70
1
43
0.0
10
233.05000000000001
20
-52.800000000000011
10
246.05000000000001
20
-52.800000000000011
42
-0.41421356237309503
10
246.55000000000001
20
-53.300000000000018
10
246.55000000000001
20
-66.300000000000011
42
-0.41421356237309503
10
246.05000000000001
20
-66.800000000000011
10
233.05000000000001
20
-66.800000000000011
42
-0.41421356237309503
10
232.54999999999998
20
-66.300000000000011
10
232.55000000000001
20
-53.299999999999997
42
-0.41421356237309503
0
LWPOLYLINE
5
134
100
AcDbEntity
8
0
100
AcDbPolyline
90
8
70
1
43
0.0
10
252.10000000000002
20
-52.800000000000011
10
265.10000000000002
20
-52.800000000000011
42
-0.41421356237309503
10
265.60000000000002
20
-53.300000000000018
10
265.60000000000002
20
-66.300000000000011
42
-0.41421356237309503
10
265.10000000000002
20
-66.800000000000011
10
252.10000000000002
20
-66.800000000000011
42
-0.41421356237309503
10
251.59999999999999
20
-66.300000000000011
10
251.60000000000002
20
-53.299999999999997
42
-0.41421356237309503
0
LWPOLYLINE
5
135
100
AcDbEntity
8
0
100
AcDbPolyline
90
8
70
1
43
0.0
10
280.67500000000001
20
-52.800000000000011
10
293.67500000000001
20
-52.800000000000011
42
-0.41421356237309503
10
294.17500000000001
20
-53.300000000000018
10
294.17500000000001
20
-66.300000000000011
42
-0.41421356237309503
10
293.67500000000001
20
-66.800000000000011
10
280.67500000000001
20
-66.800000000000011
42
-0.41421356237309503
10
280.17499999999995
20
-66.300000000000011
10
280.17499999999995
20
-53.299999999999997
42
-0.41421356237309503
0
LWPOLYLINE
5
136
100
AcDbEntity
8
0
100
AcDbPolyline
90
8
70
1
43
0.0
10
272.23700000000002
20
-53.800000000000011
10
278.23700000000002
20
-53.800000000000011
42
-0.41421356237309503
10
278.73699999999997
20
-54.299999999999983
10
278.73700000000002
20
-68.300000000000011
42
-0.41421356237309503
10
278.23700000000002
20
-68.800000000000011
10
272.23700000000002
20
-68.800000000000011
42
-0.41421356237309503
10
271.73700000000002
20
-68.299999999999997
10
271.73700000000002
20
-54.300000000000004
42
-0.41421356237309503
0
LWPOLYLINE
5
137
100
AcDbEntity
8
0
100
AcDbPolyline
90
8
70
1
43
0.0
10
296.113
20
-53.800000000000011
10
302.113
20
-53.800000000000011
42
-0.41421356237309503
10
302.613
20
-54.300000000000011
10
302.613
20
-68.300000000000011
42
-0.41421356237309503
10
302.113
20
-68.800000000000011
10
296.113
20
-68.800000000000011
42
-0.41421356237309503
10
295.613
20
-68.299999999999997
10
295.613
20
-54.300000000000004
42
-0.41421356237309503
0
LWPOLYLINE
5
138
100
AcDbEntity
8
0
100
AcDbPolyline
90
8
70
1
43
0.0
10
309.25
20
-52.800000000000011
10
322.25
20
-52.800000000000011
42
-0.41421356237309503
10
322.75
20
-53.299999999999983
10
322.75000000000006
20
-66.300000000000011
42
-0.41421356237309503
10
322.25
20
-66.800000000000011
10
309.25
20
-66.800000000000011
42
-0.41421356237309503
10
308.75
20
-66.30000000000004
10
308.75
20
-53.299999999999997
42
-0.41421356237309503
0
LWPOLYLINE
5
139
100
AcDbEntity
8
0
100
AcDbPolyline
90
8
70
1
43
0.0
10
328.29999999999995
20
-52.800000000000011
10
341.30000000000001
20
-52.800000000000011
42
-0.41421356237309503
10
341.80000000000001
20
-53.299999999999983
10
341.80000000000007
20
-66.300000000000011
42
-0.41421356237309503
10
341.30000000000001
20
-66.800000000000011
10
328.29999999999995
20
-66.800000000000011
42
-0.41421356237309503
10
327.80000000000001
20
-66.30000000000004
10
327.80000000000001
20
-53.299999999999997
42
-0.41421356237309503
0
LWPOLYLINE
5
140
100
AcDbEntity
8
0
100
AcDbPolyline
90
8
70
1
43
0.0
10
347.35000000000002
20
-52.800000000000011
10
360.35000000000002
20
-52.800000000000011
42
-0.41421356237309503
10
360.85000000000002
20
-53.299999999999983
10
360.85000000000008
20
-66.300000000000011
42
-0.41421356237309503
10
360.35000000000002
20
-66.800000000000011
10
347.35000000000002
20
-66.800000000000011
42
-0.41421356237309503
10
346.85000000000002
20
-66.30000000000004
10
346.85000000000002
20
-53.299999999999997
42
-0.41421356237309503
0
LWPOLYLINE
5
141
100
AcDbEntity
8
0
100
AcDbPolyline
90
8
70
1
43
0.0
10
366.39999999999998
20
-52.800000000000011
10
379.40000000000003
20
-52.800000000000011
42
-0.41421356237309503
10
379.90000000000003
20
-53.299999999999983
10
379.90000000000009
20
-66.300000000000011
42
-0.41421356237309503
10
379.40000000000003
20
-66.800000000000011
10
366.39999999999998
20
-66.800000000000011
42
-0.41421356237309503
10
365.90000000000003
20
-66.30000000000004
10
365.90000000000003
20
-53.299999999999997
42
-0.41421356237309503
0
LWPOLYLINE
5
142
100
AcDbEntity
8
0
100
AcDbPolyline
90
8
70
1
43
0.0
10
28.26250000000001
20
-71.850000000000009
10
41.262500000000003
20
-71.850000000000009
42
-0.41421356237309503
10
41.762500000000017
20
-72.350000000000009
10
41.762500000000017
20
-85.349999999999994
42
-0.41421356237309503
10
41.262500000000003
20
-85.850000000000009
10
28.26250000000001
20
-85.850000000000009
42
-0.41421356237309503
10
27.76250000000001
20
-85.349999999999994
10
27.76250000000001
20
-72.350000000000009
42
-0.41421356237309503
0
LWPOLYLINE
5
143
100
AcDbEntity
8
0
100
AcDbPolyline
90
8
70
1
43
0.0
10
52.075000000000017
20
-71.850000000000009
10
65.075000000000003
20
-71.850000000000009
42
-0.41421356237309503
10
65.575000000000017
20
-72.350000000000009
10
65.575000000000017
20
-85.349999999999994
42
-0.41421356237309503
10
65.075000000000003
20
-85.850000000000009
10
52.075000000000017
20
-85.850000000000009
42
-0.41421356237309503
10
51.575000000000003
20
-85.349999999999994
10
51.575000000000017
20
-72.350000000000009
42
-0.41421356237309503
0
LWPOLYLINE
5
144
100
AcDbEntity
8
0
100
AcDbPolyline
90
8
70
1
43
0.0
10
71.125
20
-71.850000000000009
10
84.125000000000014
20
-71.850000000000009
42
-0.41421356237309503
10
84.625000000000028
20
-72.350000000000009
10
84.625000000000028
20
-85.349999999999994
42
-0.41421356237309503
10
84.125000000000014
20
-85.850000000000009
10
71.125
20
-85.850000000000009
42
-0.41421356237309503
10
70.625000000000014
20
-85.350000000000023
10
70.625000000000014
20
-72.350000000000009
42
-0.41421356237309503
0
LWPOLYLINE
5
145
100
AcDbEntity
8
0
100
AcDbPolyline
90
8
70
1
43
0.0
10
90.175000000000011
20
-71.850000000000009
10
103.17500000000003
20
-71.850000000000009
42
-0.41421356237309503
10
103.67500000000001
20
-72.349999999999994
10
103.67500000000004
20
-85.349999999999994
42
-0.41421356237309503
10
103.17500000000003
20
-85.850000000000009
10
90.175000000000011
20
-85.850000000000009
42
-0.41421356237309503
10
89.675000000000011
20
-85.349999999999994
10
89.675000000000011
20
-72.350000000000009
42
-0.41421356237309503
0
LWPOLYLINE
5
146
100
AcDbEntity
8
0
100
AcDbPolyline
90
8
70
1
43
0.0
10
109.22500000000001
20
-71.850000000000009
10
122.22500000000002
20
-71.850000000000009
42
-0.41421356237309503
10
122.72500000000002
20
-72.350000000000009
10
122.72500000000002
20
-85.349999999999994
42
-0.41421356237309503
10
122.22500000000002
20
-85.850000000000009
10
109.22500000000001
20
-85.850000000000009
42
-0.41421356237309503
10
108.72500000000002
20
-85.350000000000023
10
108.72500000000002
20
-72.350000000000009
42
-0.41421356237309503
0
LWPOLYLINE
5
147
100
AcDbEntity
8
0
100
AcDbPolyline
90
8
70
1
43
0.0
10
128.27500000000003
20
-71.850000000000009
10
141.27500000000001
20
-71.850000000000009
42
-0.41421356237309503
10
141.77500000000003
20
-72.350000000000009
10
141.77500000000003
20
-85.349999999999994
42
-0.41421356237309503
10
141.27500000000001
20
-85.850000000000009
10
128.27500000000003
20
-85.850000000000009
42
-0.41421356237309503
10
127.77500000000002
20
-85.349999999999994
10
127.77500000000003
20
-72.350000000000009
42
-0.41421356237309503
0
LWPOLYLINE
5
148
100
AcDbEntity
8
0
100
AcDbPolyline
90
8
70
1
43
0.0
10
147.32500000000002
20
-71.850000000000009
10
160.32499999999999
20
-71.850000000000009
42
-0.41421356237309503
10
160.82499999999999
20
-72.350000000000009
10
160.82499999999999
20
-85.349999999999994
42
-0.41421356237309503
10
160.32499999999999
20
-85.850000000000009
10
147.32500000000002
20
-85.850000000000009
42
-0.41421356237309503
10
146.82500000000002
20
-85.349999999999994
10
146.82500000000002
20
-72.350000000000009
42
-0.41421356237309503
0
LWPOLYLINE
5
149
100
AcDbEntity
8
0
100
AcDbPolyline
90
8
70
1
43
0.0
10
166.37500000000003
20
-71.850000000000009
10
179.375
20
-71.850000000000009
42
-0.41421356237309503
10
179.875
20
-72.350000000000009
10
179.875
20
-85.349999999999994
42
-0.41421356237309503
10
179.375
20
-85.850000000000009
10
166.37500000000003
20
-85.850000000000009
42
-0.41421356237309503
10
165.87500000000003
20
-85.349999999999994
10
165.87500000000003
20
-72.350000000000009
42
-0.41421356237309503
0
LWPOLYLINE
5
150
100
AcDbEntity
8
0
100
AcDbPolyline
90
8
70
1
43
0.0
10
185.42500000000001
20
-71.850000000000009
10
198.42499999999998
20
-71.850000000000009
42
-0.41421356237309503
10
198.92499999999998
20
-72.350000000000009
10
198.92499999999998
20
-85.349999999999994
42
-0.41421356237309503
10
198.42499999999998
20
-85.850000000000009
10
185.42500000000001
20
-85.850000000000009
42
-0.41421356237309503
10
184.92500000000001
20
-85.349999999999994
10
184.92500000000001
20
-72.350000000000009
42
-0.41421356237309503
0
LWPOLYLINE
5
151
100
AcDbEntity
8
0
100
AcDbPolyline
90
8
70
1
43
0.0
10
204.47500000000002
20
-71.850000000000009
10
217.47500000000002
20
-71.850000000000009
42
-0.41421356237309503
10
217.97499999999999
20
-72.34999999999998
10
217.97500000000002
20
-85.349999999999994
42
-0.41421356237309503
10
217.47500000000002
20
-85.850000000000009
10
204.47500000000002
20
-85.850000000000009
42
-0.41421356237309503
10
203.97500000000002
20
-85.349999999999994
10
203.97500000000002
20
-72.350000000000009
42
-0.41421356237309503
0
LWPOLYLINE
5
152
100
AcDbEntity
8
0
100
AcDbPolyline
90
8
70
1
43
0.0
10
223.52500000000003
20
-71.850000000000009
10
236.52500000000003
20
-71.850000000000009
42
-0.41421356237309503
10
237.02500000000001
20
-72.34999999999998
10
237.02500000000003
20
-85.349999999999994
42
-0.41421356237309503
10
236.52500000000003
20
-85.850000000000009
10
223.52500000000003
20
-85.850000000000009
42
-0.41421356237309503
10
223.02500000000003
20
-85.349999999999994
10
223.02500000000003
20
-72.350000000000009
42
-0.41421356237309503
0
LWPOLYLINE
5
153
100
AcDbEntity
8
0
100
AcDbPolyline
90
8
70
1
43
0.0
10
242.57499999999999
20
-71.850000000000009
10
255.57500000000002
20
-71.850000000000009
42
-0.41421356237309503
10
256.07500000000005
20
-72.350000000000009
10
256.07500000000005
20
-85.349999999999994
42
-0.41421356237309503
10
255.57500000000002
20
-85.850000000000009
10
242.57499999999999
20
-85.850000000000009
42
-0.41421356237309503
10
242.07499999999999
20
-85.349999999999994
10
242.07499999999999
20
-72.350000000000009
42
-0.41421356237309503
0
LWPOLYLINE
5
154
100
AcDbEntity
8
0
100
AcDbPolyline
90
8
70
1
43
0.0
10
261.625
20
-71.850000000000009
10
274.625
20
-71.850000000000009
42
-0.41421356237309503
10
275.125
20
-72.350000000000009
10
275.125
20
-85.349999999999994
42
-0.41421356237309503
10
274.625
20
-85.850000000000009
10
261.625
20
-85.850000000000009
42
-0.41421356237309503
10
261.125
20
-85.349999999999994
10
261.125
20
-72.350000000000009
42
-0.41421356237309503
0
LWPOLYLINE
5
155
100
AcDbEntity
8
0
100
AcDbPolyline
90
8
70
1
43
0.0
10
285.4375
20
-71.850000000000009
10
298.4375
20
-71.850000000000037
42
-0.41421356237309503
10
298.9375
20
-72.350000000000009
10
298.9375
20
-85.349999999999994
42
-0.41421356237309503
10
298.4375
20
-85.850000000000009
10
285.4375
20
-85.850000000000009
42
-0.41421356237309503
10
284.9375
20
-85.349999999999994
10
284.9375
20
-72.350000000000009
42
-0.41421356237309503
0
LWPOLYLINE
5
156
100
AcDbEntity
8
0
100
AcDbPolyline
90
8
70
1
43
0.0
10
309.25
20
-71.850000000000009
10
322.25
20
-71.850000000000037
42
-0.41421356237309503
10
322.75
20
-72.350000000000009
10
322.75000000000006
20
-85.349999999999994
42
-0.41421356237309503
10
322.25
20
-85.850000000000009
10
309.25
20
-85.849999999999966
42
-0.41421356237309503
10
308.75
20
-85.349999999999994
10
308.74999999999994
20
-72.350000000000009
42
-0.41421356237309503
0
LWPOLYLINE
5
157
100
AcDbEntity
8
0
100
AcDbPolyline
90
8
70
1
43
0.0
10
328.29999999999995
20
-71.850000000000009
10
341.30000000000001
20
-71.850000000000037
42
-0.41421356237309503
10
341.80000000000001
20
-72.350000000000009
10
341.80000000000007
20
-85.349999999999994
42
-0.41421356237309503
10
341.30000000000001
20
-85.850000000000009
10
328.29999999999995
20
-85.849999999999966
42
-0.41421356237309503
10
327.80000000000001
20
-85.349999999999994
10
327.80000000000001
20
-72.350000000000009
42
-0.41421356237309503
0
LWPOLYLINE
5
158
100
AcDbEntity
8
0
100
AcDbPolyline
90
8
70
1
43
0.0
10
347.35000000000002
20
-71.850000000000009
10
360.35000000000002
20
-71.850000000000037
42
-0.41421356237309503
10
360.85000000000002
20
-72.350000000000009
10
360.85000000000008
20
-85.349999999999994
42
-0.41421356237309503
10
360.35000000000002
20
-85.850000000000009
10
347.35000000000002
20
-85.849999999999966
42
-0.41421356237309503
10
346.85000000000002
20
-85.349999999999994
10
346.85000000000002
20
-72.350000000000009
42
-0.41421356237309503
0
LWPOLYLINE
5
159
100
AcDbEntity
8
0
100
AcDbPolyline
90
8
70
1
43
0.0
10
379.90000000000003
20
-81.875
10
379.90000000000009
20
-94.875
42
-0.41421356237309503
10
379.40000000000003
20
-95.375000000000014
10
366.39999999999998
20
-95.374999999999972
42
-0.41421356237309503
10
365.90000000000003
20
-94.875
10
365.90000000000003
20
-81.875
42
-0.41421356237309503
10
366.39999999999998
20
-81.375000000000014
10
379.40000000000003
20
-81.375000000000028
42
-0.41421356237309503
0
LWPOLYLINE
5
160
100
AcDbEntity
8
0
100
AcDbPolyline
90
8
70
1
43
0.0
10
378.89999999999998
20
-73.436999999999998
10
378.89999999999998
20
-79.437000000000012
42
-0.41421356237309503
10
378.40000000000003
20
-79.937000000000012
10
364.40000000000003
20
-79.937000000000054
42
-0.41421356237309503
10
363.89999999999998
20
-79.437000000000012
10
363.90000000000009
20
-73.436999999999998
42
-0.41421356237309503
10
364.40000000000003
20
-72.936999999999998
10
378.40000000000003
20
-72.937000000000026
42
-0.41421356237309503
0
LWPOLYLINE
5
161
100
AcDbEntity
8
0
100
AcDbPolyline
90
8
70
1
43
0.0
10
378.89999999999998
20
-97.313000000000017
10
378.89999999999998
20
-103.31300000000002
42
-0.41421356237309503
10
378.40000000000003
20
-103.81300000000002
10
364.40000000000003
20
-103.81300000000007
42
-0.41421356237309503
10
363.89999999999998
20
-103.31300000000002
10
363.90000000000009
20
-97.313000000000017
42
-0.41421356237309503
10
364.40000000000003
20
-96.813000000000017
10
378.40000000000003
20
-96.813000000000045
42
-0.41421356237309503
0
LWPOLYLINE
5
162
100
AcDbEntity
8
0
100
AcDbPolyline
90
8
70
1
43
0.0
10
30.643750000000011
20
-90.900000000000006
10
43.643750000000011
20
-90.900000000000006
42
-0.41421356237309503
10
44.143750000000004
20
-91.400000000000006
10
44.143749999999997
20
-104.40000000000001
42
-0.41421356237309503
10
43.643750000000011
20
-104.90000000000001
10
30.643750000000011
20
-104.90000000000002
42
-0.41421356237309503
10
30.143750000000008
20
-104.40000000000001
10
30.143750000000004
20
-91.400000000000006
42
-0.41421356237309503
0
LWPOLYLINE
5
163
100
AcDbEntity
8
0
100
AcDbPolyline
90
8
70
1
43
0.0
10
56.837500000000006
20
-90.900000000000006
10
69.837500000000006
20
-90.900000000000006
42
-0.41421356237309503
10
70.337500000000006
20
-91.400000000000006
10
70.337499999999991
20
-104.40000000000001
42
-0.41421356237309503
10
69.837500000000006
20
-104.90000000000001
10
56.837500000000006
20
-104.90000000000002
42
-0.41421356237309503
10
56.337500000000006
20
-104.40000000000001
10
56.337499999999999
20
-91.400000000000006
42
-0.41421356237309503
0
LWPOLYLINE
5
164
100
AcDbEntity
8
0
100
AcDbPolyline
90
8
70
1
43
0.0
10
75.887500000000017
20
-90.900000000000006
10
88.887500000000003
20
-90.900000000000006
42
-0.41421356237309503
10
89.387500000000003
20
-91.400000000000006
10
89.387499999999989
20
-104.40000000000001
42
-0.41421356237309503
10
88.887500000000003
20
-104.90000000000001
10
75.887500000000017
20
-104.90000000000001
42
-0.41421356237309503
10
75.387500000000017
20
-104.40000000000001
10
75.387500000000003
20
-91.400000000000006
42
-0.41421356237309503
0
LWPOLYLINE
5
165
100
AcDbEntity
8
0
100
AcDbPolyline
90
8
70
1
43
0.0
10
94.937500000000028
20
-90.900000000000006
10
107.93750000000003
20
-90.90000000000002
42
-0.41421356237309503
10
108.43750000000001
20
-91.400000000000006
10
108.43750000000001
20
-104.40000000000001
42
-0.41421356237309503
10
107.93750000000003
20
-104.90000000000001
10
94.937500000000028
20
-104.90000000000002
42
-0.41421356237309503
10
94.437500000000014
20
-104.40000000000001
10
94.437500000000014
20
-91.400000000000006
42
-0.41421356237309503
0
LWPOLYLINE
5
166
100
AcDbEntity
8
0
100
AcDbPolyline
90
8
70
1
43
0.0
10
113.98750000000001
20
-90.900000000000006
10
126.98750000000003
20
-90.900000000000006
42
-0.41421356237309503
10
127.48750000000003
20
-91.400000000000006
10
127.48750000000001
20
-104.40000000000001
42
-0.41421356237309503
10
126.98750000000003
20
-104.90000000000001
10
113.98750000000001
20
-104.90000000000001
42
-0.41421356237309503
10
113.48750000000003
20
-104.40000000000001
10
113.48750000000001
20
-91.400000000000006
42
-0.41421356237309503
0
LWPOLYLINE
5
167
100
AcDbEntity
8
0
100
AcDbPolyline
90
8
70
1
43
0.0
10
133.03750000000002
20
-90.900000000000006
10
146.03750000000002
20
-90.900000000000006
42
-0.41421356237309503
10
146.53750000000002
20
-91.400000000000006
10
146.53749999999999
20
-104.40000000000001
42
-0.41421356237309503
10
146.03750000000002
20
-104.90000000000001
10
133.03750000000002
20
-104.90000000000002
42
-0.41421356237309503
10
132.53750000000002
20
-104.40000000000001
10
132.53750000000002
20
-91.400000000000006
42
-0.41421356237309503
0
LWPOLYLINE
5
168
100
AcDbEntity
8
0
100
AcDbPolyline
90
8
70
1
43
0.0
10
152.08750000000003
20
-90.900000000000006
10
165.08750000000003
20
-90.900000000000006
42
-0.41421356237309503
10
165.58750000000003
20
-91.400000000000006
10
165.58750000000003
20
-104.40000000000001
42
-0.41421356237309503
10
165.08750000000003
20
-104.90000000000001
10
152.08750000000003
20
-104.90000000000002
42
-0.41421356237309503
10
151.58750000000003
20
-104.40000000000001
10
151.58750000000003
20
-91.400000000000006
42
-0.41421356237309503
0
LWPOLYLINE
5
169
100
AcDbEntity
8
0
100
AcDbPolyline
90
8
70
1
43
0.0
10
171.13749999999999
20
-90.900000000000006
10
184.13749999999999
20
-90.900000000000006
42
-0.41421356237309503
10
184.63750000000002
20
-91.400000000000006
10
184.63749999999999
20
-104.40000000000001
42
-0.41421356237309503
10
184.13749999999999
20
-104.90000000000001
10
171.13749999999999
20
-104.90000000000002
42
-0.41421356237309503
10
170.63749999999999
20
-104.40000000000001
10
170.63749999999999
20
-91.400000000000006
42
-0.41421356237309503
0
LWPOLYLINE
5
170
100
AcDbEntity
8
0
100
AcDbPolyline
90
8
70
1
43
0.0
10
190.1875
20
-90.900000000000006
10
203.1875
20
-90.900000000000006
42
-0.41421356237309503
10
203.68750000000003
20
-91.400000000000006
10
203.6875
20
-104.40000000000001
42
-0.41421356237309503
10
203.1875
20
-104.90000000000001
10
190.1875
20
-104.90000000000002
42
-0.41421356237309503
10
189.6875
20
-104.40000000000001
10
189.6875
20
-91.400000000000006
42
-0.41421356237309503
0
LWPOLYLINE
5
171
100
AcDbEntity
8
0
100
AcDbPolyline
90
8
70
1
43
0.0
10
209.23749999999998
20
-90.900000000000006
10
222.23749999999998
20
-90.900000000000006
42
-0.41421356237309503
10
222.73750000000001
20
-91.400000000000006
10
222.73750000000001
20
-104.40000000000001
42
-0.41421356237309503
10
222.23749999999998
20
-104.90000000000001
10
209.23749999999998
20
-104.90000000000002
42
-0.41421356237309503
10
208.73749999999998
20
-104.40000000000001
10
208.73749999999998
20
-91.400000000000006
42
-0.41421356237309503
0
LWPOLYLINE
5
172
100
AcDbEntity
8
0
100
AcDbPolyline
90
8
70
1
43
0.0
10
228.28749999999999
20
-90.900000000000006
10
241.28749999999999
20
-90.900000000000006
42
-0.41421356237309503
10
241.78750000000002
20
-91.400000000000006
10
241.78750000000002
20
-104.40000000000001
42
-0.41421356237309503
10
241.28749999999999
20
-104.90000000000001
10
228.28749999999999
20
-104.89999999999998
42
-0.41421356237309503
10
227.78750000000002
20
-104.40000000000001
10
227.78749999999999
20
-91.400000000000006
42
-0.41421356237309503
0
LWPOLYLINE
5
173
100
AcDbEntity
8
0
100
AcDbPolyline
90
8
70
1
43
0.0
10
247.33750000000001
20
-90.900000000000006
10
260.33750000000003
20
-90.900000000000006
42
-0.41421356237309503
10
260.83750000000003
20
-91.400000000000006
10
260.83750000000003
20
-104.40000000000001
42
-0.41421356237309503
10
260.33750000000003
20
-104.90000000000001
10
247.33750000000001
20
-104.89999999999998
42
-0.41421356237309503
10
246.83750000000003
20
-104.40000000000001
10
246.83750000000001
20
-91.400000000000006
42
-0.41421356237309503
0
LWPOLYLINE
5
174
100
AcDbEntity
8
0
100
AcDbPolyline
90
8
70
1
43
0.0
10
278.29375000000005
20
-90.900000000000006
10
291.29375000000005
20
-90.900000000000006
42
-0.41421356237309503
10
291.79375000000005
20
-91.400000000000006
10
291.79374999999999
20
-104.40000000000001
42
-0.41421356237309503
10
291.29375000000005
20
-104.90000000000001
10
278.29375000000005
20
-104.90000000000002
42
-0.41421356237309503
10
277.79375000000005
20
-104.40000000000001
10
277.79375000000005
20
-91.400000000000006
42
-0.41421356237309503
0
LWPOLYLINE
5
175
100
AcDbEntity
8
0
100
AcDbPolyline
90
8
70
1
43
0.0
10
269.85575
20
-91.900000000000006
10
275.85575
20
-91.899999999999991
42
-0.41421356237309503
10
276.35575000000006
20
-92.400000000000006
10
276.35575000000006
20
-106.40000000000001
42
-0.41421356237309503
10
275.85575
20
-106.90000000000001
10
269.85575
20
-106.90000000000001
42
-0.41421356237309503
10
269.35575
20
-106.40000000000001
10
269.35575
20
-92.400000000000006
42
-0.41421356237309503
0
LWPOLYLINE
5
176
100
AcDbEntity
8
0
100
AcDbPolyline
90
8
70
1
43
0.0
10
293.73175000000003
20
-91.900000000000006
10
299.73175000000003
20
-91.899999999999991
42
-0.41421356237309503
10
300.23175000000003
20
-92.400000000000006
10
300.23175000000003
20
-106.40000000000001
42
-0.41421356237309503
10
299.73175000000003
20
-106.90000000000001
10
293.73175000000003
20
-106.90000000000001
42
-0.41421356237309503
10
293.23175000000003
20
-106.40000000000001
10
293.23175000000003
20
-92.400000000000006
42
-0.41421356237309503
0
LWPOLYLINE
5
177
100
AcDbEntity
8
0
100
AcDbPolyline
90
8
70
1
43
0.0
10
309.25
20
-90.900000000000006
10
322.25
20
-90.900000000000034
42
-0.41421356237309503
10
322.75
20
-91.400000000000006
10
322.75
20
-104.40000000000001
42
-0.41421356237309503
10
322.25
20
-104.90000000000001
10
309.25
20
-104.89999999999998
42
-0.41421356237309503
10
308.75
20
-104.40000000000001
10
308.74999999999994
20
-91.400000000000006
42
-0.41421356237309503
0
LWPOLYLINE
5
178
100
AcDbEntity
8
0
100
AcDbPolyline
90
8
70
1
43
0.0
10
328.29999999999995
20
-90.900000000000006
10
341.30000000000001
20
-90.900000000000034
42
-0.41421356237309503
10
341.80000000000001
20
-91.400000000000006
10
341.80000000000001
20
-104.40000000000001
42
-0.41421356237309503
10
341.30000000000001
20
-104.90000000000001
10
328.29999999999995
20
-104.89999999999998
42
-0.41421356237309503
10
327.80000000000001
20
-104.40000000000001
10
327.80000000000001
20
-91.400000000000006
42
-0.41421356237309503
0
LWPOLYLINE
5
179
100
AcDbEntity
8
0
100
AcDbPolyline
90
8
70
1
43
0.0
10
347.35000000000002
20
-90.900000000000006
10
360.35000000000002
20
-90.900000000000034
42
-0.41421356237309503
10
360.85000000000002
20
-91.400000000000006
10
360.85000000000002
20
-104.40000000000001
42
-0.41421356237309503
10
360.35000000000002
20
-104.90000000000001
10
347.35000000000002
20
-104.89999999999998
42
-0.41421356237309503
10
346.85000000000002
20
-104.40000000000001
10
346.85000000000002
20
-91.400000000000006
42
-0.41421356237309503
0
LWPOLYLINE
5
180
100
AcDbEntity
8
0
100
AcDbPolyline
90
8
70
1
43
0.0
10
35.406250000000007
20
-109.95000000000002
10
48.406250000000014
20
-109.95000000000002
42
-0.41421356237309503
10
48.906250000000007
20
-110.45
10
48.90625
20
-123.45
42
-0.41421356237309503
10
48.406250000000014
20
-123.94999999999999
10
35.406250000000007
20
-123.94999999999999
42
-0.41421356237309503
10
34.906250000000007
20
-123.45
10
34.906250000000021
20
-110.45
42
-0.41421356237309503
0
LWPOLYLINE
5
181
100
AcDbEntity
8
0
100
AcDbPolyline
90
8
70
1
43
0.0
10
26.968250000000008
20
-110.95
10
32.968250000000012
20
-110.94999999999999
42
-0.41421356237309503
10
33.468250000000012
20
-111.44999999999999
10
33.468250000000019
20
-125.45
42
-0.41421356237309503
10
32.968250000000012
20
-125.95
10
26.968250000000008
20
-125.95
42
-0.41421356237309503
10
26.468250000000005
20
-125.45
10
26.468250000000019
20
-111.44999999999999
42
-0.41421356237309503
0
LWPOLYLINE
5
182
100
AcDbEntity
8
0
100
AcDbPolyline
90
8
70
1
43
0.0
10
50.844250000000017
20
-110.95
10
56.844250000000009
20
-110.94999999999999
42
-0.41421356237309503
10
57.344250000000017
20
-111.44999999999999
10
57.344250000000017
20
-125.45
42
-0.41421356237309503
10
56.844250000000009
20
-125.95
10
50.844250000000017
20
-125.95
42
-0.41421356237309503
10
50.344250000000002
20
-125.45
10
50.344250000000024
20
-111.44999999999999
42
-0.41421356237309503
0
LWPOLYLINE
5
183
100
AcDbEntity
8
0
100
AcDbPolyline
90
8
70
1
43
0.0
10
66.362500000000011
20
-109.95000000000002
10
79.362500000000011
20
-109.94999999999999
42
-0.41421356237309503
10
79.862500000000011
20
-110.45
10
79.862499999999997
20
-123.45
42
-0.41421356237309503
10
79.362500000000011
20
-123.94999999999999
10
66.362500000000011
20
-123.94999999999999
42
-0.41421356237309503
10
65.862500000000011
20
-123.45
10
65.862500000000011
20
-110.45
42
-0.41421356237309503
0
LWPOLYLINE
5
184
100
AcDbEntity
8
0
100
AcDbPolyline
90
8
70
1
43
0.0
10
85.412500000000023
20
-109.95000000000002
10
98.412500000000009
20
-109.94999999999999
42
-0.41421356237309503
10
98.912500000000009
20
-110.45
10
98.912499999999994
20
-123.45
42
-0.41421356237309503
10
98.412500000000009
20
-123.94999999999999
10
85.412500000000023
20
-123.95000000000002
42
-0.41421356237309503
10
84.912500000000009
20
-123.45
10
84.912500000000023
20
-110.45
42
-0.41421356237309503
0
LWPOLYLINE
5
185
100
AcDbEntity
8
0
100
AcDbPolyline
90
8
70
1
43
0.0
10
104.46250000000001
20
-109.95000000000002
10
117.46250000000002
20
-109.94999999999999
42
-0.41421356237309503
10
117.96250000000002
20
-110.45
10
117.96250000000001
20
-123.45
42
-0.41421356237309503
10
117.46250000000002
20
-123.94999999999999
10
104.46250000000001
20
-123.94999999999999
42
-0.41421356237309503
10
103.96250000000002
20
-123.45
10
103.96250000000002
20
-110.45
42
-0.41421356237309503
0
LWPOLYLINE
5
186
100
AcDbEntity
8
0
100
AcDbPolyline
90
8
70
1
43
0.0
10
123.51250000000002
20
-109.95000000000002
10
136.51250000000002
20
-109.94999999999999
42
-0.41421356237309503
10
137.01250000000002
20
-110.45
10
137.01249999999999
20
-123.45
42
-0.41421356237309503
10
136.51250000000002
20
-123.94999999999999
10
123.51250000000002
20
-123.95000000000002
42
-0.41421356237309503
10
123.01250000000002
20
-123.45
10
123.01250000000003
20
-110.45
42
-0.41421356237309503
0
LWPOLYLINE
5
187
100
AcDbEntity
8
0
100
AcDbPolyline
90
8
70
1
43
0.0
10
142.56250000000003
20
-109.95000000000002
10
155.56250000000003
20
-109.94999999999999
42
-0.41421356237309503
10
156.06250000000003
20
-110.45
10
156.0625
20
-123.45
42
-0.41421356237309503
10
155.56250000000003
20
-123.94999999999999
10
142.56250000000003
20
-123.95000000000002
42
-0.41421356237309503
10
142.06250000000003
20
-123.45
10
142.06250000000006
20
-110.45
42
-0.41421356237309503
0
LWPOLYLINE
5
188
100
AcDbEntity
8
0
100
AcDbPolyline
90
8
70
1
43
0.0
10
161.61249999999998
20
-109.95000000000002
10
174.61250000000001
20
-109.94999999999999
42
-0.41421356237309503
10
175.11250000000001
20
-110.45
10
175.11249999999995
20
-123.45
42
-0.41421356237309503
10
174.61250000000001
20
-123.94999999999999
10
161.61249999999998
20
-123.95000000000002
42
-0.41421356237309503
10
161.11249999999998
20
-123.45
10
161.11249999999998
20
-110.45
42
-0.41421356237309503
0
LWPOLYLINE
5
189
100
AcDbEntity
8
0
100
AcDbPolyline
90
8
70
1
43
0.0
10
180.66249999999999
20
-109.95000000000002
10
193.66250000000002
20
-109.94999999999999
42
-0.41421356237309503
10
194.16250000000002
20
-110.45
10
194.16249999999997
20
-123.45
42
-0.41421356237309503
10
193.66250000000002
20
-123.94999999999999
10
180.66249999999999
20
-123.95000000000002
42
-0.41421356237309503
10
180.16249999999999
20
-123.45
10
180.16249999999999
20
-110.45
42
-0.41421356237309503
0
LWPOLYLINE
5
190
100
AcDbEntity
8
0
100
AcDbPolyline
90
8
70
1
43
0.0
10
199.71250000000001
20
-109.95000000000002
10
212.71250000000003
20
-109.94999999999999
42
-0.41421356237309503
10
213.21250000000003
20
-110.45
10
213.21249999999998
20
-123.45
42
-0.41421356237309503
10
212.71250000000003
20
-123.94999999999999
10
199.71250000000001
20
-123.95000000000002
42
-0.41421356237309503
10
199.21250000000001
20
-123.45
10
199.21250000000001
20
-110.45
42
-0.41421356237309503
0
LWPOLYLINE
5
191
100
AcDbEntity
8
0
100
AcDbPolyline
90
8
70
1
43
0.0
10
218.76249999999999
20
-109.95000000000002
10
231.76249999999999
20
-109.94999999999999
42
-0.41421356237309503
10
232.26249999999999
20
-110.45
10
232.26249999999999
20
-123.45
42
-0.41421356237309503
10
231.76249999999999
20
-123.94999999999999
10
218.76249999999999
20
-123.94999999999997
42
-0.41421356237309503
10
218.26250000000002
20
-123.45
10
218.26250000000002
20
-110.45
42
-0.41421356237309503
0
LWPOLYLINE
5
192
100
AcDbEntity
8
0
100
AcDbPolyline
90
8
70
1
43
0.0
10
237.8125
20
-109.95000000000002
10
250.8125
20
-109.94999999999999
42
-0.41421356237309503
10
251.3125
20
-110.45
10
251.3125
20
-123.45
42
-0.41421356237309503
10
250.8125
20
-123.94999999999999
10
237.8125
20
-123.94999999999997
42
-0.41421356237309503
10
237.31250000000003
20
-123.45
10
237.31250000000003
20
-110.45
42
-0.41421356237309503
0
LWPOLYLINE
5
193
100
AcDbEntity
8
0
100
AcDbPolyline
90
8
70
1
43
0.0
10
264.00625000000002
20
-109.95000000000002
10
277.00625000000002
20
-109.95000000000003
42
-0.41421356237309503
10
277.50625000000002
20
-110.45
10
277.50625000000002
20
-123.45
42
-0.41421356237309503
10
277.00625000000002
20
-123.94999999999999
10
264.00625000000002
20
-123.95000000000002
42
-0.41421356237309503
10
263.50625000000002
20
-123.45
10
263.50625000000002
20
-110.45
42
-0.41421356237309503
0
LWPOLYLINE
5
194
100
AcDbEntity
8
0
100
AcDbPolyline
90
8
70
1
43
0.0
10
290.20000000000005
20
-109.95000000000002
10
303.20000000000005
20
-109.94999999999999
42
-0.41421356237309503
10
303.70000000000005
20
-110.45
10
303.70000000000005
20
-123.45
42
-0.41421356237309503
10
303.20000000000005
20
-123.94999999999999
10
290.20000000000005
20
-123.95000000000002
42
-0.41421356237309503
10
289.70000000000005
20
-123.45
10
289.70000000000005
20
-110.45
42
-0.41421356237309503
0
LWPOLYLINE
5
195
100
AcDbEntity
8
0
100
AcDbPolyline
90
8
70
1
43
0.0
10
309.25
20
-109.95000000000002
10
322.25
20
-109.95000000000003
42
-0.41421356237309503
10
322.75
20
-110.45
10
322.75
20
-123.45
42
-0.41421356237309503
10
322.25
20
-123.94999999999999
10
309.25
20
-123.94999999999997
42
-0.41421356237309503
10
308.75
20
-123.45
10
308.75
20
-110.45
42
-0.41421356237309503
0
LWPOLYLINE
5
196
100
AcDbEntity
8
0
100
AcDbPolyline
90
8
70
1
43
0.0
10
328.29999999999995
20
-109.95000000000002
10
341.30000000000001
20
-109.95000000000003
42
-0.41421356237309503
10
341.80000000000001
20
-110.45
10
341.80000000000001
20
-123.45
42
-0.41421356237309503
10
341.30000000000001
20
-123.94999999999999
10
328.29999999999995
20
-123.94999999999997
42
-0.41421356237309503
10
327.80000000000001
20
-123.45
10
327.80000000000001
20
-110.45
42
-0.41421356237309503
0
LWPOLYLINE
5
197
100
AcDbEntity
8
0
100
AcDbPolyline
90
8
70
1
43
0.0
10
347.35000000000002
20
-109.95000000000002
10
360.35000000000002
20
-109.95000000000003
42
-0.41421356237309503
10
360.85000000000002
20
-110.45
10
360.85000000000002
20
-123.45
42
-0.41421356237309503
10
360.35000000000002
20
-123.94999999999999
10
347.35000000000002
20
-123.94999999999997
42
-0.41421356237309503
10
346.85000000000002
20
-123.45
10
346.85000000000002
20
-110.45
42
-0.41421356237309503
0
LWPOLYLINE
5
198
100
AcDbEntity
8
0
100
AcDbPolyline
90
8
70
1
43
0.0
10
379.90000000000003
20
-119.97500000000001
10
379.90000000000009
20
-132.97500000000002
42
-0.41421356237309503
10
379.40000000000003
20
-133.47500000000002
10
366.39999999999998
20
-133.47499999999999
42
-0.41421356237309503
10
365.90000000000003
20
-132.97500000000002
10
365.90000000000003
20
-119.97500000000001
42
-0.41421356237309503
10
366.39999999999998
20
-119.47500000000002
10
379.40000000000003
20
-119.47500000000004
42
-0.41421356237309503
0
LWPOLYLINE
5
199
100
AcDbEntity
8
0
100
AcDbPolyline
90
8
70
1
43
0.0
10
378.89999999999998
20
-111.53700000000001
10
378.89999999999998
20
-117.53700000000002
42
-0.41421356237309503
10
378.40000000000003
20
-118.03700000000003
10
364.40000000000003
20
-118.03700000000006
42
-0.41421356237309503
10
363.89999999999998
20
-117.53700000000002
10
363.89999999999998
20
-111.53700000000001
42
-0.41421356237309503
10
364.40000000000003
20
-111.03700000000001
10
378.40000000000003
20
-111.03700000000003
42
-0.41421356237309503
0
LWPOLYLINE
5
200
100
AcDbEntity
8
0
100
AcDbPolyline
90
8
70
1
43
0.0
10
378.89999999999998
20
-135.41300000000001
10
378.89999999999998
20
-141.41299999999998
42
-0.41421356237309503
10
378.40000000000003
20
-141.91300000000001
10
364.40000000000003
20
-141.91300000000004
42
-0.41421356237309503
10
363.89999999999998
20
-141.41299999999998
10
363.90000000000009
20
-135.41300000000001
42
-0.41421356237309503
10
364.40000000000003
20
-134.91300000000001
10
378.40000000000003
20
-134.91300000000001
42
-0.41421356237309503
0
LWPOLYLINE
5
201
100
AcDbEntity
8
0
100
AcDbPolyline
90
8
70
1
43
0.0
10
25.881250000000009
20
-129.00000000000003
10
38.881250000000009
20
-129.00000000000003
42
-0.41421356237309503
10
39.381250000000009
20
-129.5
10
39.381250000000016
20
-142.50000000000003
42
-0.41421356237309503
10
38.881250000000009
20
-143.00000000000003
10
25.881250000000009
20
-143
42
-0.41421356237309503
10
25.381250000000009
20
-142.50000000000003
10
25.381250000000016
20
-129.5
42
-0.41421356237309503
0
LWPOLYLINE
5
202
100
AcDbEntity
8
0
100
AcDbPolyline
90
8
70
1
43
0.0
10
49.693750000000009
20
-129.00000000000003
10
62.693750000000001
20
-129
42
-0.41421356237309503
10
63.193750000000009
20
-129.5
10
63.193750000000009
20
-142.50000000000003
42
-0.41421356237309503
10
62.693750000000001
20
-143.00000000000003
10
49.693750000000009
20
-143.00000000000003
42
-0.41421356237309503
10
49.193750000000009
20
-142.50000000000003
10
49.193750000000023
20
-129.5
42
-0.41421356237309503
0
LWPOLYLINE
5
203
100
AcDbEntity
8
0
100
AcDbPolyline
90
8
70
1
43
0.0
10
73.506250000000009
20
-129.00000000000003
10
86.506250000000023
20
-129.00000000000003
42
-0.41421356237309503
10
87.006250000000009
20
-129.5
10
87.006250000000023
20
-142.50000000000003
42
-0.41421356237309503
10
86.506250000000023
20
-143.00000000000003
10
73.506250000000009
20
-143
42
-0.41421356237309503
10
73.006250000000023
20
-142.50000000000003
10
73.006250000000023
20
-129.5
42
-0.41421356237309503
0
LWPOLYLINE
5
204
100
AcDbEntity
8
0
100
AcDbPolyline
90
8
70
1
43
0.0
10
144.94375000000002
20
-129.00000000000003
10
157.94375000000002
20
-129.00000000000003
42
-0.41421356237309503
10
158.44375000000002
20
-129.5
10
158.44375000000002
20
-142.50000000000003
42
-0.41421356237309503
10
157.94375000000002
20
-143.00000000000003
10
144.94375000000002
20
-143
42
-0.41421356237309503
10
144.44375000000002
20
-142.50000000000003
10
144.44375000000002
20
-129.5
42
-0.41421356237309503
0
LWPOLYLINE
5
205
100
AcDbEntity
8
0
100
AcDbPolyline
90
8
70
1
43
0.0
10
98.443750000000009
20
-130.00000000000003
10
104.44375000000001
20
-130.00000000000003
42
-0.41421356237309503
10
104.94375000000002
20
-130.50000000000003
10
104.94375000000002
20
-144.5
42
-0.41421356237309503
10
104.44375000000001
20
-145.00000000000003
10
98.443750000000009
20
-145.00000000000003
42
-0.41421356237309503
10
97.943750000000009
20
-144.5
10
97.943750000000009
20
-130.50000000000003
42
-0.41421356237309503
0
LWPOLYLINE
5
206
100
AcDbEntity
8
0
100
AcDbPolyline
90
8
70
1
43
0.0
10
198.44374999999999
20
-130.00000000000003
10
204.44375000000002
20
-130.00000000000003
42
-0.41421356237309503
10
204.94375000000002
20
-130.50000000000003
10
204.94375000000002
20
-144.5
42
-0.41421356237309503
10
204.44375000000002
20
-145.00000000000003
10
198.44374999999999
20
-145.00000000000003
42
-0.41421356237309503
10
197.94374999999999
20
-144.5
10
197.94374999999999
20
-130.50000000000003
42
-0.41421356237309503
0
LWPOLYLINE
5
207
100
AcDbEntity
8
0
100
AcDbPolyline
90
8
70
1
43
0.0
10
214.00000000000003
20
-129.00000000000003
10
227.00000000000003
20
-129.00000000000003
42
-0.41421356237309503
10
227.5
20
-129.5
10
227.50000000000003
20
-142.50000000000003
42
-0.41421356237309503
10
227.00000000000003
20
-143.00000000000003
10
214.00000000000003
20
-143.00000000000003
42
-0.41421356237309503
10
213.5
20
-142.50000000000003
10
213.5
20
-129.5
42
-0.41421356237309503
0
LWPOLYLINE
5
208
100
AcDbEntity
8
0
100
AcDbPolyline
90
8
70
1
43
0.0
10
233.05000000000001
20
-129.00000000000003
10
246.05000000000001
20
-129
42
-0.41421356237309503
10
246.55000000000001
20
-129.5
10
246.55000000000001
20
-142.50000000000003
42
-0.41421356237309503
10
246.05000000000001
20
-143.00000000000003
10
233.05000000000001
20
-143.00000000000003
42
-0.41421356237309503
10
232.54999999999998
20
-142.50000000000003
10
232.55000000000001
20
-129.5
42
-0.41421356237309503
0
LWPOLYLINE
5
209
100
AcDbEntity
8
0
100
AcDbPolyline
90
8
70
1
43
0.0
10
252.10000000000002
20
-129.00000000000003
10
265.10000000000002
20
-129
42
-0.41421356237309503
10
265.60000000000002
20
-129.5
10
265.60000000000002
20
-142.50000000000003
42
-0.41421356237309503
10
265.10000000000002
20
-143.00000000000003
10
252.10000000000002
20
-143.00000000000003
42
-0.41421356237309503
10
251.59999999999999
20
-142.50000000000003
10
251.60000000000002
20
-129.5
42
-0.41421356237309503
0
LWPOLYLINE
5
210
100
AcDbEntity
8
0
100
AcDbPolyline
90
8
70
1
43
0.0
10
271.15000000000003
20
-129.00000000000003
10
284.15000000000003
20
-129
42
-0.41421356237309503
10
284.65000000000003
20
-129.5
10
284.65000000000003
20
-142.50000000000003
42
-0.41421356237309503
10
284.15000000000003
20
-143.00000000000003
10
271.15000000000003
20
-143.00000000000003
42
-0.41421356237309503
10
270.65000000000003
20
-142.50000000000003
10
270.65000000000003
20
-129.5
42
-0.41421356237309503
0
LWPOLYLINE
5
211
100
AcDbEntity
8
0
100
AcDbPolyline
90
8
70
1
43
0.0
10
290.20000000000005
20
-129.00000000000003
10
303.20000000000005
20
-129
42
-0.41421356237309503
10
303.70000000000005
20
-129.5
10
303.70000000000005
20
-142.50000000000003
42
-0.41421356237309503
10
303.20000000000005
20
-143.00000000000003
10
290.20000000000005
20
-143.00000000000003
42
-0.41421356237309503
10
289.70000000000005
20
-142.50000000000003
10
289.70000000000005
20
-129.5
42
-0.41421356237309503
0
LWPOLYLINE
5
212
100
AcDbEntity
8
0
100
AcDbPolyline
90
8
70
1
43
0.0
10
309.25
20
-129.00000000000003
10
322.25
20
-129.00000000000003
42
-0.41421356237309503
10
322.75
20
-129.5
10
322.75000000000006
20
-142.50000000000003
42
-0.41421356237309503
10
322.25
20
-143.00000000000003
10
309.25
20
-143
42
-0.41421356237309503
10
308.75
20
-142.50000000000003
10
308.75
20
-129.5
42
-0.41421356237309503
0
LWPOLYLINE
5
213
100
AcDbEntity
8
0
100
AcDbPolyline
90
8
70
1
43
0.0
10
328.29999999999995
20
-129.00000000000003
10
341.30000000000001
20
-129.00000000000003
42
-0.41421356237309503
10
341.80000000000001
20
-129.5
10
341.80000000000007
20
-142.50000000000003
42
-0.41421356237309503
10
341.30000000000001
20
-143.00000000000003
10
328.29999999999995
20
-143
42
-0.41421356237309503
10
327.80000000000001
20
-142.50000000000003
10
327.80000000000001
20
-129.5
42
-0.41421356237309503
0
LWPOLYLINE
5
214
100
AcDbEntity
8
0
100
AcDbPolyline
90
8
70
1
43
0.0
10
347.35000000000002
20
-129.00000000000003
10
360.35000000000002
20
-129.00000000000003
42
-0.41421356237309503
10
360.85000000000002
20
-129.5
10
360.85000000000008
20
-142.50000000000003
42
-0.41421356237309503
10
360.35000000000002
20
-143.00000000000003
10
347.35000000000002
20
-143
42
-0.41421356237309503
10
346.85000000000002
20
-142.50000000000003
10
346.85000000000002
20
-129.5
42
-0.41421356237309503
0
LWPOLYLINE
5
215
100
AcDbEntity
8
0
100
AcDbPolyline
90
8
70
1
43
0.0
10
3.0000000000000289
20
-160
10
446.99999999999994
20
-160
42
0.41421356237309503
10
450
20
-156.99999999999997
10
450
20
-3.0000000000000004
42
0.41421356237309503
10
447
20
0
10
3.0000000000000004
20
0
42
0.41421356237309576
10
5.5511151231257827e-16
20
-3.0000000000000071
10
3.8857805861880479e-15
20
-156.99999999999997
42
0.41421356237309503
0
LWPOLYLINE
5
216
100
AcDbEntity
8
0
100
AcDbPolyline
90
4
70
1
43
0.0
10
396.54000000000002
20
-85.039999999999964
10
434.25999999999999
20
-85.039999999999964
10
434.25999999999999
20
-135
10
396.54000000000002
20
-135
0
LWPOLYLINE
5
217
100
AcDbEntity
8
0
100
AcDbPolyline
90
4
70
1
43
0.0
10
395.39999999999998
20
-56.25
10
435.39999999999998
20
-56.25
10
435.39999999999998
20
-59.25
10
395.39999999999998
20
-59.25
0
LWPOLYLINE
5
218
100
AcDbEntity
8
0
100
AcDbPolyline
90
4
70
1
43
0.0
10
435.39999999999998
20
-46.649999999999999
10
395.39999999999998
20
-46.649999999999999
10
395.39999999999998
20
-43.650000000000006
10
435.39999999999998
20
-43.650000000000006
0
LWPOLYLINE
5
219
100
AcDbEntity
8
0
100
AcDbPolyline
90
4
70
1
43
0.0
10
395.39999999999998
20
-18.650000000000002
10
435.39999999999998
20
-18.650000000000002
10
435.39999999999998
20
-33.650000000000006
10
395.39999999999998
20
-33.650000000000006
0
LWPOLYLINE
5
220
100
AcDbEntity
8
0
100
AcDbPolyline
90
8
70
1
43
0.0
10
25.000000342726732
20
-10.250000000000014
10
377.90000034272668
20
-10.250000000000085
42
-0.41421356237309503
10
379.90000034272663
20
-12.250000000000043
10
379.90000034272663
20
-25.749999999999975
42
-0.41421356237309503
10
377.90000034272657
20
-27.750000000000004
10
25.000000342726732
20
-27.750000000000004
42
-0.41421356237309503
10
23.000000342726729
20
-25.75
10
23.000000342726725
20
-12.250000000000018
42
-0.41421356237309503
0
CIRCLE
5
221
100
AcDbEntity
8
0
100
AcDbCircle
10
5.000000074505806
20
-155.0000021606684
30
0
40
1.6000000000000003
210
0
220
0
230
1
0
CIRCLE
5
222
100
AcDbEntity
8
0
100
AcDbCircle
10
5.000000074505806
20
-5.000000074505806
30
0
40
1.6000000000000003
210
0
220
0
230
1
0
CIRCLE
5
223
100
AcDbEntity
8
0
100
AcDbCircle
10
445.00000648200512
20
-5.000000074505806
30
0
40
1.5999999999999659
210
0
220
0
230
1
0
CIRCLE
5
224
100
AcDbEntity
8
0
100
AcDbCircle
10
445.00000648200512
20
-155.0000021606684
30
0
40
1.5999999999999943
210
0
220
0
230
1
0
LWPOLYLINE
5
225
100
AcDbEntity
8
0
100
AcDbPolyline
90
8
70
1
43
0.0
10
23.500000000000007
20
-33.750000000000007
42
0.41421356237309503
10
23.000000000000007
20
-34.250000000000007
10
23.000000000000007
20
-47.250000000000007
42
0.41421356237309503
10
23.500000000000007
20
-47.75
10
36.500000000000014
20
-47.75
42
0.41421356237309503
10
37.000000000000014
20
-47.250000000000007
10
37.000000000000014
20
-34.250000000000007
42
0.41421356237309503
10
36.500000000000014
20
-33.750000000000007
0
CIRCLE
5
226
100
AcDbEntity
8
0
100
AcDbCircle
10
93.000000074505806
20
-5.000000074505806
30
0
40
1.6000000000000003
210
0
220
0
230
1
0
CIRCLE
5
227
100
AcDbEntity
8
0
100
AcDbCircle
10
181.00000007450581
20
-5.000000074505806
30
0
40
1.6000000000000003
210
0
220
0
230
1
0
CIRCLE
5
228
100
AcDbEntity
8
0
100
AcDbCircle
10
269.00000007450581
20
-5.000000074505806
30
0
40
1.6000000000000003
210
0
220
0
230
1
0
CIRCLE
5
229
100
AcDbEntity
8
0
100
AcDbCircle
10
357.00000007450581
20
-5.000000074505806
30
0
40
1.6000000000000003
210
0
220
0
230
1
0
CIRCLE
5
230
100
AcDbEntity
8
0
100
AcDbCircle
10
445.00000007450581
20
-5.000000074505806
30
0
40
1.6000000000000003
210
0
220
0
230
1
0
CIRCLE
5
231
100
AcDbEntity
8
0
100
AcDbCircle
10
93.000000074505806
20
-155.0000021606684
30
0
40
1.6000000000000003
210
0
220
0
230
1
0
CIRCLE
5
232
100
AcDbEntity
8
0
100
AcDbCircle
10
181.00000007450581
20
-155.0000021606684
30
0
40
1.6000000000000003
210
0
220
0
230
1
0
CIRCLE
5
233
100
AcDbEntity
8
0
100
AcDbCircle
10
269.00000007450581
20
-155.0000021606684
30
0
40
1.6000000000000003
210
0
220
0
230
1
0
CIRCLE
5
234
100
AcDbEntity
8
0
100
AcDbCircle
10
357.00000007450581
20
-155.0000021606684
30
0
40
1.6000000000000003
210
0
220
0
230
1
0
CIRCLE
5
235
100
AcDbEntity
8
0
100
AcDbCircle
10
445.00000007450581
20
-155.0000021606684
30
0
40
1.6000000000000003
210
0
220
0
230
1
0
CIRCLE
5
236
100
AcDbEntity
8
0
100
AcDbCircle
10
5.000000074505806
20
-75.00000111758709
30
0
40
1.6000000000000003
210
0
220
0
230
1
0
CIRCLE
5
237
100
AcDbEntity
8
0
100
AcDbCircle
10
445.00000663101673
20
-75.00000111758709
30
0
40
1.5999999999999805
210
0
220
0
230
1
0
ENDSEC
0
SECTION
2
OBJECTS
0
DICTIONARY
5
C
100
AcDbDictionary
3
ACAD_GROUP
350
D
3
ACAD_MLINESTYLE
350
17
0
DICTIONARY
5
D
100
AcDbDictionary
0
DICTIONARY
5
1A
330
C
100
AcDbDictionary
0
DICTIONARY
5
17
100
AcDbDictionary
0
ENDSEC
0
EOF
