ISO-10303-21;
HEADER;
/* Generated by software containing ST-Developer
 * from STEP Tools, Inc. (www.steptools.com) 
 */

FILE_DESCRIPTION(
/* description */ (''),
/* implementation_level */ '2;1');

FILE_NAME(
/* name */ 'Top Case.step',
/* time_stamp */ '2025-06-24T12:34:55+12:00',
/* author */ (''),
/* organization */ (''),
/* preprocessor_version */ 'ST-DEVELOPER v20.1',
/* originating_system */ 'Autodesk Translation Framework v14.10.0.0',
/* authorisation */ '');

FILE_SCHEMA (('AUTOMOTIVE_DESIGN { 1 0 10303 214 3 1 1 }'));
ENDSEC;

DATA;
#10=MECHANICAL_DESIGN_GEOMETRIC_PRESENTATION_REPRESENTATION('',(#13),#1763);
#11=SHAPE_REPRESENTATION_RELATIONSHIP('SRR','None',#1770,#12);
#12=ADVANCED_BREP_SHAPE_REPRESENTATION('',(#14),#1762);
#13=STYLED_ITEM('',(#1779),#14);
#14=MANIFOLD_SOLID_BREP('Body1',#993);
#15=ELLIPSE('',#1076,1.41421356237309,1.);
#16=ELLIPSE('',#1078,1.41421356237309,1.);
#17=ELLIPSE('',#1110,1.41421351988978,1.);
#18=ELLIPSE('',#1112,1.4142135623731,1.);
#19=TOROIDAL_SURFACE('',#1072,4.,1.);
#20=TOROIDAL_SURFACE('',#1079,1.99999999999999,1.);
#21=TOROIDAL_SURFACE('',#1084,2.00000000000001,1.);
#22=TOROIDAL_SURFACE('',#1089,2.00000000000004,1.);
#23=TOROIDAL_SURFACE('',#1094,1.9999999999999,1.);
#24=TOROIDAL_SURFACE('',#1099,1.99999999999999,1.);
#25=B_SPLINE_CURVE_WITH_KNOTS('',3,(#1627,#1628,#1629,#1630,#1631,#1632,
#1633,#1634,#1635,#1636,#1637,#1638,#1639,#1640,#1641,#1642,#1643,#1644,
#1645,#1646,#1647,#1648,#1649,#1650,#1651,#1652,#1653,#1654,#1655,#1656,
#1657,#1658,#1659,#1660,#1661,#1662,#1663),.UNSPECIFIED.,.F.,.F.,(4,3,3,
3,3,3,3,3,3,3,3,3,4),(0.,0.133018201688161,0.266031203603271,0.399039466096613,
0.532043449346122,0.665085676099462,0.798114453508893,0.931131625433954,
1.06413903402014,1.19717854665421,1.33019370846216,1.46322799230941,1.5707963269206),
 .UNSPECIFIED.);
#26=FACE_BOUND('',#140,.T.);
#27=FACE_BOUND('',#143,.T.);
#28=FACE_BOUND('',#144,.T.);
#29=FACE_BOUND('',#145,.T.);
#30=FACE_BOUND('',#146,.T.);
#31=FACE_BOUND('',#147,.T.);
#32=FACE_BOUND('',#148,.T.);
#33=FACE_BOUND('',#149,.T.);
#34=FACE_BOUND('',#150,.T.);
#35=PLANE('',#1010);
#36=PLANE('',#1014);
#37=PLANE('',#1018);
#38=PLANE('',#1022);
#39=PLANE('',#1026);
#40=PLANE('',#1030);
#41=PLANE('',#1034);
#42=PLANE('',#1041);
#43=PLANE('',#1049);
#44=PLANE('',#1050);
#45=PLANE('',#1060);
#46=PLANE('',#1062);
#47=PLANE('',#1063);
#48=PLANE('',#1064);
#49=PLANE('',#1065);
#50=PLANE('',#1066);
#51=PLANE('',#1067);
#52=PLANE('',#1102);
#53=PLANE('',#1104);
#54=PLANE('',#1106);
#55=PLANE('',#1108);
#56=PLANE('',#1114);
#57=PLANE('',#1115);
#58=PLANE('',#1116);
#59=PLANE('',#1117);
#60=PLANE('',#1119);
#61=PLANE('',#1120);
#62=PLANE('',#1122);
#63=FACE_OUTER_BOUND('',#123,.T.);
#64=FACE_OUTER_BOUND('',#124,.T.);
#65=FACE_OUTER_BOUND('',#125,.T.);
#66=FACE_OUTER_BOUND('',#126,.T.);
#67=FACE_OUTER_BOUND('',#127,.T.);
#68=FACE_OUTER_BOUND('',#128,.T.);
#69=FACE_OUTER_BOUND('',#129,.T.);
#70=FACE_OUTER_BOUND('',#130,.T.);
#71=FACE_OUTER_BOUND('',#131,.T.);
#72=FACE_OUTER_BOUND('',#132,.T.);
#73=FACE_OUTER_BOUND('',#133,.T.);
#74=FACE_OUTER_BOUND('',#134,.T.);
#75=FACE_OUTER_BOUND('',#135,.T.);
#76=FACE_OUTER_BOUND('',#136,.T.);
#77=FACE_OUTER_BOUND('',#137,.T.);
#78=FACE_OUTER_BOUND('',#138,.T.);
#79=FACE_OUTER_BOUND('',#139,.T.);
#80=FACE_OUTER_BOUND('',#141,.T.);
#81=FACE_OUTER_BOUND('',#142,.T.);
#82=FACE_OUTER_BOUND('',#151,.T.);
#83=FACE_OUTER_BOUND('',#152,.T.);
#84=FACE_OUTER_BOUND('',#153,.T.);
#85=FACE_OUTER_BOUND('',#154,.T.);
#86=FACE_OUTER_BOUND('',#155,.T.);
#87=FACE_OUTER_BOUND('',#156,.T.);
#88=FACE_OUTER_BOUND('',#157,.T.);
#89=FACE_OUTER_BOUND('',#158,.T.);
#90=FACE_OUTER_BOUND('',#159,.T.);
#91=FACE_OUTER_BOUND('',#160,.T.);
#92=FACE_OUTER_BOUND('',#161,.T.);
#93=FACE_OUTER_BOUND('',#162,.T.);
#94=FACE_OUTER_BOUND('',#163,.T.);
#95=FACE_OUTER_BOUND('',#164,.T.);
#96=FACE_OUTER_BOUND('',#165,.T.);
#97=FACE_OUTER_BOUND('',#166,.T.);
#98=FACE_OUTER_BOUND('',#167,.T.);
#99=FACE_OUTER_BOUND('',#168,.T.);
#100=FACE_OUTER_BOUND('',#169,.T.);
#101=FACE_OUTER_BOUND('',#170,.T.);
#102=FACE_OUTER_BOUND('',#171,.T.);
#103=FACE_OUTER_BOUND('',#172,.T.);
#104=FACE_OUTER_BOUND('',#173,.T.);
#105=FACE_OUTER_BOUND('',#174,.T.);
#106=FACE_OUTER_BOUND('',#175,.T.);
#107=FACE_OUTER_BOUND('',#176,.T.);
#108=FACE_OUTER_BOUND('',#177,.T.);
#109=FACE_OUTER_BOUND('',#178,.T.);
#110=FACE_OUTER_BOUND('',#179,.T.);
#111=FACE_OUTER_BOUND('',#180,.T.);
#112=FACE_OUTER_BOUND('',#181,.T.);
#113=FACE_OUTER_BOUND('',#182,.T.);
#114=FACE_OUTER_BOUND('',#183,.T.);
#115=FACE_OUTER_BOUND('',#184,.T.);
#116=FACE_OUTER_BOUND('',#185,.T.);
#117=FACE_OUTER_BOUND('',#186,.T.);
#118=FACE_OUTER_BOUND('',#187,.T.);
#119=FACE_OUTER_BOUND('',#188,.T.);
#120=FACE_OUTER_BOUND('',#189,.T.);
#121=FACE_OUTER_BOUND('',#190,.T.);
#122=FACE_OUTER_BOUND('',#191,.T.);
#123=EDGE_LOOP('',(#631,#632,#633,#634));
#124=EDGE_LOOP('',(#635));
#125=EDGE_LOOP('',(#636,#637,#638,#639));
#126=EDGE_LOOP('',(#640));
#127=EDGE_LOOP('',(#641,#642,#643,#644));
#128=EDGE_LOOP('',(#645));
#129=EDGE_LOOP('',(#646,#647,#648,#649));
#130=EDGE_LOOP('',(#650));
#131=EDGE_LOOP('',(#651,#652,#653,#654));
#132=EDGE_LOOP('',(#655));
#133=EDGE_LOOP('',(#656,#657,#658,#659));
#134=EDGE_LOOP('',(#660));
#135=EDGE_LOOP('',(#661,#662,#663,#664));
#136=EDGE_LOOP('',(#665));
#137=EDGE_LOOP('',(#666,#667,#668,#669));
#138=EDGE_LOOP('',(#670,#671,#672,#673));
#139=EDGE_LOOP('',(#674,#675,#676,#677,#678,#679,#680,#681,#682,#683,#684,
#685,#686));
#140=EDGE_LOOP('',(#687,#688,#689,#690,#691,#692,#693,#694));
#141=EDGE_LOOP('',(#695,#696,#697,#698));
#142=EDGE_LOOP('',(#699,#700,#701,#702,#703,#704,#705,#706,#707,#708,#709,
#710,#711,#712,#713,#714,#715,#716,#717,#718,#719));
#143=EDGE_LOOP('',(#720));
#144=EDGE_LOOP('',(#721));
#145=EDGE_LOOP('',(#722));
#146=EDGE_LOOP('',(#723));
#147=EDGE_LOOP('',(#724));
#148=EDGE_LOOP('',(#725));
#149=EDGE_LOOP('',(#726));
#150=EDGE_LOOP('',(#727,#728,#729,#730,#731,#732,#733,#734));
#151=EDGE_LOOP('',(#735,#736,#737,#738));
#152=EDGE_LOOP('',(#739,#740,#741,#742));
#153=EDGE_LOOP('',(#743,#744,#745,#746));
#154=EDGE_LOOP('',(#747,#748,#749,#750));
#155=EDGE_LOOP('',(#751,#752,#753,#754));
#156=EDGE_LOOP('',(#755,#756,#757,#758));
#157=EDGE_LOOP('',(#759,#760,#761,#762,#763,#764));
#158=EDGE_LOOP('',(#765,#766,#767,#768));
#159=EDGE_LOOP('',(#769,#770,#771,#772));
#160=EDGE_LOOP('',(#773,#774,#775,#776));
#161=EDGE_LOOP('',(#777,#778,#779,#780));
#162=EDGE_LOOP('',(#781,#782,#783,#784,#785,#786,#787,#788));
#163=EDGE_LOOP('',(#789,#790,#791,#792));
#164=EDGE_LOOP('',(#793,#794,#795,#796));
#165=EDGE_LOOP('',(#797,#798,#799,#800));
#166=EDGE_LOOP('',(#801,#802,#803,#804));
#167=EDGE_LOOP('',(#805,#806,#807,#808));
#168=EDGE_LOOP('',(#809,#810,#811,#812));
#169=EDGE_LOOP('',(#813,#814,#815,#816));
#170=EDGE_LOOP('',(#817,#818,#819,#820));
#171=EDGE_LOOP('',(#821,#822,#823,#824));
#172=EDGE_LOOP('',(#825,#826,#827,#828));
#173=EDGE_LOOP('',(#829,#830,#831,#832));
#174=EDGE_LOOP('',(#833,#834,#835,#836));
#175=EDGE_LOOP('',(#837,#838,#839,#840));
#176=EDGE_LOOP('',(#841,#842,#843,#844));
#177=EDGE_LOOP('',(#845,#846,#847,#848));
#178=EDGE_LOOP('',(#849,#850,#851,#852));
#179=EDGE_LOOP('',(#853,#854,#855,#856));
#180=EDGE_LOOP('',(#857,#858,#859,#860,#861));
#181=EDGE_LOOP('',(#862,#863,#864,#865));
#182=EDGE_LOOP('',(#866,#867,#868,#869,#870));
#183=EDGE_LOOP('',(#871,#872,#873,#874));
#184=EDGE_LOOP('',(#875,#876,#877,#878));
#185=EDGE_LOOP('',(#879,#880,#881,#882));
#186=EDGE_LOOP('',(#883,#884,#885,#886));
#187=EDGE_LOOP('',(#887,#888,#889,#890));
#188=EDGE_LOOP('',(#891,#892,#893,#894));
#189=EDGE_LOOP('',(#895,#896,#897,#898));
#190=EDGE_LOOP('',(#899,#900,#901,#902));
#191=EDGE_LOOP('',(#903,#904,#905,#906));
#192=LINE('',#1443,#273);
#193=LINE('',#1450,#274);
#194=LINE('',#1457,#275);
#195=LINE('',#1464,#276);
#196=LINE('',#1471,#277);
#197=LINE('',#1478,#278);
#198=LINE('',#1485,#279);
#199=LINE('',#1493,#280);
#200=LINE('',#1496,#281);
#201=LINE('',#1501,#282);
#202=LINE('',#1506,#283);
#203=LINE('',#1508,#284);
#204=LINE('',#1512,#285);
#205=LINE('',#1516,#286);
#206=LINE('',#1520,#287);
#207=LINE('',#1524,#288);
#208=LINE('',#1528,#289);
#209=LINE('',#1531,#290);
#210=LINE('',#1533,#291);
#211=LINE('',#1535,#292);
#212=LINE('',#1537,#293);
#213=LINE('',#1540,#294);
#214=LINE('',#1543,#295);
#215=LINE('',#1544,#296);
#216=LINE('',#1548,#297);
#217=LINE('',#1550,#298);
#218=LINE('',#1554,#299);
#219=LINE('',#1558,#300);
#220=LINE('',#1560,#301);
#221=LINE('',#1564,#302);
#222=LINE('',#1568,#303);
#223=LINE('',#1572,#304);
#224=LINE('',#1576,#305);
#225=LINE('',#1580,#306);
#226=LINE('',#1584,#307);
#227=LINE('',#1586,#308);
#228=LINE('',#1587,#309);
#229=LINE('',#1589,#310);
#230=LINE('',#1593,#311);
#231=LINE('',#1595,#312);
#232=LINE('',#1596,#313);
#233=LINE('',#1598,#314);
#234=LINE('',#1600,#315);
#235=LINE('',#1603,#316);
#236=LINE('',#1605,#317);
#237=LINE('',#1606,#318);
#238=LINE('',#1609,#319);
#239=LINE('',#1610,#320);
#240=LINE('',#1613,#321);
#241=LINE('',#1614,#322);
#242=LINE('',#1617,#323);
#243=LINE('',#1618,#324);
#244=LINE('',#1621,#325);
#245=LINE('',#1622,#326);
#246=LINE('',#1624,#327);
#247=LINE('',#1666,#328);
#248=LINE('',#1669,#329);
#249=LINE('',#1680,#330);
#250=LINE('',#1683,#331);
#251=LINE('',#1686,#332);
#252=LINE('',#1694,#333);
#253=LINE('',#1702,#334);
#254=LINE('',#1710,#335);
#255=LINE('',#1718,#336);
#256=LINE('',#1722,#337);
#257=LINE('',#1723,#338);
#258=LINE('',#1725,#339);
#259=LINE('',#1727,#340);
#260=LINE('',#1729,#341);
#261=LINE('',#1731,#342);
#262=LINE('',#1733,#343);
#263=LINE('',#1735,#344);
#264=LINE('',#1737,#345);
#265=LINE('',#1743,#346);
#266=LINE('',#1745,#347);
#267=LINE('',#1747,#348);
#268=LINE('',#1749,#349);
#269=LINE('',#1752,#350);
#270=LINE('',#1754,#351);
#271=LINE('',#1756,#352);
#272=LINE('',#1758,#353);
#273=VECTOR('',#1129,1.6);
#274=VECTOR('',#1138,1.6);
#275=VECTOR('',#1147,1.6);
#276=VECTOR('',#1156,1.6);
#277=VECTOR('',#1165,1.6);
#278=VECTOR('',#1174,1.6);
#279=VECTOR('',#1183,1.6);
#280=VECTOR('',#1192,10.);
#281=VECTOR('',#1195,10.);
#282=VECTOR('',#1200,10.);
#283=VECTOR('',#1205,10.);
#284=VECTOR('',#1206,10.);
#285=VECTOR('',#1209,10.);
#286=VECTOR('',#1212,10.);
#287=VECTOR('',#1215,10.);
#288=VECTOR('',#1218,10.);
#289=VECTOR('',#1221,10.);
#290=VECTOR('',#1224,10.);
#291=VECTOR('',#1225,10.);
#292=VECTOR('',#1226,10.);
#293=VECTOR('',#1227,10.);
#294=VECTOR('',#1230,10.);
#295=VECTOR('',#1233,10.);
#296=VECTOR('',#1234,10.);
#297=VECTOR('',#1237,10.);
#298=VECTOR('',#1238,10.);
#299=VECTOR('',#1241,10.);
#300=VECTOR('',#1244,10.);
#301=VECTOR('',#1245,10.);
#302=VECTOR('',#1248,10.);
#303=VECTOR('',#1251,10.);
#304=VECTOR('',#1254,10.);
#305=VECTOR('',#1257,10.);
#306=VECTOR('',#1260,10.);
#307=VECTOR('',#1263,10.);
#308=VECTOR('',#1264,10.);
#309=VECTOR('',#1265,10.);
#310=VECTOR('',#1266,10.);
#311=VECTOR('',#1269,10.);
#312=VECTOR('',#1270,10.);
#313=VECTOR('',#1271,10.);
#314=VECTOR('',#1274,10.);
#315=VECTOR('',#1277,10.);
#316=VECTOR('',#1280,10.);
#317=VECTOR('',#1281,10.);
#318=VECTOR('',#1282,10.);
#319=VECTOR('',#1285,10.);
#320=VECTOR('',#1286,10.);
#321=VECTOR('',#1289,10.);
#322=VECTOR('',#1290,10.);
#323=VECTOR('',#1293,10.);
#324=VECTOR('',#1294,10.);
#325=VECTOR('',#1297,10.);
#326=VECTOR('',#1298,10.);
#327=VECTOR('',#1301,10.);
#328=VECTOR('',#1306,10.);
#329=VECTOR('',#1309,10.);
#330=VECTOR('',#1322,10.);
#331=VECTOR('',#1325,10.);
#332=VECTOR('',#1328,10.);
#333=VECTOR('',#1339,10.);
#334=VECTOR('',#1350,10.);
#335=VECTOR('',#1361,10.);
#336=VECTOR('',#1372,10.);
#337=VECTOR('',#1379,10.);
#338=VECTOR('',#1380,10.);
#339=VECTOR('',#1383,10.);
#340=VECTOR('',#1386,10.);
#341=VECTOR('',#1389,10.);
#342=VECTOR('',#1392,10.);
#343=VECTOR('',#1395,10.);
#344=VECTOR('',#1398,10.);
#345=VECTOR('',#1401,10.);
#346=VECTOR('',#1412,10.);
#347=VECTOR('',#1415,10.);
#348=VECTOR('',#1418,10.);
#349=VECTOR('',#1421,10.);
#350=VECTOR('',#1426,10.);
#351=VECTOR('',#1429,10.);
#352=VECTOR('',#1432,10.);
#353=VECTOR('',#1435,10.);
#354=CIRCLE('',#1008,1.6);
#355=CIRCLE('',#1009,1.6);
#356=CIRCLE('',#1012,1.6);
#357=CIRCLE('',#1013,1.6);
#358=CIRCLE('',#1016,1.6);
#359=CIRCLE('',#1017,1.6);
#360=CIRCLE('',#1020,1.6);
#361=CIRCLE('',#1021,1.6);
#362=CIRCLE('',#1024,1.6);
#363=CIRCLE('',#1025,1.6);
#364=CIRCLE('',#1028,1.6);
#365=CIRCLE('',#1029,1.6);
#366=CIRCLE('',#1032,1.6);
#367=CIRCLE('',#1033,1.6);
#368=CIRCLE('',#1036,5.);
#369=CIRCLE('',#1037,5.);
#370=CIRCLE('',#1039,22.5);
#371=CIRCLE('',#1040,22.5);
#372=CIRCLE('',#1042,4.);
#373=CIRCLE('',#1043,1.99999999999999);
#374=CIRCLE('',#1044,2.);
#375=CIRCLE('',#1045,2.00000000000004);
#376=CIRCLE('',#1046,1.9999999999999);
#377=CIRCLE('',#1047,1.99999999999999);
#378=CIRCLE('',#1048,5.);
#379=CIRCLE('',#1051,1.);
#380=CIRCLE('',#1052,3.);
#381=CIRCLE('',#1053,2.99999999999999);
#382=CIRCLE('',#1054,2.9999999999999);
#383=CIRCLE('',#1055,3.00000000000004);
#384=CIRCLE('',#1056,3.);
#385=CIRCLE('',#1057,2.99999999999999);
#386=CIRCLE('',#1058,1.);
#387=CIRCLE('',#1059,5.);
#388=CIRCLE('',#1069,1.);
#389=CIRCLE('',#1071,0.999999999999996);
#390=CIRCLE('',#1073,1.);
#391=CIRCLE('',#1074,3.);
#392=CIRCLE('',#1077,1.);
#393=CIRCLE('',#1080,1.);
#394=CIRCLE('',#1081,2.99999999999999);
#395=CIRCLE('',#1083,1.00000000000001);
#396=CIRCLE('',#1085,1.00000000000001);
#397=CIRCLE('',#1086,3.);
#398=CIRCLE('',#1088,1.00000000000001);
#399=CIRCLE('',#1090,0.999999977648258);
#400=CIRCLE('',#1091,3.00000000000004);
#401=CIRCLE('',#1093,0.999999999999943);
#402=CIRCLE('',#1095,1.);
#403=CIRCLE('',#1096,2.9999999999999);
#404=CIRCLE('',#1098,0.999999999999993);
#405=CIRCLE('',#1100,2.99999999999999);
#406=VERTEX_POINT('',#1440);
#407=VERTEX_POINT('',#1442);
#408=VERTEX_POINT('',#1447);
#409=VERTEX_POINT('',#1449);
#410=VERTEX_POINT('',#1454);
#411=VERTEX_POINT('',#1456);
#412=VERTEX_POINT('',#1461);
#413=VERTEX_POINT('',#1463);
#414=VERTEX_POINT('',#1468);
#415=VERTEX_POINT('',#1470);
#416=VERTEX_POINT('',#1475);
#417=VERTEX_POINT('',#1477);
#418=VERTEX_POINT('',#1482);
#419=VERTEX_POINT('',#1484);
#420=VERTEX_POINT('',#1489);
#421=VERTEX_POINT('',#1490);
#422=VERTEX_POINT('',#1492);
#423=VERTEX_POINT('',#1494);
#424=VERTEX_POINT('',#1498);
#425=VERTEX_POINT('',#1500);
#426=VERTEX_POINT('',#1504);
#427=VERTEX_POINT('',#1505);
#428=VERTEX_POINT('',#1507);
#429=VERTEX_POINT('',#1509);
#430=VERTEX_POINT('',#1511);
#431=VERTEX_POINT('',#1513);
#432=VERTEX_POINT('',#1515);
#433=VERTEX_POINT('',#1517);
#434=VERTEX_POINT('',#1519);
#435=VERTEX_POINT('',#1521);
#436=VERTEX_POINT('',#1523);
#437=VERTEX_POINT('',#1525);
#438=VERTEX_POINT('',#1527);
#439=VERTEX_POINT('',#1530);
#440=VERTEX_POINT('',#1532);
#441=VERTEX_POINT('',#1534);
#442=VERTEX_POINT('',#1536);
#443=VERTEX_POINT('',#1538);
#444=VERTEX_POINT('',#1542);
#445=VERTEX_POINT('',#1546);
#446=VERTEX_POINT('',#1547);
#447=VERTEX_POINT('',#1549);
#448=VERTEX_POINT('',#1551);
#449=VERTEX_POINT('',#1553);
#450=VERTEX_POINT('',#1555);
#451=VERTEX_POINT('',#1557);
#452=VERTEX_POINT('',#1559);
#453=VERTEX_POINT('',#1561);
#454=VERTEX_POINT('',#1563);
#455=VERTEX_POINT('',#1565);
#456=VERTEX_POINT('',#1567);
#457=VERTEX_POINT('',#1569);
#458=VERTEX_POINT('',#1571);
#459=VERTEX_POINT('',#1573);
#460=VERTEX_POINT('',#1575);
#461=VERTEX_POINT('',#1577);
#462=VERTEX_POINT('',#1579);
#463=VERTEX_POINT('',#1581);
#464=VERTEX_POINT('',#1583);
#465=VERTEX_POINT('',#1585);
#466=VERTEX_POINT('',#1588);
#467=VERTEX_POINT('',#1590);
#468=VERTEX_POINT('',#1592);
#469=VERTEX_POINT('',#1594);
#470=VERTEX_POINT('',#1602);
#471=VERTEX_POINT('',#1604);
#472=VERTEX_POINT('',#1608);
#473=VERTEX_POINT('',#1612);
#474=VERTEX_POINT('',#1616);
#475=VERTEX_POINT('',#1620);
#476=VERTEX_POINT('',#1626);
#477=VERTEX_POINT('',#1664);
#478=VERTEX_POINT('',#1668);
#479=VERTEX_POINT('',#1672);
#480=VERTEX_POINT('',#1676);
#481=VERTEX_POINT('',#1677);
#482=VERTEX_POINT('',#1679);
#483=VERTEX_POINT('',#1682);
#484=VERTEX_POINT('',#1684);
#485=VERTEX_POINT('',#1688);
#486=VERTEX_POINT('',#1692);
#487=VERTEX_POINT('',#1696);
#488=VERTEX_POINT('',#1700);
#489=VERTEX_POINT('',#1704);
#490=VERTEX_POINT('',#1708);
#491=VERTEX_POINT('',#1712);
#492=VERTEX_POINT('',#1716);
#493=EDGE_CURVE('',#406,#406,#354,.T.);
#494=EDGE_CURVE('',#406,#407,#192,.T.);
#495=EDGE_CURVE('',#407,#407,#355,.T.);
#496=EDGE_CURVE('',#408,#408,#356,.T.);
#497=EDGE_CURVE('',#408,#409,#193,.T.);
#498=EDGE_CURVE('',#409,#409,#357,.T.);
#499=EDGE_CURVE('',#410,#410,#358,.T.);
#500=EDGE_CURVE('',#410,#411,#194,.T.);
#501=EDGE_CURVE('',#411,#411,#359,.T.);
#502=EDGE_CURVE('',#412,#412,#360,.T.);
#503=EDGE_CURVE('',#412,#413,#195,.T.);
#504=EDGE_CURVE('',#413,#413,#361,.T.);
#505=EDGE_CURVE('',#414,#414,#362,.T.);
#506=EDGE_CURVE('',#414,#415,#196,.T.);
#507=EDGE_CURVE('',#415,#415,#363,.T.);
#508=EDGE_CURVE('',#416,#416,#364,.T.);
#509=EDGE_CURVE('',#416,#417,#197,.T.);
#510=EDGE_CURVE('',#417,#417,#365,.T.);
#511=EDGE_CURVE('',#418,#418,#366,.T.);
#512=EDGE_CURVE('',#418,#419,#198,.T.);
#513=EDGE_CURVE('',#419,#419,#367,.T.);
#514=EDGE_CURVE('',#420,#421,#368,.T.);
#515=EDGE_CURVE('',#421,#422,#199,.T.);
#516=EDGE_CURVE('',#422,#423,#369,.T.);
#517=EDGE_CURVE('',#423,#420,#200,.T.);
#518=EDGE_CURVE('',#424,#421,#370,.T.);
#519=EDGE_CURVE('',#425,#424,#201,.T.);
#520=EDGE_CURVE('',#425,#422,#371,.T.);
#521=EDGE_CURVE('',#426,#427,#202,.T.);
#522=EDGE_CURVE('',#428,#426,#203,.T.);
#523=EDGE_CURVE('',#429,#428,#372,.T.);
#524=EDGE_CURVE('',#430,#429,#204,.T.);
#525=EDGE_CURVE('',#431,#430,#373,.T.);
#526=EDGE_CURVE('',#432,#431,#205,.T.);
#527=EDGE_CURVE('',#433,#432,#374,.T.);
#528=EDGE_CURVE('',#434,#433,#206,.T.);
#529=EDGE_CURVE('',#435,#434,#375,.T.);
#530=EDGE_CURVE('',#436,#435,#207,.T.);
#531=EDGE_CURVE('',#437,#436,#376,.T.);
#532=EDGE_CURVE('',#438,#437,#208,.T.);
#533=EDGE_CURVE('',#427,#438,#377,.T.);
#534=EDGE_CURVE('',#420,#439,#209,.T.);
#535=EDGE_CURVE('',#439,#440,#210,.T.);
#536=EDGE_CURVE('',#440,#441,#211,.T.);
#537=EDGE_CURVE('',#441,#442,#212,.T.);
#538=EDGE_CURVE('',#443,#442,#378,.T.);
#539=EDGE_CURVE('',#424,#443,#213,.T.);
#540=EDGE_CURVE('',#423,#444,#214,.T.);
#541=EDGE_CURVE('',#444,#439,#215,.T.);
#542=EDGE_CURVE('',#445,#446,#216,.T.);
#543=EDGE_CURVE('',#445,#447,#217,.T.);
#544=EDGE_CURVE('',#448,#447,#379,.T.);
#545=EDGE_CURVE('',#448,#449,#218,.T.);
#546=EDGE_CURVE('',#449,#450,#380,.T.);
#547=EDGE_CURVE('',#451,#450,#219,.T.);
#548=EDGE_CURVE('',#451,#452,#220,.T.);
#549=EDGE_CURVE('',#453,#452,#381,.T.);
#550=EDGE_CURVE('',#453,#454,#221,.T.);
#551=EDGE_CURVE('',#455,#454,#382,.T.);
#552=EDGE_CURVE('',#456,#455,#222,.T.);
#553=EDGE_CURVE('',#457,#456,#383,.T.);
#554=EDGE_CURVE('',#457,#458,#223,.T.);
#555=EDGE_CURVE('',#459,#458,#384,.T.);
#556=EDGE_CURVE('',#459,#460,#224,.T.);
#557=EDGE_CURVE('',#461,#460,#385,.T.);
#558=EDGE_CURVE('',#461,#462,#225,.T.);
#559=EDGE_CURVE('',#463,#462,#386,.T.);
#560=EDGE_CURVE('',#463,#464,#226,.T.);
#561=EDGE_CURVE('',#464,#465,#227,.T.);
#562=EDGE_CURVE('',#465,#446,#228,.T.);
#563=EDGE_CURVE('',#466,#425,#229,.T.);
#564=EDGE_CURVE('',#467,#466,#387,.T.);
#565=EDGE_CURVE('',#468,#467,#230,.T.);
#566=EDGE_CURVE('',#469,#468,#231,.T.);
#567=EDGE_CURVE('',#444,#469,#232,.T.);
#568=EDGE_CURVE('',#466,#443,#233,.T.);
#569=EDGE_CURVE('',#442,#467,#234,.T.);
#570=EDGE_CURVE('',#470,#446,#235,.T.);
#571=EDGE_CURVE('',#465,#471,#236,.T.);
#572=EDGE_CURVE('',#471,#470,#237,.T.);
#573=EDGE_CURVE('',#445,#472,#238,.T.);
#574=EDGE_CURVE('',#472,#470,#239,.T.);
#575=EDGE_CURVE('',#464,#473,#240,.T.);
#576=EDGE_CURVE('',#473,#471,#241,.T.);
#577=EDGE_CURVE('',#474,#472,#242,.T.);
#578=EDGE_CURVE('',#447,#474,#243,.T.);
#579=EDGE_CURVE('',#475,#473,#244,.T.);
#580=EDGE_CURVE('',#474,#475,#245,.T.);
#581=EDGE_CURVE('',#475,#463,#246,.T.);
#582=EDGE_CURVE('',#476,#426,#25,.T.);
#583=EDGE_CURVE('',#427,#477,#388,.T.);
#584=EDGE_CURVE('',#477,#476,#247,.T.);
#585=EDGE_CURVE('',#476,#478,#248,.T.);
#586=EDGE_CURVE('',#478,#428,#389,.T.);
#587=EDGE_CURVE('',#479,#429,#390,.T.);
#588=EDGE_CURVE('',#478,#479,#391,.T.);
#589=EDGE_CURVE('',#480,#481,#15,.T.);
#590=EDGE_CURVE('',#481,#482,#249,.T.);
#591=EDGE_CURVE('',#482,#430,#392,.T.);
#592=EDGE_CURVE('',#479,#483,#250,.T.);
#593=EDGE_CURVE('',#483,#484,#16,.T.);
#594=EDGE_CURVE('',#484,#480,#251,.T.);
#595=EDGE_CURVE('',#485,#431,#393,.T.);
#596=EDGE_CURVE('',#482,#485,#394,.T.);
#597=EDGE_CURVE('',#486,#432,#395,.T.);
#598=EDGE_CURVE('',#485,#486,#252,.T.);
#599=EDGE_CURVE('',#487,#433,#396,.T.);
#600=EDGE_CURVE('',#486,#487,#397,.T.);
#601=EDGE_CURVE('',#488,#434,#398,.T.);
#602=EDGE_CURVE('',#487,#488,#253,.T.);
#603=EDGE_CURVE('',#489,#435,#399,.T.);
#604=EDGE_CURVE('',#488,#489,#400,.T.);
#605=EDGE_CURVE('',#490,#436,#401,.T.);
#606=EDGE_CURVE('',#489,#490,#254,.T.);
#607=EDGE_CURVE('',#491,#437,#402,.T.);
#608=EDGE_CURVE('',#490,#491,#403,.T.);
#609=EDGE_CURVE('',#492,#438,#404,.T.);
#610=EDGE_CURVE('',#491,#492,#255,.T.);
#611=EDGE_CURVE('',#492,#477,#405,.T.);
#612=EDGE_CURVE('',#455,#490,#256,.T.);
#613=EDGE_CURVE('',#454,#491,#257,.T.);
#614=EDGE_CURVE('',#456,#489,#258,.T.);
#615=EDGE_CURVE('',#457,#488,#259,.T.);
#616=EDGE_CURVE('',#458,#487,#260,.T.);
#617=EDGE_CURVE('',#459,#486,#261,.T.);
#618=EDGE_CURVE('',#460,#485,#262,.T.);
#619=EDGE_CURVE('',#461,#482,#263,.T.);
#620=EDGE_CURVE('',#462,#481,#264,.T.);
#621=EDGE_CURVE('',#480,#475,#17,.T.);
#622=EDGE_CURVE('',#484,#474,#18,.T.);
#623=EDGE_CURVE('',#483,#448,#265,.T.);
#624=EDGE_CURVE('',#449,#479,#266,.T.);
#625=EDGE_CURVE('',#468,#441,#267,.T.);
#626=EDGE_CURVE('',#469,#440,#268,.T.);
#627=EDGE_CURVE('',#450,#478,#269,.T.);
#628=EDGE_CURVE('',#451,#476,#270,.T.);
#629=EDGE_CURVE('',#452,#477,#271,.T.);
#630=EDGE_CURVE('',#453,#492,#272,.T.);
#631=ORIENTED_EDGE('',*,*,#493,.F.);
#632=ORIENTED_EDGE('',*,*,#494,.T.);
#633=ORIENTED_EDGE('',*,*,#495,.T.);
#634=ORIENTED_EDGE('',*,*,#494,.F.);
#635=ORIENTED_EDGE('',*,*,#495,.F.);
#636=ORIENTED_EDGE('',*,*,#496,.F.);
#637=ORIENTED_EDGE('',*,*,#497,.T.);
#638=ORIENTED_EDGE('',*,*,#498,.T.);
#639=ORIENTED_EDGE('',*,*,#497,.F.);
#640=ORIENTED_EDGE('',*,*,#498,.F.);
#641=ORIENTED_EDGE('',*,*,#499,.F.);
#642=ORIENTED_EDGE('',*,*,#500,.T.);
#643=ORIENTED_EDGE('',*,*,#501,.T.);
#644=ORIENTED_EDGE('',*,*,#500,.F.);
#645=ORIENTED_EDGE('',*,*,#501,.F.);
#646=ORIENTED_EDGE('',*,*,#502,.F.);
#647=ORIENTED_EDGE('',*,*,#503,.T.);
#648=ORIENTED_EDGE('',*,*,#504,.T.);
#649=ORIENTED_EDGE('',*,*,#503,.F.);
#650=ORIENTED_EDGE('',*,*,#504,.F.);
#651=ORIENTED_EDGE('',*,*,#505,.F.);
#652=ORIENTED_EDGE('',*,*,#506,.T.);
#653=ORIENTED_EDGE('',*,*,#507,.T.);
#654=ORIENTED_EDGE('',*,*,#506,.F.);
#655=ORIENTED_EDGE('',*,*,#507,.F.);
#656=ORIENTED_EDGE('',*,*,#508,.F.);
#657=ORIENTED_EDGE('',*,*,#509,.T.);
#658=ORIENTED_EDGE('',*,*,#510,.T.);
#659=ORIENTED_EDGE('',*,*,#509,.F.);
#660=ORIENTED_EDGE('',*,*,#510,.F.);
#661=ORIENTED_EDGE('',*,*,#511,.F.);
#662=ORIENTED_EDGE('',*,*,#512,.T.);
#663=ORIENTED_EDGE('',*,*,#513,.T.);
#664=ORIENTED_EDGE('',*,*,#512,.F.);
#665=ORIENTED_EDGE('',*,*,#513,.F.);
#666=ORIENTED_EDGE('',*,*,#514,.T.);
#667=ORIENTED_EDGE('',*,*,#515,.T.);
#668=ORIENTED_EDGE('',*,*,#516,.T.);
#669=ORIENTED_EDGE('',*,*,#517,.T.);
#670=ORIENTED_EDGE('',*,*,#515,.F.);
#671=ORIENTED_EDGE('',*,*,#518,.F.);
#672=ORIENTED_EDGE('',*,*,#519,.F.);
#673=ORIENTED_EDGE('',*,*,#520,.T.);
#674=ORIENTED_EDGE('',*,*,#521,.F.);
#675=ORIENTED_EDGE('',*,*,#522,.F.);
#676=ORIENTED_EDGE('',*,*,#523,.F.);
#677=ORIENTED_EDGE('',*,*,#524,.F.);
#678=ORIENTED_EDGE('',*,*,#525,.F.);
#679=ORIENTED_EDGE('',*,*,#526,.F.);
#680=ORIENTED_EDGE('',*,*,#527,.F.);
#681=ORIENTED_EDGE('',*,*,#528,.F.);
#682=ORIENTED_EDGE('',*,*,#529,.F.);
#683=ORIENTED_EDGE('',*,*,#530,.F.);
#684=ORIENTED_EDGE('',*,*,#531,.F.);
#685=ORIENTED_EDGE('',*,*,#532,.F.);
#686=ORIENTED_EDGE('',*,*,#533,.F.);
#687=ORIENTED_EDGE('',*,*,#534,.T.);
#688=ORIENTED_EDGE('',*,*,#535,.T.);
#689=ORIENTED_EDGE('',*,*,#536,.T.);
#690=ORIENTED_EDGE('',*,*,#537,.T.);
#691=ORIENTED_EDGE('',*,*,#538,.F.);
#692=ORIENTED_EDGE('',*,*,#539,.F.);
#693=ORIENTED_EDGE('',*,*,#518,.T.);
#694=ORIENTED_EDGE('',*,*,#514,.F.);
#695=ORIENTED_EDGE('',*,*,#517,.F.);
#696=ORIENTED_EDGE('',*,*,#540,.T.);
#697=ORIENTED_EDGE('',*,*,#541,.T.);
#698=ORIENTED_EDGE('',*,*,#534,.F.);
#699=ORIENTED_EDGE('',*,*,#542,.F.);
#700=ORIENTED_EDGE('',*,*,#543,.T.);
#701=ORIENTED_EDGE('',*,*,#544,.F.);
#702=ORIENTED_EDGE('',*,*,#545,.T.);
#703=ORIENTED_EDGE('',*,*,#546,.T.);
#704=ORIENTED_EDGE('',*,*,#547,.F.);
#705=ORIENTED_EDGE('',*,*,#548,.T.);
#706=ORIENTED_EDGE('',*,*,#549,.F.);
#707=ORIENTED_EDGE('',*,*,#550,.T.);
#708=ORIENTED_EDGE('',*,*,#551,.F.);
#709=ORIENTED_EDGE('',*,*,#552,.F.);
#710=ORIENTED_EDGE('',*,*,#553,.F.);
#711=ORIENTED_EDGE('',*,*,#554,.T.);
#712=ORIENTED_EDGE('',*,*,#555,.F.);
#713=ORIENTED_EDGE('',*,*,#556,.T.);
#714=ORIENTED_EDGE('',*,*,#557,.F.);
#715=ORIENTED_EDGE('',*,*,#558,.T.);
#716=ORIENTED_EDGE('',*,*,#559,.F.);
#717=ORIENTED_EDGE('',*,*,#560,.T.);
#718=ORIENTED_EDGE('',*,*,#561,.T.);
#719=ORIENTED_EDGE('',*,*,#562,.T.);
#720=ORIENTED_EDGE('',*,*,#493,.T.);
#721=ORIENTED_EDGE('',*,*,#496,.T.);
#722=ORIENTED_EDGE('',*,*,#499,.T.);
#723=ORIENTED_EDGE('',*,*,#502,.T.);
#724=ORIENTED_EDGE('',*,*,#505,.T.);
#725=ORIENTED_EDGE('',*,*,#508,.T.);
#726=ORIENTED_EDGE('',*,*,#511,.T.);
#727=ORIENTED_EDGE('',*,*,#563,.F.);
#728=ORIENTED_EDGE('',*,*,#564,.F.);
#729=ORIENTED_EDGE('',*,*,#565,.F.);
#730=ORIENTED_EDGE('',*,*,#566,.F.);
#731=ORIENTED_EDGE('',*,*,#567,.F.);
#732=ORIENTED_EDGE('',*,*,#540,.F.);
#733=ORIENTED_EDGE('',*,*,#516,.F.);
#734=ORIENTED_EDGE('',*,*,#520,.F.);
#735=ORIENTED_EDGE('',*,*,#519,.T.);
#736=ORIENTED_EDGE('',*,*,#539,.T.);
#737=ORIENTED_EDGE('',*,*,#568,.F.);
#738=ORIENTED_EDGE('',*,*,#563,.T.);
#739=ORIENTED_EDGE('',*,*,#564,.T.);
#740=ORIENTED_EDGE('',*,*,#568,.T.);
#741=ORIENTED_EDGE('',*,*,#538,.T.);
#742=ORIENTED_EDGE('',*,*,#569,.T.);
#743=ORIENTED_EDGE('',*,*,#570,.T.);
#744=ORIENTED_EDGE('',*,*,#562,.F.);
#745=ORIENTED_EDGE('',*,*,#571,.T.);
#746=ORIENTED_EDGE('',*,*,#572,.T.);
#747=ORIENTED_EDGE('',*,*,#573,.F.);
#748=ORIENTED_EDGE('',*,*,#542,.T.);
#749=ORIENTED_EDGE('',*,*,#570,.F.);
#750=ORIENTED_EDGE('',*,*,#574,.F.);
#751=ORIENTED_EDGE('',*,*,#575,.T.);
#752=ORIENTED_EDGE('',*,*,#576,.T.);
#753=ORIENTED_EDGE('',*,*,#571,.F.);
#754=ORIENTED_EDGE('',*,*,#561,.F.);
#755=ORIENTED_EDGE('',*,*,#573,.T.);
#756=ORIENTED_EDGE('',*,*,#577,.F.);
#757=ORIENTED_EDGE('',*,*,#578,.F.);
#758=ORIENTED_EDGE('',*,*,#543,.F.);
#759=ORIENTED_EDGE('',*,*,#577,.T.);
#760=ORIENTED_EDGE('',*,*,#574,.T.);
#761=ORIENTED_EDGE('',*,*,#572,.F.);
#762=ORIENTED_EDGE('',*,*,#576,.F.);
#763=ORIENTED_EDGE('',*,*,#579,.F.);
#764=ORIENTED_EDGE('',*,*,#580,.F.);
#765=ORIENTED_EDGE('',*,*,#579,.T.);
#766=ORIENTED_EDGE('',*,*,#575,.F.);
#767=ORIENTED_EDGE('',*,*,#560,.F.);
#768=ORIENTED_EDGE('',*,*,#581,.F.);
#769=ORIENTED_EDGE('',*,*,#582,.T.);
#770=ORIENTED_EDGE('',*,*,#521,.T.);
#771=ORIENTED_EDGE('',*,*,#583,.T.);
#772=ORIENTED_EDGE('',*,*,#584,.T.);
#773=ORIENTED_EDGE('',*,*,#582,.F.);
#774=ORIENTED_EDGE('',*,*,#585,.T.);
#775=ORIENTED_EDGE('',*,*,#586,.T.);
#776=ORIENTED_EDGE('',*,*,#522,.T.);
#777=ORIENTED_EDGE('',*,*,#587,.T.);
#778=ORIENTED_EDGE('',*,*,#523,.T.);
#779=ORIENTED_EDGE('',*,*,#586,.F.);
#780=ORIENTED_EDGE('',*,*,#588,.T.);
#781=ORIENTED_EDGE('',*,*,#589,.T.);
#782=ORIENTED_EDGE('',*,*,#590,.T.);
#783=ORIENTED_EDGE('',*,*,#591,.T.);
#784=ORIENTED_EDGE('',*,*,#524,.T.);
#785=ORIENTED_EDGE('',*,*,#587,.F.);
#786=ORIENTED_EDGE('',*,*,#592,.T.);
#787=ORIENTED_EDGE('',*,*,#593,.T.);
#788=ORIENTED_EDGE('',*,*,#594,.T.);
#789=ORIENTED_EDGE('',*,*,#595,.T.);
#790=ORIENTED_EDGE('',*,*,#525,.T.);
#791=ORIENTED_EDGE('',*,*,#591,.F.);
#792=ORIENTED_EDGE('',*,*,#596,.T.);
#793=ORIENTED_EDGE('',*,*,#597,.T.);
#794=ORIENTED_EDGE('',*,*,#526,.T.);
#795=ORIENTED_EDGE('',*,*,#595,.F.);
#796=ORIENTED_EDGE('',*,*,#598,.T.);
#797=ORIENTED_EDGE('',*,*,#599,.T.);
#798=ORIENTED_EDGE('',*,*,#527,.T.);
#799=ORIENTED_EDGE('',*,*,#597,.F.);
#800=ORIENTED_EDGE('',*,*,#600,.T.);
#801=ORIENTED_EDGE('',*,*,#601,.T.);
#802=ORIENTED_EDGE('',*,*,#528,.T.);
#803=ORIENTED_EDGE('',*,*,#599,.F.);
#804=ORIENTED_EDGE('',*,*,#602,.T.);
#805=ORIENTED_EDGE('',*,*,#603,.T.);
#806=ORIENTED_EDGE('',*,*,#529,.T.);
#807=ORIENTED_EDGE('',*,*,#601,.F.);
#808=ORIENTED_EDGE('',*,*,#604,.T.);
#809=ORIENTED_EDGE('',*,*,#605,.T.);
#810=ORIENTED_EDGE('',*,*,#530,.T.);
#811=ORIENTED_EDGE('',*,*,#603,.F.);
#812=ORIENTED_EDGE('',*,*,#606,.T.);
#813=ORIENTED_EDGE('',*,*,#607,.T.);
#814=ORIENTED_EDGE('',*,*,#531,.T.);
#815=ORIENTED_EDGE('',*,*,#605,.F.);
#816=ORIENTED_EDGE('',*,*,#608,.T.);
#817=ORIENTED_EDGE('',*,*,#609,.T.);
#818=ORIENTED_EDGE('',*,*,#532,.T.);
#819=ORIENTED_EDGE('',*,*,#607,.F.);
#820=ORIENTED_EDGE('',*,*,#610,.T.);
#821=ORIENTED_EDGE('',*,*,#583,.F.);
#822=ORIENTED_EDGE('',*,*,#533,.T.);
#823=ORIENTED_EDGE('',*,*,#609,.F.);
#824=ORIENTED_EDGE('',*,*,#611,.T.);
#825=ORIENTED_EDGE('',*,*,#608,.F.);
#826=ORIENTED_EDGE('',*,*,#612,.F.);
#827=ORIENTED_EDGE('',*,*,#551,.T.);
#828=ORIENTED_EDGE('',*,*,#613,.T.);
#829=ORIENTED_EDGE('',*,*,#606,.F.);
#830=ORIENTED_EDGE('',*,*,#614,.F.);
#831=ORIENTED_EDGE('',*,*,#552,.T.);
#832=ORIENTED_EDGE('',*,*,#612,.T.);
#833=ORIENTED_EDGE('',*,*,#604,.F.);
#834=ORIENTED_EDGE('',*,*,#615,.F.);
#835=ORIENTED_EDGE('',*,*,#553,.T.);
#836=ORIENTED_EDGE('',*,*,#614,.T.);
#837=ORIENTED_EDGE('',*,*,#602,.F.);
#838=ORIENTED_EDGE('',*,*,#616,.F.);
#839=ORIENTED_EDGE('',*,*,#554,.F.);
#840=ORIENTED_EDGE('',*,*,#615,.T.);
#841=ORIENTED_EDGE('',*,*,#600,.F.);
#842=ORIENTED_EDGE('',*,*,#617,.F.);
#843=ORIENTED_EDGE('',*,*,#555,.T.);
#844=ORIENTED_EDGE('',*,*,#616,.T.);
#845=ORIENTED_EDGE('',*,*,#598,.F.);
#846=ORIENTED_EDGE('',*,*,#618,.F.);
#847=ORIENTED_EDGE('',*,*,#556,.F.);
#848=ORIENTED_EDGE('',*,*,#617,.T.);
#849=ORIENTED_EDGE('',*,*,#596,.F.);
#850=ORIENTED_EDGE('',*,*,#619,.F.);
#851=ORIENTED_EDGE('',*,*,#557,.T.);
#852=ORIENTED_EDGE('',*,*,#618,.T.);
#853=ORIENTED_EDGE('',*,*,#590,.F.);
#854=ORIENTED_EDGE('',*,*,#620,.F.);
#855=ORIENTED_EDGE('',*,*,#558,.F.);
#856=ORIENTED_EDGE('',*,*,#619,.T.);
#857=ORIENTED_EDGE('',*,*,#589,.F.);
#858=ORIENTED_EDGE('',*,*,#621,.T.);
#859=ORIENTED_EDGE('',*,*,#581,.T.);
#860=ORIENTED_EDGE('',*,*,#559,.T.);
#861=ORIENTED_EDGE('',*,*,#620,.T.);
#862=ORIENTED_EDGE('',*,*,#594,.F.);
#863=ORIENTED_EDGE('',*,*,#622,.T.);
#864=ORIENTED_EDGE('',*,*,#580,.T.);
#865=ORIENTED_EDGE('',*,*,#621,.F.);
#866=ORIENTED_EDGE('',*,*,#593,.F.);
#867=ORIENTED_EDGE('',*,*,#623,.T.);
#868=ORIENTED_EDGE('',*,*,#544,.T.);
#869=ORIENTED_EDGE('',*,*,#578,.T.);
#870=ORIENTED_EDGE('',*,*,#622,.F.);
#871=ORIENTED_EDGE('',*,*,#592,.F.);
#872=ORIENTED_EDGE('',*,*,#624,.F.);
#873=ORIENTED_EDGE('',*,*,#545,.F.);
#874=ORIENTED_EDGE('',*,*,#623,.F.);
#875=ORIENTED_EDGE('',*,*,#569,.F.);
#876=ORIENTED_EDGE('',*,*,#537,.F.);
#877=ORIENTED_EDGE('',*,*,#625,.F.);
#878=ORIENTED_EDGE('',*,*,#565,.T.);
#879=ORIENTED_EDGE('',*,*,#566,.T.);
#880=ORIENTED_EDGE('',*,*,#625,.T.);
#881=ORIENTED_EDGE('',*,*,#536,.F.);
#882=ORIENTED_EDGE('',*,*,#626,.F.);
#883=ORIENTED_EDGE('',*,*,#567,.T.);
#884=ORIENTED_EDGE('',*,*,#626,.T.);
#885=ORIENTED_EDGE('',*,*,#535,.F.);
#886=ORIENTED_EDGE('',*,*,#541,.F.);
#887=ORIENTED_EDGE('',*,*,#588,.F.);
#888=ORIENTED_EDGE('',*,*,#627,.F.);
#889=ORIENTED_EDGE('',*,*,#546,.F.);
#890=ORIENTED_EDGE('',*,*,#624,.T.);
#891=ORIENTED_EDGE('',*,*,#585,.F.);
#892=ORIENTED_EDGE('',*,*,#628,.F.);
#893=ORIENTED_EDGE('',*,*,#547,.T.);
#894=ORIENTED_EDGE('',*,*,#627,.T.);
#895=ORIENTED_EDGE('',*,*,#584,.F.);
#896=ORIENTED_EDGE('',*,*,#629,.F.);
#897=ORIENTED_EDGE('',*,*,#548,.F.);
#898=ORIENTED_EDGE('',*,*,#628,.T.);
#899=ORIENTED_EDGE('',*,*,#611,.F.);
#900=ORIENTED_EDGE('',*,*,#630,.F.);
#901=ORIENTED_EDGE('',*,*,#549,.T.);
#902=ORIENTED_EDGE('',*,*,#629,.T.);
#903=ORIENTED_EDGE('',*,*,#610,.F.);
#904=ORIENTED_EDGE('',*,*,#613,.F.);
#905=ORIENTED_EDGE('',*,*,#550,.F.);
#906=ORIENTED_EDGE('',*,*,#630,.T.);
#907=CYLINDRICAL_SURFACE('',#1007,1.6);
#908=CYLINDRICAL_SURFACE('',#1011,1.6);
#909=CYLINDRICAL_SURFACE('',#1015,1.6);
#910=CYLINDRICAL_SURFACE('',#1019,1.6);
#911=CYLINDRICAL_SURFACE('',#1023,1.6);
#912=CYLINDRICAL_SURFACE('',#1027,1.6);
#913=CYLINDRICAL_SURFACE('',#1031,1.6);
#914=CYLINDRICAL_SURFACE('',#1035,5.);
#915=CYLINDRICAL_SURFACE('',#1038,22.5);
#916=CYLINDRICAL_SURFACE('',#1061,5.);
#917=CYLINDRICAL_SURFACE('',#1068,1.);
#918=CYLINDRICAL_SURFACE('',#1070,1.);
#919=CYLINDRICAL_SURFACE('',#1075,1.);
#920=CYLINDRICAL_SURFACE('',#1082,1.);
#921=CYLINDRICAL_SURFACE('',#1087,1.);
#922=CYLINDRICAL_SURFACE('',#1092,1.);
#923=CYLINDRICAL_SURFACE('',#1097,1.);
#924=CYLINDRICAL_SURFACE('',#1101,2.9999999999999);
#925=CYLINDRICAL_SURFACE('',#1103,3.00000000000004);
#926=CYLINDRICAL_SURFACE('',#1105,3.);
#927=CYLINDRICAL_SURFACE('',#1107,2.99999999999999);
#928=CYLINDRICAL_SURFACE('',#1109,1.);
#929=CYLINDRICAL_SURFACE('',#1111,1.);
#930=CYLINDRICAL_SURFACE('',#1113,1.);
#931=CYLINDRICAL_SURFACE('',#1118,3.);
#932=CYLINDRICAL_SURFACE('',#1121,2.99999999999999);
#933=ADVANCED_FACE('',(#63),#907,.F.);
#934=ADVANCED_FACE('',(#64),#35,.F.);
#935=ADVANCED_FACE('',(#65),#908,.F.);
#936=ADVANCED_FACE('',(#66),#36,.F.);
#937=ADVANCED_FACE('',(#67),#909,.F.);
#938=ADVANCED_FACE('',(#68),#37,.F.);
#939=ADVANCED_FACE('',(#69),#910,.F.);
#940=ADVANCED_FACE('',(#70),#38,.F.);
#941=ADVANCED_FACE('',(#71),#911,.F.);
#942=ADVANCED_FACE('',(#72),#39,.F.);
#943=ADVANCED_FACE('',(#73),#912,.F.);
#944=ADVANCED_FACE('',(#74),#40,.F.);
#945=ADVANCED_FACE('',(#75),#913,.F.);
#946=ADVANCED_FACE('',(#76),#41,.F.);
#947=ADVANCED_FACE('',(#77),#914,.F.);
#948=ADVANCED_FACE('',(#78),#915,.T.);
#949=ADVANCED_FACE('',(#79,#26),#42,.T.);
#950=ADVANCED_FACE('',(#80),#43,.T.);
#951=ADVANCED_FACE('',(#81,#27,#28,#29,#30,#31,#32,#33,#34),#44,.F.);
#952=ADVANCED_FACE('',(#82),#45,.T.);
#953=ADVANCED_FACE('',(#83),#916,.F.);
#954=ADVANCED_FACE('',(#84),#46,.F.);
#955=ADVANCED_FACE('',(#85),#47,.T.);
#956=ADVANCED_FACE('',(#86),#48,.T.);
#957=ADVANCED_FACE('',(#87),#49,.F.);
#958=ADVANCED_FACE('',(#88),#50,.F.);
#959=ADVANCED_FACE('',(#89),#51,.F.);
#960=ADVANCED_FACE('',(#90),#917,.T.);
#961=ADVANCED_FACE('',(#91),#918,.T.);
#962=ADVANCED_FACE('',(#92),#19,.T.);
#963=ADVANCED_FACE('',(#93),#919,.T.);
#964=ADVANCED_FACE('',(#94),#20,.T.);
#965=ADVANCED_FACE('',(#95),#920,.T.);
#966=ADVANCED_FACE('',(#96),#21,.T.);
#967=ADVANCED_FACE('',(#97),#921,.T.);
#968=ADVANCED_FACE('',(#98),#22,.T.);
#969=ADVANCED_FACE('',(#99),#922,.T.);
#970=ADVANCED_FACE('',(#100),#23,.T.);
#971=ADVANCED_FACE('',(#101),#923,.T.);
#972=ADVANCED_FACE('',(#102),#24,.T.);
#973=ADVANCED_FACE('',(#103),#924,.T.);
#974=ADVANCED_FACE('',(#104),#52,.T.);
#975=ADVANCED_FACE('',(#105),#925,.T.);
#976=ADVANCED_FACE('',(#106),#53,.T.);
#977=ADVANCED_FACE('',(#107),#926,.T.);
#978=ADVANCED_FACE('',(#108),#54,.T.);
#979=ADVANCED_FACE('',(#109),#927,.T.);
#980=ADVANCED_FACE('',(#110),#55,.T.);
#981=ADVANCED_FACE('',(#111),#928,.T.);
#982=ADVANCED_FACE('',(#112),#929,.T.);
#983=ADVANCED_FACE('',(#113),#930,.T.);
#984=ADVANCED_FACE('',(#114),#56,.T.);
#985=ADVANCED_FACE('',(#115),#57,.T.);
#986=ADVANCED_FACE('',(#116),#58,.T.);
#987=ADVANCED_FACE('',(#117),#59,.T.);
#988=ADVANCED_FACE('',(#118),#931,.F.);
#989=ADVANCED_FACE('',(#119),#60,.T.);
#990=ADVANCED_FACE('',(#120),#61,.T.);
#991=ADVANCED_FACE('',(#121),#932,.T.);
#992=ADVANCED_FACE('',(#122),#62,.T.);
#993=CLOSED_SHELL('',(#933,#934,#935,#936,#937,#938,#939,#940,#941,#942,
#943,#944,#945,#946,#947,#948,#949,#950,#951,#952,#953,#954,#955,#956,#957,
#958,#959,#960,#961,#962,#963,#964,#965,#966,#967,#968,#969,#970,#971,#972,
#973,#974,#975,#976,#977,#978,#979,#980,#981,#982,#983,#984,#985,#986,#987,
#988,#989,#990,#991,#992));
#994=DERIVED_UNIT_ELEMENT(#996,1.);
#995=DERIVED_UNIT_ELEMENT(#1765,-3.);
#996=(
MASS_UNIT()
NAMED_UNIT(*)
SI_UNIT(.KILO.,.GRAM.)
);
#997=DERIVED_UNIT((#994,#995));
#998=MEASURE_REPRESENTATION_ITEM('density measure',
POSITIVE_RATIO_MEASURE(7850.),#997);
#999=PROPERTY_DEFINITION_REPRESENTATION(#1004,#1001);
#1000=PROPERTY_DEFINITION_REPRESENTATION(#1005,#1002);
#1001=REPRESENTATION('material name',(#1003),#1762);
#1002=REPRESENTATION('density',(#998),#1762);
#1003=DESCRIPTIVE_REPRESENTATION_ITEM('Steel','Steel');
#1004=PROPERTY_DEFINITION('material property','material name',#1772);
#1005=PROPERTY_DEFINITION('material property','density of part',#1772);
#1006=AXIS2_PLACEMENT_3D('',#1438,#1123,#1124);
#1007=AXIS2_PLACEMENT_3D('',#1439,#1125,#1126);
#1008=AXIS2_PLACEMENT_3D('',#1441,#1127,#1128);
#1009=AXIS2_PLACEMENT_3D('',#1444,#1130,#1131);
#1010=AXIS2_PLACEMENT_3D('',#1445,#1132,#1133);
#1011=AXIS2_PLACEMENT_3D('',#1446,#1134,#1135);
#1012=AXIS2_PLACEMENT_3D('',#1448,#1136,#1137);
#1013=AXIS2_PLACEMENT_3D('',#1451,#1139,#1140);
#1014=AXIS2_PLACEMENT_3D('',#1452,#1141,#1142);
#1015=AXIS2_PLACEMENT_3D('',#1453,#1143,#1144);
#1016=AXIS2_PLACEMENT_3D('',#1455,#1145,#1146);
#1017=AXIS2_PLACEMENT_3D('',#1458,#1148,#1149);
#1018=AXIS2_PLACEMENT_3D('',#1459,#1150,#1151);
#1019=AXIS2_PLACEMENT_3D('',#1460,#1152,#1153);
#1020=AXIS2_PLACEMENT_3D('',#1462,#1154,#1155);
#1021=AXIS2_PLACEMENT_3D('',#1465,#1157,#1158);
#1022=AXIS2_PLACEMENT_3D('',#1466,#1159,#1160);
#1023=AXIS2_PLACEMENT_3D('',#1467,#1161,#1162);
#1024=AXIS2_PLACEMENT_3D('',#1469,#1163,#1164);
#1025=AXIS2_PLACEMENT_3D('',#1472,#1166,#1167);
#1026=AXIS2_PLACEMENT_3D('',#1473,#1168,#1169);
#1027=AXIS2_PLACEMENT_3D('',#1474,#1170,#1171);
#1028=AXIS2_PLACEMENT_3D('',#1476,#1172,#1173);
#1029=AXIS2_PLACEMENT_3D('',#1479,#1175,#1176);
#1030=AXIS2_PLACEMENT_3D('',#1480,#1177,#1178);
#1031=AXIS2_PLACEMENT_3D('',#1481,#1179,#1180);
#1032=AXIS2_PLACEMENT_3D('',#1483,#1181,#1182);
#1033=AXIS2_PLACEMENT_3D('',#1486,#1184,#1185);
#1034=AXIS2_PLACEMENT_3D('',#1487,#1186,#1187);
#1035=AXIS2_PLACEMENT_3D('',#1488,#1188,#1189);
#1036=AXIS2_PLACEMENT_3D('',#1491,#1190,#1191);
#1037=AXIS2_PLACEMENT_3D('',#1495,#1193,#1194);
#1038=AXIS2_PLACEMENT_3D('',#1497,#1196,#1197);
#1039=AXIS2_PLACEMENT_3D('',#1499,#1198,#1199);
#1040=AXIS2_PLACEMENT_3D('',#1502,#1201,#1202);
#1041=AXIS2_PLACEMENT_3D('',#1503,#1203,#1204);
#1042=AXIS2_PLACEMENT_3D('',#1510,#1207,#1208);
#1043=AXIS2_PLACEMENT_3D('',#1514,#1210,#1211);
#1044=AXIS2_PLACEMENT_3D('',#1518,#1213,#1214);
#1045=AXIS2_PLACEMENT_3D('',#1522,#1216,#1217);
#1046=AXIS2_PLACEMENT_3D('',#1526,#1219,#1220);
#1047=AXIS2_PLACEMENT_3D('',#1529,#1222,#1223);
#1048=AXIS2_PLACEMENT_3D('',#1539,#1228,#1229);
#1049=AXIS2_PLACEMENT_3D('',#1541,#1231,#1232);
#1050=AXIS2_PLACEMENT_3D('',#1545,#1235,#1236);
#1051=AXIS2_PLACEMENT_3D('',#1552,#1239,#1240);
#1052=AXIS2_PLACEMENT_3D('',#1556,#1242,#1243);
#1053=AXIS2_PLACEMENT_3D('',#1562,#1246,#1247);
#1054=AXIS2_PLACEMENT_3D('',#1566,#1249,#1250);
#1055=AXIS2_PLACEMENT_3D('',#1570,#1252,#1253);
#1056=AXIS2_PLACEMENT_3D('',#1574,#1255,#1256);
#1057=AXIS2_PLACEMENT_3D('',#1578,#1258,#1259);
#1058=AXIS2_PLACEMENT_3D('',#1582,#1261,#1262);
#1059=AXIS2_PLACEMENT_3D('',#1591,#1267,#1268);
#1060=AXIS2_PLACEMENT_3D('',#1597,#1272,#1273);
#1061=AXIS2_PLACEMENT_3D('',#1599,#1275,#1276);
#1062=AXIS2_PLACEMENT_3D('',#1601,#1278,#1279);
#1063=AXIS2_PLACEMENT_3D('',#1607,#1283,#1284);
#1064=AXIS2_PLACEMENT_3D('',#1611,#1287,#1288);
#1065=AXIS2_PLACEMENT_3D('',#1615,#1291,#1292);
#1066=AXIS2_PLACEMENT_3D('',#1619,#1295,#1296);
#1067=AXIS2_PLACEMENT_3D('',#1623,#1299,#1300);
#1068=AXIS2_PLACEMENT_3D('',#1625,#1302,#1303);
#1069=AXIS2_PLACEMENT_3D('',#1665,#1304,#1305);
#1070=AXIS2_PLACEMENT_3D('',#1667,#1307,#1308);
#1071=AXIS2_PLACEMENT_3D('',#1670,#1310,#1311);
#1072=AXIS2_PLACEMENT_3D('',#1671,#1312,#1313);
#1073=AXIS2_PLACEMENT_3D('',#1673,#1314,#1315);
#1074=AXIS2_PLACEMENT_3D('',#1674,#1316,#1317);
#1075=AXIS2_PLACEMENT_3D('',#1675,#1318,#1319);
#1076=AXIS2_PLACEMENT_3D('',#1678,#1320,#1321);
#1077=AXIS2_PLACEMENT_3D('',#1681,#1323,#1324);
#1078=AXIS2_PLACEMENT_3D('',#1685,#1326,#1327);
#1079=AXIS2_PLACEMENT_3D('',#1687,#1329,#1330);
#1080=AXIS2_PLACEMENT_3D('',#1689,#1331,#1332);
#1081=AXIS2_PLACEMENT_3D('',#1690,#1333,#1334);
#1082=AXIS2_PLACEMENT_3D('',#1691,#1335,#1336);
#1083=AXIS2_PLACEMENT_3D('',#1693,#1337,#1338);
#1084=AXIS2_PLACEMENT_3D('',#1695,#1340,#1341);
#1085=AXIS2_PLACEMENT_3D('',#1697,#1342,#1343);
#1086=AXIS2_PLACEMENT_3D('',#1698,#1344,#1345);
#1087=AXIS2_PLACEMENT_3D('',#1699,#1346,#1347);
#1088=AXIS2_PLACEMENT_3D('',#1701,#1348,#1349);
#1089=AXIS2_PLACEMENT_3D('',#1703,#1351,#1352);
#1090=AXIS2_PLACEMENT_3D('',#1705,#1353,#1354);
#1091=AXIS2_PLACEMENT_3D('',#1706,#1355,#1356);
#1092=AXIS2_PLACEMENT_3D('',#1707,#1357,#1358);
#1093=AXIS2_PLACEMENT_3D('',#1709,#1359,#1360);
#1094=AXIS2_PLACEMENT_3D('',#1711,#1362,#1363);
#1095=AXIS2_PLACEMENT_3D('',#1713,#1364,#1365);
#1096=AXIS2_PLACEMENT_3D('',#1714,#1366,#1367);
#1097=AXIS2_PLACEMENT_3D('',#1715,#1368,#1369);
#1098=AXIS2_PLACEMENT_3D('',#1717,#1370,#1371);
#1099=AXIS2_PLACEMENT_3D('',#1719,#1373,#1374);
#1100=AXIS2_PLACEMENT_3D('',#1720,#1375,#1376);
#1101=AXIS2_PLACEMENT_3D('',#1721,#1377,#1378);
#1102=AXIS2_PLACEMENT_3D('',#1724,#1381,#1382);
#1103=AXIS2_PLACEMENT_3D('',#1726,#1384,#1385);
#1104=AXIS2_PLACEMENT_3D('',#1728,#1387,#1388);
#1105=AXIS2_PLACEMENT_3D('',#1730,#1390,#1391);
#1106=AXIS2_PLACEMENT_3D('',#1732,#1393,#1394);
#1107=AXIS2_PLACEMENT_3D('',#1734,#1396,#1397);
#1108=AXIS2_PLACEMENT_3D('',#1736,#1399,#1400);
#1109=AXIS2_PLACEMENT_3D('',#1738,#1402,#1403);
#1110=AXIS2_PLACEMENT_3D('',#1739,#1404,#1405);
#1111=AXIS2_PLACEMENT_3D('',#1740,#1406,#1407);
#1112=AXIS2_PLACEMENT_3D('',#1741,#1408,#1409);
#1113=AXIS2_PLACEMENT_3D('',#1742,#1410,#1411);
#1114=AXIS2_PLACEMENT_3D('',#1744,#1413,#1414);
#1115=AXIS2_PLACEMENT_3D('',#1746,#1416,#1417);
#1116=AXIS2_PLACEMENT_3D('',#1748,#1419,#1420);
#1117=AXIS2_PLACEMENT_3D('',#1750,#1422,#1423);
#1118=AXIS2_PLACEMENT_3D('',#1751,#1424,#1425);
#1119=AXIS2_PLACEMENT_3D('',#1753,#1427,#1428);
#1120=AXIS2_PLACEMENT_3D('',#1755,#1430,#1431);
#1121=AXIS2_PLACEMENT_3D('',#1757,#1433,#1434);
#1122=AXIS2_PLACEMENT_3D('',#1759,#1436,#1437);
#1123=DIRECTION('axis',(0.,0.,1.));
#1124=DIRECTION('refdir',(1.,0.,0.));
#1125=DIRECTION('center_axis',(-7.64749066247345E-18,-1.012515363219E-9,
1.));
#1126=DIRECTION('ref_axis',(-1.,-3.33896653222391E-19,-7.64749066281153E-18));
#1127=DIRECTION('center_axis',(1.14371603717121E-26,-1.012515363219E-9,
1.));
#1128=DIRECTION('ref_axis',(-1.,-3.33896653222391E-19,-7.64749066281153E-18));
#1129=DIRECTION('',(-7.64749066247345E-18,-1.012515363219E-9,1.));
#1130=DIRECTION('center_axis',(-7.64749066247345E-18,-1.012515363219E-9,
1.));
#1131=DIRECTION('ref_axis',(-1.,-3.33896653222391E-19,-7.64749066281153E-18));
#1132=DIRECTION('center_axis',(-7.64749066247345E-18,-1.012515363219E-9,
1.));
#1133=DIRECTION('ref_axis',(-1.,-3.33896653222391E-19,-7.64749066281153E-18));
#1134=DIRECTION('center_axis',(-7.64749066247345E-18,-1.012515363219E-9,
1.));
#1135=DIRECTION('ref_axis',(-1.,-3.33896653222391E-19,-7.64749066281153E-18));
#1136=DIRECTION('center_axis',(1.14371603717121E-26,-1.012515363219E-9,
1.));
#1137=DIRECTION('ref_axis',(-1.,-3.33896653222391E-19,-7.64749066281153E-18));
#1138=DIRECTION('',(-7.64749066247345E-18,-1.012515363219E-9,1.));
#1139=DIRECTION('center_axis',(-7.64749066247345E-18,-1.012515363219E-9,
1.));
#1140=DIRECTION('ref_axis',(-1.,-3.33896653222391E-19,-7.64749066281153E-18));
#1141=DIRECTION('center_axis',(-7.64749066247345E-18,-1.012515363219E-9,
1.));
#1142=DIRECTION('ref_axis',(-1.,-3.33896653222391E-19,-7.64749066281153E-18));
#1143=DIRECTION('center_axis',(-7.64749066247345E-18,-1.012515363219E-9,
1.));
#1144=DIRECTION('ref_axis',(-1.,-3.33896653222391E-19,-7.64749066281153E-18));
#1145=DIRECTION('center_axis',(1.14371603717121E-26,-1.012515363219E-9,
1.));
#1146=DIRECTION('ref_axis',(-1.,-3.33896653222391E-19,-7.64749066281153E-18));
#1147=DIRECTION('',(-7.64749066247345E-18,-1.012515363219E-9,1.));
#1148=DIRECTION('center_axis',(-7.64749066247345E-18,-1.012515363219E-9,
1.));
#1149=DIRECTION('ref_axis',(-1.,-3.33896653222391E-19,-7.64749066281153E-18));
#1150=DIRECTION('center_axis',(-7.64749066247345E-18,-1.012515363219E-9,
1.));
#1151=DIRECTION('ref_axis',(-1.,-3.33896653222391E-19,-7.64749066281153E-18));
#1152=DIRECTION('center_axis',(-7.64749066247345E-18,-1.012515363219E-9,
1.));
#1153=DIRECTION('ref_axis',(-1.,-3.33896653222391E-19,-7.64749066281153E-18));
#1154=DIRECTION('center_axis',(1.14371603717121E-26,-1.012515363219E-9,
1.));
#1155=DIRECTION('ref_axis',(-1.,-3.33896653222391E-19,-7.64749066281153E-18));
#1156=DIRECTION('',(-7.64749066247345E-18,-1.012515363219E-9,1.));
#1157=DIRECTION('center_axis',(-7.64749066247345E-18,-1.012515363219E-9,
1.));
#1158=DIRECTION('ref_axis',(-1.,-3.33896653222391E-19,-7.64749066281153E-18));
#1159=DIRECTION('center_axis',(-7.64749066247345E-18,-1.012515363219E-9,
1.));
#1160=DIRECTION('ref_axis',(-1.,-3.33896653222391E-19,-7.64749066281153E-18));
#1161=DIRECTION('center_axis',(-7.64749066247345E-18,-1.012515363219E-9,
1.));
#1162=DIRECTION('ref_axis',(-1.,-3.33896653222391E-19,-7.64749066281153E-18));
#1163=DIRECTION('center_axis',(1.14371603717121E-26,-1.012515363219E-9,
1.));
#1164=DIRECTION('ref_axis',(-1.,-3.33896653222391E-19,-7.64749066281153E-18));
#1165=DIRECTION('',(-7.64749066247345E-18,-1.012515363219E-9,1.));
#1166=DIRECTION('center_axis',(-7.64749066247345E-18,-1.012515363219E-9,
1.));
#1167=DIRECTION('ref_axis',(-1.,-3.33896653222391E-19,-7.64749066281153E-18));
#1168=DIRECTION('center_axis',(-7.64749066247345E-18,-1.012515363219E-9,
1.));
#1169=DIRECTION('ref_axis',(-1.,-3.33896653222391E-19,-7.64749066281153E-18));
#1170=DIRECTION('center_axis',(-7.64749066247345E-18,-1.012515363219E-9,
1.));
#1171=DIRECTION('ref_axis',(-1.,-3.33896653222391E-19,-7.64749066281153E-18));
#1172=DIRECTION('center_axis',(1.14371603717121E-26,-1.012515363219E-9,
1.));
#1173=DIRECTION('ref_axis',(-1.,-3.33896653222391E-19,-7.64749066281153E-18));
#1174=DIRECTION('',(-7.64749066247345E-18,-1.012515363219E-9,1.));
#1175=DIRECTION('center_axis',(-7.64749066247345E-18,-1.012515363219E-9,
1.));
#1176=DIRECTION('ref_axis',(-1.,-3.33896653222391E-19,-7.64749066281153E-18));
#1177=DIRECTION('center_axis',(-7.64749066247345E-18,-1.012515363219E-9,
1.));
#1178=DIRECTION('ref_axis',(-1.,-3.33896653222391E-19,-7.64749066281153E-18));
#1179=DIRECTION('center_axis',(-7.64749066247345E-18,-1.012515363219E-9,
1.));
#1180=DIRECTION('ref_axis',(-1.,-3.33896653222391E-19,-7.64749066281153E-18));
#1181=DIRECTION('center_axis',(1.14371603717121E-26,-1.012515363219E-9,
1.));
#1182=DIRECTION('ref_axis',(-1.,-3.33896653222391E-19,-7.64749066281153E-18));
#1183=DIRECTION('',(-7.64749066247345E-18,-1.012515363219E-9,1.));
#1184=DIRECTION('center_axis',(-7.64749066247345E-18,-1.012515363219E-9,
1.));
#1185=DIRECTION('ref_axis',(-1.,-3.33896653222391E-19,-7.64749066281153E-18));
#1186=DIRECTION('center_axis',(-7.64749066247345E-18,-1.012515363219E-9,
1.));
#1187=DIRECTION('ref_axis',(-1.,-3.33896653222391E-19,-7.64749066281153E-18));
#1188=DIRECTION('center_axis',(-3.08148791101958E-33,1.01251540485237E-9,
-1.));
#1189=DIRECTION('ref_axis',(-0.632455531131574,0.774596669978047,7.84291052242094E-10));
#1190=DIRECTION('center_axis',(1.14371603717121E-26,-1.012515363219E-9,
1.));
#1191=DIRECTION('ref_axis',(-0.632455531131574,0.774596669978047,7.84291052242094E-10));
#1192=DIRECTION('',(-3.08148791101958E-33,1.01251540485237E-9,-1.));
#1193=DIRECTION('center_axis',(-1.14371603717121E-26,1.012515363219E-9,
-1.));
#1194=DIRECTION('ref_axis',(-0.632455531131574,0.774596669978047,7.84291052242094E-10));
#1195=DIRECTION('',(3.08148791101958E-33,-1.01251540485237E-9,1.));
#1196=DIRECTION('center_axis',(3.08148791101958E-33,-1.01251540485237E-9,
1.));
#1197=DIRECTION('ref_axis',(-2.70867737805151E-8,-1.,-1.01251542854019E-9));
#1198=DIRECTION('center_axis',(-3.91773987211581E-17,-1.01251539310074E-9,
1.));
#1199=DIRECTION('ref_axis',(-2.7086773712881E-8,-1.,-1.01251540485237E-9));
#1200=DIRECTION('',(3.75904491822674E-25,-1.01251539097458E-9,1.));
#1201=DIRECTION('center_axis',(-1.81188515194088E-17,-1.01251540182348E-9,
1.));
#1202=DIRECTION('ref_axis',(-2.7086774107627E-8,-1.,-1.01251540485237E-9));
#1203=DIRECTION('center_axis',(1.14371603717121E-26,-1.012515363219E-9,
1.));
#1204=DIRECTION('ref_axis',(1.,1.15803005550243E-35,-1.14371603717121E-26));
#1205=DIRECTION('',(-3.97852673876969E-5,0.999999999208566,1.01251536241766E-9));
#1206=DIRECTION('',(0.,1.,1.012515363219E-9));
#1207=DIRECTION('center_axis',(1.14371603717121E-26,-1.012515363219E-9,
1.));
#1208=DIRECTION('ref_axis',(0.707106781186548,-0.707106781186547,-7.15956479387716E-10));
#1209=DIRECTION('',(1.,-2.70867743953094E-8,-2.7425775226735E-17));
#1210=DIRECTION('center_axis',(-1.14371603717121E-26,1.012515363219E-9,
-1.));
#1211=DIRECTION('ref_axis',(-0.707106787037696,0.707106775335399,7.15956473463339E-10));
#1212=DIRECTION('',(1.89482843808527E-9,1.,1.012515363219E-9));
#1213=DIRECTION('center_axis',(-1.14371603717121E-26,1.012515363219E-9,
-1.));
#1214=DIRECTION('ref_axis',(-0.707106781856473,-0.707106780516622,-7.15956478709407E-10));
#1215=DIRECTION('',(-1.,-1.15803010641255E-35,1.14371603717121E-26));
#1216=DIRECTION('center_axis',(-1.14371603717121E-26,1.012515363219E-9,
-1.));
#1217=DIRECTION('ref_axis',(0.707106781186546,-0.707106781186549,-7.15956479387718E-10));
#1218=DIRECTION('',(0.,-1.,-1.012515363219E-9));
#1219=DIRECTION('center_axis',(-1.14371603717121E-26,1.012515363219E-9,
-1.));
#1220=DIRECTION('ref_axis',(0.707106781186557,0.707106781186538,7.15956479387707E-10));
#1221=DIRECTION('',(1.,6.79728590420208E-17,5.73864036902536E-26));
#1222=DIRECTION('center_axis',(-1.14371603717121E-26,1.012515363219E-9,
-1.));
#1223=DIRECTION('ref_axis',(-0.707106781186549,0.707106781186546,7.15956479387715E-10));
#1224=DIRECTION('',(1.,1.26091944514465E-16,5.96326917441379E-19));
#1225=DIRECTION('',(0.,-1.,-1.012515363219E-9));
#1226=DIRECTION('',(-1.,5.47566672014161E-29,-5.40798386135845E-20));
#1227=DIRECTION('',(1.89482843131211E-9,1.,1.012515363219E-9));
#1228=DIRECTION('center_axis',(1.14371603717121E-26,-1.012515363219E-9,
1.));
#1229=DIRECTION('ref_axis',(-0.707106770940003,0.707106791433092,7.15956517845118E-10));
#1230=DIRECTION('',(-1.,2.70867737911994E-8,2.77061488856919E-17));
#1231=DIRECTION('center_axis',(1.26091944515069E-16,-1.,-1.01251540485237E-9));
#1232=DIRECTION('ref_axis',(1.,1.26091944514465E-16,5.96326917441379E-19));
#1233=DIRECTION('',(1.,1.26091944514465E-16,5.96326917441379E-19));
#1234=DIRECTION('',(0.,-1.01251540485237E-9,1.));
#1235=DIRECTION('center_axis',(1.14371603717121E-26,-1.012515363219E-9,
1.));
#1236=DIRECTION('ref_axis',(1.,1.15803005550243E-35,-1.14371603717121E-26));
#1237=DIRECTION('',(-2.70867737763224E-8,-1.,-1.01251538899204E-9));
#1238=DIRECTION('',(0.,1.,1.012515363219E-9));
#1239=DIRECTION('center_axis',(1.14371603717121E-26,-1.012515363219E-9,
1.));
#1240=DIRECTION('ref_axis',(-0.707106771609927,0.707106790763168,7.15956675532674E-10));
#1241=DIRECTION('',(1.,-2.70867743953094E-8,-2.74257751898864E-17));
#1242=DIRECTION('center_axis',(-2.00184185936407E-17,-1.01251535628011E-9,
1.));
#1243=DIRECTION('ref_axis',(0.,-1.,-1.01251535512363E-9));
#1244=DIRECTION('',(0.,-1.,-1.01251535628011E-9));
#1245=DIRECTION('',(-3.97852673876969E-5,0.999999999208566,1.01251546036352E-9));
#1246=DIRECTION('center_axis',(5.53670395723113E-31,-1.01251545342462E-9,
1.));
#1247=DIRECTION('ref_axis',(-5.92118946466752E-15,1.,1.01251545342463E-9));
#1248=DIRECTION('',(1.,6.79728590434546E-17,-1.41610116121854E-18));
#1249=DIRECTION('center_axis',(-2.77555756156281E-16,-1.012515363219E-9,
1.));
#1250=DIRECTION('ref_axis',(1.,-2.44249065420353E-14,2.77555731425688E-16));
#1251=DIRECTION('',(0.,1.,1.01251537709679E-9));
#1252=DIRECTION('center_axis',(1.85037168013594E-16,-1.012515363219E-9,
1.));
#1253=DIRECTION('ref_axis',(2.36847578586697E-14,-1.,-1.01251536090602E-9));
#1254=DIRECTION('',(-1.,0.,0.));
#1255=DIRECTION('center_axis',(4.43341053819647E-32,-1.012515363219E-9,
1.));
#1256=DIRECTION('ref_axis',(-1.,1.89482799820931E-9,1.91854244252225E-18));
#1257=DIRECTION('',(1.89482843808527E-9,1.,1.012515363219E-9));
#1258=DIRECTION('center_axis',(1.14103773011803E-26,-1.012515363219E-9,
1.));
#1259=DIRECTION('ref_axis',(7.40148683083439E-16,1.,1.01251536090604E-9));
#1260=DIRECTION('',(1.,-2.70867743953094E-8,-2.74257751898864E-17));
#1261=DIRECTION('center_axis',(1.14371603717121E-26,-1.012515363219E-9,
1.));
#1262=DIRECTION('ref_axis',(0.707106790763168,0.707106771609927,7.15956484410858E-10));
#1263=DIRECTION('',(0.,-1.,-1.012515363219E-9));
#1264=DIRECTION('',(-2.70867737763224E-8,-1.,-1.01251538899204E-9));
#1265=DIRECTION('',(1.,-2.70867737911994E-8,-2.77061486788967E-17));
#1266=DIRECTION('',(1.,-2.70867737911994E-8,-2.77061488856919E-17));
#1267=DIRECTION('center_axis',(-1.14371603717121E-26,1.012515363219E-9,
-1.));
#1268=DIRECTION('ref_axis',(-0.707106770940003,0.707106791433092,7.15956517845118E-10));
#1269=DIRECTION('',(1.89482843131211E-9,1.,1.012515363219E-9));
#1270=DIRECTION('',(-1.,5.47566672014161E-29,-5.40798386135845E-20));
#1271=DIRECTION('',(0.,-1.,-1.012515363219E-9));
#1272=DIRECTION('center_axis',(-2.7086773712881E-8,-1.,-1.01251539097458E-9));
#1273=DIRECTION('ref_axis',(0.,1.01251539097458E-9,-1.));
#1274=DIRECTION('',(2.62960261556633E-26,-1.01251539097458E-9,1.));
#1275=DIRECTION('center_axis',(2.62960261556633E-26,-1.01251539097458E-9,
1.));
#1276=DIRECTION('ref_axis',(-0.707106770940003,0.707106791433092,7.15956517845118E-10));
#1277=DIRECTION('',(-2.62960261556633E-26,1.01251539097458E-9,-1.));
#1278=DIRECTION('center_axis',(-2.70867737763224E-8,-1.,-1.01251539097458E-9));
#1279=DIRECTION('ref_axis',(0.,1.01251539097458E-9,-1.));
#1280=DIRECTION('',(-3.08148791101958E-33,1.01251540485237E-9,-1.));
#1281=DIRECTION('',(3.08148791101958E-33,-1.01251540485237E-9,1.));
#1282=DIRECTION('',(1.,-2.70867737911994E-8,-2.74258283579706E-17));
#1283=DIRECTION('center_axis',(-1.,2.70867737763224E-8,2.74257757162775E-17));
#1284=DIRECTION('ref_axis',(0.,1.01251540485237E-9,-1.));
#1285=DIRECTION('',(0.,-1.01251540485237E-9,1.));
#1286=DIRECTION('',(-2.70867737763224E-8,-1.,-1.01251538899204E-9));
#1287=DIRECTION('center_axis',(1.,-2.70867737763224E-8,-2.74257757162775E-17));
#1288=DIRECTION('ref_axis',(0.,-1.01251540485237E-9,1.));
#1289=DIRECTION('',(0.,-1.01251540485237E-9,1.));
#1290=DIRECTION('',(-2.70867737763224E-8,-1.,-1.01251538899204E-9));
#1291=DIRECTION('center_axis',(1.,0.,0.));
#1292=DIRECTION('ref_axis',(0.,-1.01251734774266E-9,1.));
#1293=DIRECTION('',(0.,-1.,-1.01251734774266E-9));
#1294=DIRECTION('',(0.,-1.01251540485237E-9,1.));
#1295=DIRECTION('center_axis',(0.,-1.01251734774266E-9,1.));
#1296=DIRECTION('ref_axis',(-1.,0.,0.));
#1297=DIRECTION('',(0.,-1.,-1.01251734774266E-9));
#1298=DIRECTION('',(-1.,2.70867743953094E-8,2.74258289696424E-17));
#1299=DIRECTION('center_axis',(-1.,0.,0.));
#1300=DIRECTION('ref_axis',(0.,1.01251734774266E-9,-1.));
#1301=DIRECTION('',(0.,1.01251540485237E-9,-1.));
#1302=DIRECTION('center_axis',(3.97852673876969E-5,-0.999999999208566,-1.01251536241766E-9));
#1303=DIRECTION('ref_axis',(-0.70710678062691,-2.81331483135768E-5,0.707106781186528));
#1304=DIRECTION('center_axis',(3.97852673850181E-5,-0.999999999208566,-1.01251451587261E-9));
#1305=DIRECTION('ref_axis',(0.,-1.01251451667395E-9,1.));
#1306=DIRECTION('',(3.97852673876969E-5,-0.999999999208566,-1.01251536241766E-9));
#1307=DIRECTION('center_axis',(0.,-1.,-1.012515363219E-9));
#1308=DIRECTION('ref_axis',(-0.707106781186546,-7.15955880789968E-10,0.707106781186549));
#1309=DIRECTION('',(0.,-1.,-1.012515363219E-9));
#1310=DIRECTION('center_axis',(-2.7755575615629E-15,1.,1.01251451667395E-9));
#1311=DIRECTION('ref_axis',(-1.,-2.7755575615629E-15,0.));
#1312=DIRECTION('center_axis',(-1.14371603717121E-26,1.012515363219E-9,
-1.));
#1313=DIRECTION('ref_axis',(-1.,0.,0.));
#1314=DIRECTION('center_axis',(1.,0.,0.));
#1315=DIRECTION('ref_axis',(0.,1.,1.01251507178546E-9));
#1316=DIRECTION('center_axis',(-1.14371603717121E-26,1.012515363219E-9,
-1.));
#1317=DIRECTION('ref_axis',(0.707106781186548,-0.707106781186547,-7.15956460783929E-10));
#1318=DIRECTION('center_axis',(-1.,2.70867743953094E-8,2.7425775226735E-17));
#1319=DIRECTION('ref_axis',(1.91532438849916E-8,0.707106780470591,0.707106781902504));
#1320=DIRECTION('center_axis',(-0.70710678118655,1.84372811350472E-8,0.707106781186544));
#1321=DIRECTION('ref_axis',(0.707106781186544,-1.98692028078358E-8,0.707106781186551));
#1322=DIRECTION('',(-1.,2.70867743953094E-8,2.7425775226735E-17));
#1323=DIRECTION('center_axis',(1.,-2.70867794860407E-8,-2.7425779993837E-17));
#1324=DIRECTION('ref_axis',(2.70867794860408E-8,1.,1.01251534934121E-9));
#1325=DIRECTION('',(-1.,2.70867743953094E-8,2.7425775226735E-17));
#1326=DIRECTION('center_axis',(0.70710678118655,-1.98691940741965E-8,0.707106781186544));
#1327=DIRECTION('ref_axis',(-0.707106781186544,1.84372897705558E-8,0.707106781186551));
#1328=DIRECTION('',(-1.,2.70867743953094E-8,2.7425775226735E-17));
#1329=DIRECTION('center_axis',(1.14371603717121E-26,-1.012515363219E-9,
1.));
#1330=DIRECTION('ref_axis',(-0.707106787037696,0.707106775335399,7.15956479287648E-10));
#1331=DIRECTION('center_axis',(-1.65495478432476E-8,1.,1.01251562689697E-9));
#1332=DIRECTION('ref_axis',(-1.,-1.65495478432476E-8,0.));
#1333=DIRECTION('center_axis',(1.14371603717121E-26,-1.012515363219E-9,
1.));
#1334=DIRECTION('ref_axis',(-0.707106787037696,0.707106775335399,7.1595646078393E-10));
#1335=DIRECTION('center_axis',(-1.89482843808527E-9,-1.,-1.012515363219E-9));
#1336=DIRECTION('ref_axis',(-0.707106781186553,6.23891939382581E-10,0.707106781186542));
#1337=DIRECTION('center_axis',(1.89483984058822E-9,1.,1.01252339845814E-9));
#1338=DIRECTION('ref_axis',(-1.,1.89483984058822E-9,0.));
#1339=DIRECTION('',(-1.89482843808527E-9,-1.,-1.012515363219E-9));
#1340=DIRECTION('center_axis',(1.14371603717121E-26,-1.012515363219E-9,
1.));
#1341=DIRECTION('ref_axis',(-0.707106781856474,-0.707106780516621,-7.15956479287642E-10));
#1342=DIRECTION('center_axis',(-1.,1.33226762955017E-14,1.34895214792791E-23));
#1343=DIRECTION('ref_axis',(-1.33226762955017E-14,-1.,-1.01251562689696E-9));
#1344=DIRECTION('center_axis',(1.14371603717121E-26,-1.012515363219E-9,
1.));
#1345=DIRECTION('ref_axis',(-0.707106781856473,-0.707106780516622,-7.15956460783925E-10));
#1346=DIRECTION('center_axis',(1.,1.15803010641255E-35,-1.14371603717121E-26));
#1347=DIRECTION('ref_axis',(0.,-0.707106781902512,0.707106780470583));
#1348=DIRECTION('center_axis',(-1.,0.,0.));
#1349=DIRECTION('ref_axis',(0.,-1.,-1.0125153493412E-9));
#1350=DIRECTION('',(1.,1.15803010641255E-35,-1.14371603717121E-26));
#1351=DIRECTION('center_axis',(1.14371603717121E-26,-1.012515363219E-9,
1.));
#1352=DIRECTION('ref_axis',(1.,0.,0.));
#1353=DIRECTION('center_axis',(0.,-1.,-1.01252339845814E-9));
#1354=DIRECTION('ref_axis',(1.,0.,0.));
#1355=DIRECTION('center_axis',(1.14371603717121E-26,-1.012515363219E-9,
1.));
#1356=DIRECTION('ref_axis',(0.707106781186546,-0.707106781186549,-7.15956460783917E-10));
#1357=DIRECTION('center_axis',(0.,1.,1.012515363219E-9));
#1358=DIRECTION('ref_axis',(0.707106781186578,-7.15962161159771E-10,0.707106781186517));
#1359=DIRECTION('center_axis',(1.11022302462522E-15,-1.,-1.01252339845814E-9));
#1360=DIRECTION('ref_axis',(1.,1.11022302462522E-15,0.));
#1361=DIRECTION('',(0.,1.,1.012515363219E-9));
#1362=DIRECTION('center_axis',(1.14371603717121E-26,-1.012515363219E-9,
1.));
#1363=DIRECTION('ref_axis',(1.,0.,0.));
#1364=DIRECTION('center_axis',(1.,0.,0.));
#1365=DIRECTION('ref_axis',(0.,1.,1.01251562689697E-9));
#1366=DIRECTION('center_axis',(1.14371603717121E-26,-1.012515363219E-9,
1.));
#1367=DIRECTION('ref_axis',(0.707106781186557,0.707106781186538,7.15956460783952E-10));
#1368=DIRECTION('center_axis',(-1.,-6.79728590420208E-17,-5.73864036902536E-26));
#1369=DIRECTION('ref_axis',(0.,0.707106780470589,0.707106781902507));
#1370=DIRECTION('center_axis',(1.,0.,0.));
#1371=DIRECTION('ref_axis',(0.,1.,1.01251618200849E-9));
#1372=DIRECTION('',(-1.,-6.79728590420208E-17,-5.73864036902536E-26));
#1373=DIRECTION('center_axis',(1.14371603717121E-26,-1.012515363219E-9,
1.));
#1374=DIRECTION('ref_axis',(1.,0.,0.));
#1375=DIRECTION('center_axis',(1.14371603717121E-26,-1.012515363219E-9,
1.));
#1376=DIRECTION('ref_axis',(-0.707106781186549,0.707106781186546,7.15956460783932E-10));
#1377=DIRECTION('center_axis',(0.,-1.01251540485237E-9,1.));
#1378=DIRECTION('ref_axis',(1.,-2.44249065417543E-14,-2.47305941356055E-23));
#1379=DIRECTION('',(0.,-1.01251540485237E-9,1.));
#1380=DIRECTION('',(0.,-1.01251540485237E-9,1.));
#1381=DIRECTION('center_axis',(1.,0.,0.));
#1382=DIRECTION('ref_axis',(0.,1.,1.01251537709679E-9));
#1383=DIRECTION('',(0.,-1.01251540485237E-9,1.));
#1384=DIRECTION('center_axis',(0.,-1.01251540485237E-9,1.));
#1385=DIRECTION('ref_axis',(2.36847578586697E-14,-1.,-1.01251540485237E-9));
#1386=DIRECTION('',(0.,-1.01251540485237E-9,1.));
#1387=DIRECTION('center_axis',(0.,-1.,-1.01251540485237E-9));
#1388=DIRECTION('ref_axis',(1.,0.,0.));
#1389=DIRECTION('',(0.,-1.01251540485237E-9,1.));
#1390=DIRECTION('center_axis',(0.,-1.01251540485237E-9,1.));
#1391=DIRECTION('ref_axis',(-1.,1.89482799820931E-9,1.9185425377325E-18));
#1392=DIRECTION('',(0.,-1.01251540485237E-9,1.));
#1393=DIRECTION('center_axis',(-1.,1.89482843808527E-9,1.91854298311368E-18));
#1394=DIRECTION('ref_axis',(-1.89482843808527E-9,-1.,-1.012515363219E-9));
#1395=DIRECTION('',(0.,-1.01251540485237E-9,1.));
#1396=DIRECTION('center_axis',(0.,-1.01251540485237E-9,1.));
#1397=DIRECTION('ref_axis',(7.40148683083439E-16,1.,1.01251540485237E-9));
#1398=DIRECTION('',(0.,-1.01251540485237E-9,1.));
#1399=DIRECTION('center_axis',(2.70867743953094E-8,1.,1.01251540485237E-9));
#1400=DIRECTION('ref_axis',(-1.,2.70867743953094E-8,2.74257751898864E-17));
#1401=DIRECTION('',(0.,-1.01251540485237E-9,1.));
#1402=DIRECTION('center_axis',(0.,1.01251540485237E-9,-1.));
#1403=DIRECTION('ref_axis',(0.707106790763168,0.707106771609927,7.15956484410858E-10));
#1404=DIRECTION('center_axis',(-0.707106759944885,6.23525188708648E-8,-0.707106802428207));
#1405=DIRECTION('ref_axis',(-0.707106802428204,6.09206095563656E-8,0.707106759944888));
#1406=DIRECTION('center_axis',(-1.,2.70867743953094E-8,2.74258289696424E-17));
#1407=DIRECTION('ref_axis',(1.91532438849916E-8,0.707106781902505,-0.70710678047059));
#1408=DIRECTION('center_axis',(-0.707106781186547,1.8437285649063E-8,0.707106781186548));
#1409=DIRECTION('ref_axis',(0.707106781186548,-1.98691980617239E-8,0.707106781186547));
#1410=DIRECTION('center_axis',(0.,-1.01251540485237E-9,1.));
#1411=DIRECTION('ref_axis',(-0.707106771609927,0.707106790763168,7.15956675532674E-10));
#1412=DIRECTION('',(0.,1.01251540485237E-9,-1.));
#1413=DIRECTION('center_axis',(2.70867743953094E-8,1.,1.01251540485237E-9));
#1414=DIRECTION('ref_axis',(-1.,2.70867743953094E-8,2.74257751898864E-17));
#1415=DIRECTION('',(0.,-1.01251540485237E-9,1.));
#1416=DIRECTION('center_axis',(1.,-1.89482843131211E-9,-1.91854297625575E-18));
#1417=DIRECTION('ref_axis',(1.89482843131211E-9,1.,1.012515363219E-9));
#1418=DIRECTION('',(0.,-1.01251540485237E-9,1.));
#1419=DIRECTION('center_axis',(-2.48676793112967E-36,1.,1.01251540485237E-9));
#1420=DIRECTION('ref_axis',(-1.,5.47566672014161E-29,-5.40798386135845E-20));
#1421=DIRECTION('',(0.,-1.01251540485237E-9,1.));
#1422=DIRECTION('center_axis',(-1.,0.,0.));
#1423=DIRECTION('ref_axis',(0.,-1.,-1.012515363219E-9));
#1424=DIRECTION('center_axis',(0.,-1.01251540485237E-9,1.));
#1425=DIRECTION('ref_axis',(0.,-1.,-1.01251540485237E-9));
#1426=DIRECTION('',(0.,-1.01251540485237E-9,1.));
#1427=DIRECTION('center_axis',(-1.,0.,0.));
#1428=DIRECTION('ref_axis',(0.,-1.,-1.01251535628011E-9));
#1429=DIRECTION('',(0.,-1.01251540485237E-9,1.));
#1430=DIRECTION('center_axis',(-0.999999999208566,-3.97852673876969E-5,
-4.02831961162136E-14));
#1431=DIRECTION('ref_axis',(3.97852673876969E-5,-0.999999999208566,-1.01251546036352E-9));
#1432=DIRECTION('',(0.,-1.01251540485237E-9,1.));
#1433=DIRECTION('center_axis',(0.,-1.01251540485237E-9,1.));
#1434=DIRECTION('ref_axis',(-5.92118946466752E-15,1.,1.01251540485237E-9));
#1435=DIRECTION('',(0.,-1.01251540485237E-9,1.));
#1436=DIRECTION('center_axis',(-6.79728590420208E-17,1.,1.01251540485237E-9));
#1437=DIRECTION('ref_axis',(-1.,-6.79728590434546E-17,1.41610116121854E-18));
#1438=CARTESIAN_POINT('',(0.,0.,0.));
#1439=CARTESIAN_POINT('Origin',(-19.0000000000202,-2.56309418577392,-0.713177088721821));
#1440=CARTESIAN_POINT('',(-17.4000000000202,-2.56309418497725,-1.50000000310143));
#1441=CARTESIAN_POINT('Origin',(-19.0000000000202,-2.56309418497725,-1.50000000310143));
#1442=CARTESIAN_POINT('',(-17.4000000000202,-2.5630941881027,1.58682291127818));
#1443=CARTESIAN_POINT('',(-17.4000000000202,-2.56309418577392,-0.713177088721821));
#1444=CARTESIAN_POINT('Origin',(-19.0000000000202,-2.5630941881027,1.58682291127818));
#1445=CARTESIAN_POINT('Origin',(-19.0000000000202,-2.5630941881027,1.58682291127818));
#1446=CARTESIAN_POINT('Origin',(239.001100430256,7.48039352426279,-0.713177078552636));
#1447=CARTESIAN_POINT('',(240.601100430256,7.48039352505946,-1.49999999293225));
#1448=CARTESIAN_POINT('Origin',(239.001100430256,7.48039352505946,-1.49999999293225));
#1449=CARTESIAN_POINT('',(240.601100430256,7.48039352193401,1.58682292144737));
#1450=CARTESIAN_POINT('',(240.601100430256,7.48039352426279,-0.713177078552636));
#1451=CARTESIAN_POINT('Origin',(239.001100430256,7.48039352193401,1.58682292144737));
#1452=CARTESIAN_POINT('Origin',(239.001100430256,7.48039352193401,1.58682292144737));
#1453=CARTESIAN_POINT('Origin',(435.002080908688,-172.707556459883,-0.713177260995698));
#1454=CARTESIAN_POINT('',(436.602080908688,-172.707556459086,-1.50000017537531));
#1455=CARTESIAN_POINT('Origin',(435.002080908688,-172.707556459086,-1.50000017537531));
#1456=CARTESIAN_POINT('',(436.602080908688,-172.707556462212,1.5868227390043));
#1457=CARTESIAN_POINT('',(436.602080908688,-172.707556459883,-0.713177260995698));
#1458=CARTESIAN_POINT('Origin',(435.002080908688,-172.707556462212,1.5868227390043));
#1459=CARTESIAN_POINT('Origin',(435.002080908688,-172.707556462212,1.5868227390043));
#1460=CARTESIAN_POINT('Origin',(435.002080908688,7.48039352426281,-0.713177078552634));
#1461=CARTESIAN_POINT('',(436.602080908688,7.48039352505949,-1.49999999293224));
#1462=CARTESIAN_POINT('Origin',(435.002080908688,7.48039352505949,-1.49999999293224));
#1463=CARTESIAN_POINT('',(436.602080908688,7.48039352193403,1.58682292144737));
#1464=CARTESIAN_POINT('',(436.602080908688,7.48039352426281,-0.713177078552634));
#1465=CARTESIAN_POINT('Origin',(435.002080908688,7.48039352193403,1.58682292144737));
#1466=CARTESIAN_POINT('Origin',(435.002080908688,7.48039352193403,1.58682292144737));
#1467=CARTESIAN_POINT('Origin',(208.002080908688,-172.707556459883,-0.713177260995696));
#1468=CARTESIAN_POINT('',(209.602080908688,-172.707556459086,-1.50000017537531));
#1469=CARTESIAN_POINT('Origin',(208.002080908688,-172.707556459086,-1.50000017537531));
#1470=CARTESIAN_POINT('',(209.602080908688,-172.707556462212,1.5868227390043));
#1471=CARTESIAN_POINT('',(209.602080908688,-172.707556459883,-0.713177260995696));
#1472=CARTESIAN_POINT('Origin',(208.002080908688,-172.707556462212,1.5868227390043));
#1473=CARTESIAN_POINT('Origin',(208.002080908688,-172.707556462212,1.5868227390043));
#1474=CARTESIAN_POINT('Origin',(43.0001199518237,7.41787933342923,-0.713177078615934));
#1475=CARTESIAN_POINT('',(44.6001199518237,7.4178793342259,-1.49999999299554));
#1476=CARTESIAN_POINT('Origin',(43.0001199518237,7.4178793342259,-1.49999999299554));
#1477=CARTESIAN_POINT('',(44.6001199518237,7.41787933110045,1.58682292138407));
#1478=CARTESIAN_POINT('',(44.6001199518237,7.41787933342923,-0.713177078615934));
#1479=CARTESIAN_POINT('Origin',(43.0001199518237,7.41787933110045,1.58682292138407));
#1480=CARTESIAN_POINT('Origin',(43.0001199518237,7.41787933110045,1.58682292138407));
#1481=CARTESIAN_POINT('Origin',(-18.9979190913116,-172.707556459883,-0.7131772609957));
#1482=CARTESIAN_POINT('',(-17.3979190913116,-172.707556459086,-1.50000017537532));
#1483=CARTESIAN_POINT('Origin',(-18.9979190913116,-172.707556459086,-1.50000017537532));
#1484=CARTESIAN_POINT('',(-17.3979190913116,-172.707556462212,1.5868227390043));
#1485=CARTESIAN_POINT('',(-17.3979190913116,-172.707556459883,-0.7131772609957));
#1486=CARTESIAN_POINT('Origin',(-18.9979190913116,-172.707556462212,1.5868227390043));
#1487=CARTESIAN_POINT('Origin',(-18.9979190913116,-172.707556462212,1.5868227390043));
#1488=CARTESIAN_POINT('Origin',(63.9445074113472,-2.00000158215327,0.999999997468708));
#1489=CARTESIAN_POINT('',(63.9445074113472,2.99999841531544,3.50000000253128));
#1490=CARTESIAN_POINT('',(59.04552792811,-1.00000157327377,3.49999999848123));
#1491=CARTESIAN_POINT('Origin',(63.9445074113472,-2.00000158468456,3.49999999746871));
#1492=CARTESIAN_POINT('',(59.04552792811,-1.00000156821119,-1.50000000151878));
#1493=CARTESIAN_POINT('',(59.04552792811,-1.00000157074248,0.999999998481224));
#1494=CARTESIAN_POINT('',(63.9445074113472,2.99999842037802,-1.49999999746872));
#1495=CARTESIAN_POINT('Origin',(63.9445074113472,-2.00000157962198,-1.50000000253129));
#1496=CARTESIAN_POINT('',(63.9445074113472,2.99999841784673,1.00000000253129));
#1497=CARTESIAN_POINT('Origin',(37.0001202535429,3.49999848060606,1.00000000303754));
#1498=CARTESIAN_POINT('',(37.0001196440905,-19.0000015219252,3.49999998025595));
#1499=CARTESIAN_POINT('Origin',(37.0001202535429,3.49999847807478,3.50000000303754));
#1500=CARTESIAN_POINT('',(37.0001196440905,-19.0000015168626,-1.50000001974405));
#1501=CARTESIAN_POINT('',(37.0001196440905,-19.0000015168626,-1.50000001974405));
#1502=CARTESIAN_POINT('Origin',(37.0001202535429,3.49999848313734,-1.49999999696246));
#1503=CARTESIAN_POINT('Origin',(207.999999861281,-82.5000010100744,3.49999991596122));
#1504=CARTESIAN_POINT('',(41.0001199565723,7.49989895217221,3.5000000070875));
#1505=CARTESIAN_POINT('',(41.0001199510322,7.50003820058283,3.50000000708764));
#1506=CARTESIAN_POINT('',(41.0019104210126,-37.503303400952,3.49999996152107));
#1507=CARTESIAN_POINT('',(41.0001199518237,3.49999847807478,3.50000000303754));
#1508=CARTESIAN_POINT('',(41.0001199518237,-37.500060975268,3.49999996152435));
#1509=CARTESIAN_POINT('',(37.0001199518237,-0.500001521925221,3.49999999898748));
#1510=CARTESIAN_POINT('Origin',(37.0001199518237,3.49999847807478,3.50000000303754));
#1511=CARTESIAN_POINT('',(-19.000000027107,-0.500000005062604,3.49999999898748));
#1512=CARTESIAN_POINT('',(122.500061003567,-0.500003837842834,3.49999999898748));
#1513=CARTESIAN_POINT('',(-21.0000000000202,-2.50000003816169,3.49999999696245));
#1514=CARTESIAN_POINT('Origin',(-19.0000000000203,-2.5000000050626,3.49999999696245));
#1515=CARTESIAN_POINT('',(-21.000000322141,-172.500000431675,3.49999982483484));
#1516=CARTESIAN_POINT('',(-21.0000000758133,-42.5000003163824,3.49999995646184));
#1517=CARTESIAN_POINT('',(-19.0000003221411,-174.500000435464,3.49999982280981));
#1518=CARTESIAN_POINT('Origin',(-19.000000322141,-172.500000435464,3.49999982483484));
#1519=CARTESIAN_POINT('',(435.000000044703,-174.500000435464,3.49999982280981));
#1520=CARTESIAN_POINT('',(94.4999997695701,-174.500000435464,3.49999982280981));
#1521=CARTESIAN_POINT('',(437.000000044703,-172.500000435464,3.49999982483484));
#1522=CARTESIAN_POINT('Origin',(435.000000044703,-172.500000435464,3.49999982483484));
#1523=CARTESIAN_POINT('',(437.,7.49999841531546,3.5000000070876));
#1524=CARTESIAN_POINT('',(437.,-127.500000722769,3.49999987039803));
#1525=CARTESIAN_POINT('',(435.,9.49999841531544,3.50000000911264));
#1526=CARTESIAN_POINT('Origin',(435.,7.49999841531554,3.5000000070876));
#1527=CARTESIAN_POINT('',(43.0001199518237,9.49999841531545,3.50000000911263));
#1528=CARTESIAN_POINT('',(321.499999930641,9.49999841531547,3.50000000911263));
#1529=CARTESIAN_POINT('Origin',(43.0001199518237,7.49999841531545,3.5000000070876));
#1530=CARTESIAN_POINT('',(430.5,2.99999841531549,3.50000000253128));
#1531=CARTESIAN_POINT('',(47.4882084305333,2.99999841531544,3.50000000253128));
#1532=CARTESIAN_POINT('',(430.5,-168.000000435464,3.49999982939116));
#1533=CARTESIAN_POINT('',(430.5,-168.000000435464,3.49999982939116));
#1534=CARTESIAN_POINT('',(-14.5000003136143,-168.000000435464,3.49999982939116));
#1535=CARTESIAN_POINT('',(430.5,-168.000000435464,3.49999982939116));
#1536=CARTESIAN_POINT('',(-14.500000040759,-24.0000002529129,3.49999997519337));
#1537=CARTESIAN_POINT('',(-14.5000003136143,-168.000000435464,3.49999982939116));
#1538=CARTESIAN_POINT('',(-9.49999990532516,-19.000000262387,3.49999998025595));
#1539=CARTESIAN_POINT('Origin',(-9.50000004075903,-24.000000262387,3.49999997519337));
#1540=CARTESIAN_POINT('',(-14.5000003335882,-19.0000001269531,3.49999998025595));
#1541=CARTESIAN_POINT('Origin',(47.4882084305333,2.99999842037802,-1.49999999746872));
#1542=CARTESIAN_POINT('',(430.5,2.99999842037807,-1.49999999746872));
#1543=CARTESIAN_POINT('',(47.4882084305333,2.99999842037802,-1.49999999746872));
#1544=CARTESIAN_POINT('',(430.5,2.99999842037807,-1.49999999746872));
#1545=CARTESIAN_POINT('Origin',(207.999999861281,-82.5000010050118,-1.50000008403878));
#1546=CARTESIAN_POINT('',(11.9265913904656,-7.00000083770165,-1.50000000759387));
#1547=CARTESIAN_POINT('',(11.9265912008582,-14.0000008377016,-1.50000001468148));
#1548=CARTESIAN_POINT('',(11.9265913904656,-7.00000083770165,-1.50000000759387));
#1549=CARTESIAN_POINT('',(11.9265913904656,-0.500000864788408,-1.50000000101252));
#1550=CARTESIAN_POINT('',(11.9265913904656,-41.0000007598303,-1.50000004201939));
#1551=CARTESIAN_POINT('',(12.9265914175524,0.499999135211595,-1.5));
#1552=CARTESIAN_POINT('Origin',(12.9265913904656,-0.500000864788405,-1.50000000101251));
#1553=CARTESIAN_POINT('',(37.0001199518237,0.499998483137356,-1.5));
#1554=CARTESIAN_POINT('',(-19.0000000049654,0.499999999999974,-1.5));
#1555=CARTESIAN_POINT('',(40.0001199518237,3.49999848313736,-1.49999999696246));
#1556=CARTESIAN_POINT('Origin',(37.0001199518237,3.49999848313735,-1.49999999696246));
#1557=CARTESIAN_POINT('',(40.000119954198,7.49987906460091,-1.49999999291252));
#1558=CARTESIAN_POINT('',(40.0001199518237,7.49999842037802,-1.4999999929124));
#1559=CARTESIAN_POINT('',(40.0001199518237,7.49999842037802,-1.4999999929124));
#1560=CARTESIAN_POINT('',(40.0001199565723,7.49987906460087,-1.49999999291252));
#1561=CARTESIAN_POINT('',(43.0001199518237,10.499998420378,-1.49999998987485));
#1562=CARTESIAN_POINT('Origin',(43.0001199518237,7.49999842037803,-1.4999999929124));
#1563=CARTESIAN_POINT('',(435.,10.499998420378,-1.49999998987485));
#1564=CARTESIAN_POINT('',(43.0001199518237,10.499998420378,-1.49999998987485));
#1565=CARTESIAN_POINT('',(438.,7.49999842037804,-1.4999999929124));
#1566=CARTESIAN_POINT('Origin',(435.,7.49999842037812,-1.4999999929124));
#1567=CARTESIAN_POINT('',(438.000000022352,-172.500000430402,-1.50000017516516));
#1568=CARTESIAN_POINT('',(438.,-172.500000430402,-1.50000017516516));
#1569=CARTESIAN_POINT('',(435.000000044703,-175.500000430402,-1.50000017820271));
#1570=CARTESIAN_POINT('Origin',(435.000000044703,-172.500000430402,-1.50000017516516));
#1571=CARTESIAN_POINT('',(-19.0000003221411,-175.500000430402,-1.50000017820271));
#1572=CARTESIAN_POINT('',(435.,-175.500000430402,-1.50000017820271));
#1573=CARTESIAN_POINT('',(-22.0000003221411,-172.500000424717,-1.50000017516516));
#1574=CARTESIAN_POINT('Origin',(-19.000000322141,-172.500000430402,-1.50000017516516));
#1575=CARTESIAN_POINT('',(-22.0000000000202,-2.50000004964866,-1.50000000303755));
#1576=CARTESIAN_POINT('',(-22.0000003221411,-172.500000424717,-1.50000017516516));
#1577=CARTESIAN_POINT('',(-19.0000000000203,0.499999999999974,-1.5));
#1578=CARTESIAN_POINT('Origin',(-19.0000000000203,-2.50000000000002,-1.50000000303755));
#1579=CARTESIAN_POINT('',(1.67659141755239,0.499999439937807,-1.5));
#1580=CARTESIAN_POINT('',(-19.0000000049654,0.499999999999974,-1.5));
#1581=CARTESIAN_POINT('',(2.67659139046561,-0.50000056006219,-1.50000000101252));
#1582=CARTESIAN_POINT('Origin',(1.67659139046562,-0.500000560062193,-1.50000000101251));
#1583=CARTESIAN_POINT('',(2.67659139046563,-7.00000058714899,-1.50000000759387));
#1584=CARTESIAN_POINT('',(2.67659139046561,-41.0000007598303,-1.50000004201939));
#1585=CARTESIAN_POINT('',(2.67659120085821,-14.000000587149,-1.50000001468148));
#1586=CARTESIAN_POINT('',(2.67659139046563,-7.00000058714899,-1.50000000759387));
#1587=CARTESIAN_POINT('',(-14.5000001981544,-14.0000001218905,-1.50000001468148));
#1588=CARTESIAN_POINT('',(-9.49999990532516,-19.0000002573244,-1.50000001974405));
#1589=CARTESIAN_POINT('',(-14.5000003335882,-19.0000001218905,-1.50000001974405));
#1590=CARTESIAN_POINT('',(-14.500000040759,-24.0000002478503,-1.50000002480663));
#1591=CARTESIAN_POINT('Origin',(-9.50000004075903,-24.0000002573244,-1.50000002480663));
#1592=CARTESIAN_POINT('',(-14.5000003136143,-168.000000430402,-1.50000017060884));
#1593=CARTESIAN_POINT('',(-14.5000003136143,-168.000000430402,-1.50000017060884));
#1594=CARTESIAN_POINT('',(430.5,-168.000000430402,-1.50000017060884));
#1595=CARTESIAN_POINT('',(430.5,-168.000000430402,-1.50000017060884));
#1596=CARTESIAN_POINT('',(430.5,-168.000000430402,-1.50000017060884));
#1597=CARTESIAN_POINT('Origin',(-14.5000003335882,-19.0000001218905,-1.50000001974405));
#1598=CARTESIAN_POINT('',(-9.49999990532516,-19.0000002573244,-1.50000001974405));
#1599=CARTESIAN_POINT('Origin',(-9.50000004075903,-24.0000002573244,-1.50000002480663));
#1600=CARTESIAN_POINT('',(-14.500000040759,-24.0000002478503,-1.50000002480663));
#1601=CARTESIAN_POINT('Origin',(-14.5000001981544,-14.0000001218905,-1.50000001468148));
#1602=CARTESIAN_POINT('',(11.9265912008582,-14.0000008409923,1.74999998531851));
#1603=CARTESIAN_POINT('',(11.9265912008582,-14.0000008377016,-1.50000001468148));
#1604=CARTESIAN_POINT('',(2.6765912008582,-14.0000005904397,1.74999998531851));
#1605=CARTESIAN_POINT('',(2.6765912008582,-14.0000005887943,0.124999985318524));
#1606=CARTESIAN_POINT('',(-1.28670460022349,-14.0000004830868,1.74999998531851));
#1607=CARTESIAN_POINT('Origin',(11.9265913904656,-7.00000084099232,1.74999999240612));
#1608=CARTESIAN_POINT('',(11.9265913904656,-7.00000084099232,1.74999999240612));
#1609=CARTESIAN_POINT('',(11.9265913904656,-7.00000083770164,-1.50000000759387));
#1610=CARTESIAN_POINT('',(11.9265913904656,-7.00000084099232,1.74999999240612));
#1611=CARTESIAN_POINT('Origin',(2.67659139046562,-7.00000058714899,-1.50000000759387));
#1612=CARTESIAN_POINT('',(2.67659139046562,-7.00000059043966,1.74999999240612));
#1613=CARTESIAN_POINT('',(2.67659139046562,-7.00000058879433,0.124999992406132));
#1614=CARTESIAN_POINT('',(2.67659139046562,-7.00000059043966,1.74999999240612));
#1615=CARTESIAN_POINT('Origin',(11.9265913904656,0.499999485351257,-1.5));
#1616=CARTESIAN_POINT('',(11.9265913904656,-0.500000840992304,1.74999999898748));
#1617=CARTESIAN_POINT('',(11.9265913904656,0.499999482060576,1.75));
#1618=CARTESIAN_POINT('',(11.9265913904656,-0.500000864788405,-1.50000000101252));
#1619=CARTESIAN_POINT('Origin',(11.9265913904656,0.499999482060576,1.75));
#1620=CARTESIAN_POINT('',(2.67659139046562,-0.500000563352868,1.74999999898748));
#1621=CARTESIAN_POINT('',(2.67659139046562,0.499999482060576,1.75));
#1622=CARTESIAN_POINT('',(24.4633556440579,-0.500001180572809,1.74999999898748));
#1623=CARTESIAN_POINT('Origin',(2.67659139046562,0.499999482060576,1.75));
#1624=CARTESIAN_POINT('',(2.67659139046562,-0.500000561707531,0.124999998987482));
#1625=CARTESIAN_POINT('Origin',(41.0019104210126,-37.5033033999395,2.49999996152107));
#1626=CARTESIAN_POINT('',(40.000119954198,7.49987906055085,2.50000000708748));
#1627=CARTESIAN_POINT('Ctrl Pts',(40.0001199565723,7.49987906055095,2.50000000708761));
#1628=CARTESIAN_POINT('Ctrl Pts',(40.0001199565946,7.49987849898994,2.54433940764678));
#1629=CARTESIAN_POINT('Ctrl Pts',(40.0030732708108,7.49987805492733,2.58867857704369));
#1630=CARTESIAN_POINT('Ctrl Pts',(40.0089538406438,7.49987772732676,2.63262628848117));
#1631=CARTESIAN_POINT('Ctrl Pts',(40.0148341806014,7.499877399739,2.67657228197237));
#1632=CARTESIAN_POINT('Ctrl Pts',(40.0236414856798,7.49987718860172,2.72012638997548));
#1633=CARTESIAN_POINT('Ctrl Pts',(40.0352980506552,7.49987709082379,2.76290434264993));
#1634=CARTESIAN_POINT('Ctrl Pts',(40.0469542002924,7.49987699304936,2.80568077109172));
#1635=CARTESIAN_POINT('Ctrl Pts',(40.0614592849787,7.49987700862135,2.84768065367776));
#1636=CARTESIAN_POINT('Ctrl Pts',(40.0786853381301,7.49987713244896,2.88853345954737));
#1637=CARTESIAN_POINT('Ctrl Pts',(40.0959108370717,7.49987725627258,2.92938495106919));
#1638=CARTESIAN_POINT('Ctrl Pts',(40.115856949601,7.4998774883377,2.96908901399616));
#1639=CARTESIAN_POINT('Ctrl Pts',(40.1383477186559,7.49987782164418,3.00729539409903));
#1640=CARTESIAN_POINT('Ctrl Pts',(40.1608449546286,7.4998781550465,3.04551275993187));
#1641=CARTESIAN_POINT('Ctrl Pts',(40.1858880782028,7.49987858973917,3.08223118166892));
#1642=CARTESIAN_POINT('Ctrl Pts',(40.2132560416851,7.49987911692805,3.11712655746965));
#1643=CARTESIAN_POINT('Ctrl Pts',(40.2406212385184,7.49987964406364,3.15201840566924));
#1644=CARTESIAN_POINT('Ctrl Pts',(40.2703105190846,7.49988026366536,3.18508721305484));
#1645=CARTESIAN_POINT('Ctrl Pts',(40.3020618783792,7.49988096530958,3.21604115062719));
#1646=CARTESIAN_POINT('Ctrl Pts',(40.3338104676725,7.49988166689259,3.24699238776551));
#1647=CARTESIAN_POINT('Ctrl Pts',(40.367620444315,7.49988245049059,3.27582880186097));
#1648=CARTESIAN_POINT('Ctrl Pts',(40.4031934904811,7.49988330423518,3.3022959586544));
#1649=CARTESIAN_POINT('Ctrl Pts',(40.4387639256181,7.4998841579171,3.3287611727827));
#1650=CARTESIAN_POINT('Ctrl Pts',(40.4760968002818,7.49988508172055,3.35285720201685));
#1651=CARTESIAN_POINT('Ctrl Pts',(40.5148627610507,7.49988606254233,3.37437146937888));
#1652=CARTESIAN_POINT('Ctrl Pts',(40.5536380787741,7.49988704360085,3.39589092964765));
#1653=CARTESIAN_POINT('Ctrl Pts',(40.5938467710896,7.49988808168917,3.41482715529805));
#1654=CARTESIAN_POINT('Ctrl Pts',(40.6351339430899,7.49988916268789,3.4310130090852));
#1655=CARTESIAN_POINT('Ctrl Pts',(40.6764135581116,7.49989024348874,3.44719590030203));
#1656=CARTESIAN_POINT('Ctrl Pts',(40.718770826978,7.49989136716713,3.46062925909752));
#1657=CARTESIAN_POINT('Ctrl Pts',(40.7618320272342,7.49989251885452,3.47119456159225));
#1658=CARTESIAN_POINT('Ctrl Pts',(40.8048994178973,7.49989367070747,3.48176138293737));
#1659=CARTESIAN_POINT('Ctrl Pts',(40.8486704934722,7.49989485055962,3.48945921188902));
#1660=CARTESIAN_POINT('Ctrl Pts',(40.892758946593,7.49989604304169,3.49422011024858));
#1661=CARTESIAN_POINT('Ctrl Pts',(40.9284078134913,7.49989700725413,3.49806965859792));
#1662=CARTESIAN_POINT('Ctrl Pts',(40.9642638450483,7.49989797971061,3.5000000070875));
#1663=CARTESIAN_POINT('Ctrl Pts',(41.0001199565721,7.49989895217222,3.5000000070875));
#1664=CARTESIAN_POINT('',(40.0001199518237,7.49999841632795,2.5000000070876));
#1665=CARTESIAN_POINT('Origin',(41.0001199510322,7.50003820159534,2.50000000708764));
#1666=CARTESIAN_POINT('',(40.0019104218041,-37.5033431852069,2.49999996152103));
#1667=CARTESIAN_POINT('Origin',(41.0001199518237,-37.5000609742555,2.49999996152435));
#1668=CARTESIAN_POINT('',(40.0001199518237,3.4999984790873,2.50000000303754));
#1669=CARTESIAN_POINT('',(40.0001199518237,-37.5000609742555,2.49999996152435));
#1670=CARTESIAN_POINT('Origin',(41.0001199518237,3.4999984790873,2.50000000303754));
#1671=CARTESIAN_POINT('Origin',(37.0001199518237,3.49999847908729,2.50000000303755));
#1672=CARTESIAN_POINT('',(37.0001199518237,0.499998479087294,2.5));
#1673=CARTESIAN_POINT('Origin',(37.0001199518237,-0.500001520912706,2.49999999898748));
#1674=CARTESIAN_POINT('Origin',(37.0001199518237,3.49999847908729,2.50000000303755));
#1675=CARTESIAN_POINT('Origin',(122.500061003567,-0.500003836830318,2.49999999898748));
#1676=CARTESIAN_POINT('',(1.80159142085936,0.49215617358115,2.62500000351147));
#1677=CARTESIAN_POINT('',(1.6765914175524,0.499999435887745,2.5));
#1678=CARTESIAN_POINT('Origin',(1.67659139046558,-0.500000564112255,2.49999999898748));
#1679=CARTESIAN_POINT('',(-19.0000000000203,0.499999995949912,2.5));
#1680=CARTESIAN_POINT('',(122.500061030654,0.499996163169682,2.49999999999999));
#1681=CARTESIAN_POINT('Origin',(-19.000000027107,-0.500000004050088,2.49999999898748));
#1682=CARTESIAN_POINT('',(12.9265914175524,0.499999131161533,2.5));
#1683=CARTESIAN_POINT('',(122.500061030654,0.499996163169682,2.49999999999999));
#1684=CARTESIAN_POINT('',(12.8015914173399,0.492155876070037,2.62499999999205));
#1685=CARTESIAN_POINT('Origin',(12.9265913904656,-0.500000868838467,2.49999999898748));
#1686=CARTESIAN_POINT('',(122.500061030441,0.492152904692339,2.62499999999205));
#1687=CARTESIAN_POINT('Origin',(-19.0000000000203,-2.50000000405008,2.49999999696246));
#1688=CARTESIAN_POINT('',(-22.0000000000202,-2.50000005369873,2.49999999696246));
#1689=CARTESIAN_POINT('Origin',(-21.0000000000202,-2.50000003714918,2.49999999696246));
#1690=CARTESIAN_POINT('Origin',(-19.0000000000203,-2.50000000405008,2.49999999696246));
#1691=CARTESIAN_POINT('Origin',(-21.0000000758133,-42.5000003153698,2.49999995646184));
#1692=CARTESIAN_POINT('',(-22.0000003221411,-172.500000428767,2.49999982483484));
#1693=CARTESIAN_POINT('Origin',(-21.000000322141,-172.500000430662,2.49999982483484));
#1694=CARTESIAN_POINT('',(-22.0000000758134,-42.500000313475,2.49999995646184));
#1695=CARTESIAN_POINT('Origin',(-19.000000322141,-172.500000434452,2.49999982483484));
#1696=CARTESIAN_POINT('',(-19.0000003221411,-175.500000434452,2.49999982179729));
#1697=CARTESIAN_POINT('Origin',(-19.0000003221411,-174.500000434452,2.49999982280981));
#1698=CARTESIAN_POINT('Origin',(-19.000000322141,-172.500000434452,2.49999982483484));
#1699=CARTESIAN_POINT('Origin',(94.4999997695701,-174.500000434452,2.49999982280981));
#1700=CARTESIAN_POINT('',(435.000000044703,-175.500000434452,2.49999982179729));
#1701=CARTESIAN_POINT('Origin',(435.000000044703,-174.500000434452,2.49999982280981));
#1702=CARTESIAN_POINT('',(94.4999997695701,-175.500000434452,2.49999982179729));
#1703=CARTESIAN_POINT('Origin',(435.000000044703,-172.500000434452,2.49999982483484));
#1704=CARTESIAN_POINT('',(438.000000022352,-172.500000434452,2.49999982483484));
#1705=CARTESIAN_POINT('Origin',(437.000000044703,-172.500000434452,2.49999982483484));
#1706=CARTESIAN_POINT('Origin',(435.000000044703,-172.500000434452,2.49999982483484));
#1707=CARTESIAN_POINT('Origin',(437.,-127.500000721757,2.49999987039803));
#1708=CARTESIAN_POINT('',(438.,7.49999841632798,2.5000000070876));
#1709=CARTESIAN_POINT('Origin',(437.,7.49999841632798,2.5000000070876));
#1710=CARTESIAN_POINT('',(438.,-127.500000721757,2.49999987039803));
#1711=CARTESIAN_POINT('Origin',(435.,7.49999841632805,2.50000000708761));
#1712=CARTESIAN_POINT('',(435.,10.499998416328,2.50000001012515));
#1713=CARTESIAN_POINT('Origin',(435.,9.49999841632795,2.50000000911264));
#1714=CARTESIAN_POINT('Origin',(435.,7.49999841632805,2.50000000708761));
#1715=CARTESIAN_POINT('Origin',(321.499999930641,9.49999841632798,2.50000000911263));
#1716=CARTESIAN_POINT('',(43.0001199518237,10.499998416328,2.50000001012515));
#1717=CARTESIAN_POINT('Origin',(43.0001199518237,9.49999841632796,2.50000000911263));
#1718=CARTESIAN_POINT('',(321.499999930641,10.499998416328,2.50000001012515));
#1719=CARTESIAN_POINT('Origin',(43.0001199518237,7.49999841632796,2.50000000708761));
#1720=CARTESIAN_POINT('Origin',(43.0001199518237,7.49999841632796,2.50000000708761));
#1721=CARTESIAN_POINT('Origin',(435.,7.49999842037812,-1.4999999929124));
#1722=CARTESIAN_POINT('',(438.,7.49999842037804,-1.4999999929124));
#1723=CARTESIAN_POINT('',(435.,10.499998420378,-1.49999998987485));
#1724=CARTESIAN_POINT('Origin',(438.,-172.500000430402,-1.50000017516516));
#1725=CARTESIAN_POINT('',(438.000000022352,-172.500000430402,-1.50000017516516));
#1726=CARTESIAN_POINT('Origin',(435.000000044703,-172.500000430402,-1.50000017516516));
#1727=CARTESIAN_POINT('',(435.000000044703,-175.500000430402,-1.50000017820271));
#1728=CARTESIAN_POINT('Origin',(-19.0000003221411,-175.500000430402,-1.50000017820271));
#1729=CARTESIAN_POINT('',(-19.0000003221411,-175.500000430402,-1.50000017820271));
#1730=CARTESIAN_POINT('Origin',(-19.000000322141,-172.500000430402,-1.50000017516516));
#1731=CARTESIAN_POINT('',(-22.0000003221411,-172.500000424717,-1.50000017516516));
#1732=CARTESIAN_POINT('Origin',(-22.0000000000202,-2.50000004964864,-1.50000000303755));
#1733=CARTESIAN_POINT('',(-22.0000000000202,-2.50000004964866,-1.50000000303755));
#1734=CARTESIAN_POINT('Origin',(-19.0000000000203,-2.50000000000002,-1.50000000303755));
#1735=CARTESIAN_POINT('',(-19.0000000000203,0.499999999999974,-1.5));
#1736=CARTESIAN_POINT('Origin',(37.0001199518237,0.499998483137358,-1.5));
#1737=CARTESIAN_POINT('',(1.6765914175524,0.499999438292469,0.124999999999997));
#1738=CARTESIAN_POINT('Origin',(1.67659139046562,-0.500000561707531,0.124999998987482));
#1739=CARTESIAN_POINT('Origin',(1.67659139046562,-0.500000564365384,2.74999993890699));
#1740=CARTESIAN_POINT('Origin',(24.4633556440579,-0.500001181585326,2.74999999898748));
#1741=CARTESIAN_POINT('Origin',(12.9265913904656,-0.500000869091596,2.74999999898748));
#1742=CARTESIAN_POINT('Origin',(12.9265913904656,-0.500000864788405,-1.50000000101252));
#1743=CARTESIAN_POINT('',(12.9265914175524,0.499999135211595,-1.5));
#1744=CARTESIAN_POINT('Origin',(37.0001199518237,0.499998483137358,-1.5));
#1745=CARTESIAN_POINT('',(37.0001199518237,0.499998483137356,-1.5));
#1746=CARTESIAN_POINT('Origin',(-14.5000003136143,-168.000000430402,-1.50000017060884));
#1747=CARTESIAN_POINT('',(-14.5000003136143,-168.000000430402,-1.50000017060884));
#1748=CARTESIAN_POINT('Origin',(430.5,-168.000000430402,-1.50000017060884));
#1749=CARTESIAN_POINT('',(430.5,-168.000000430402,-1.50000017060884));
#1750=CARTESIAN_POINT('Origin',(430.5,2.9999984203781,-1.49999999746872));
#1751=CARTESIAN_POINT('Origin',(37.0001199518237,3.49999848313735,-1.49999999696246));
#1752=CARTESIAN_POINT('',(40.0001199518237,3.49999848313736,-1.49999999696246));
#1753=CARTESIAN_POINT('Origin',(40.0001199518237,7.49987906460091,-1.49999999291252));
#1754=CARTESIAN_POINT('',(40.000119954198,7.49987906460091,-1.49999999291252));
#1755=CARTESIAN_POINT('Origin',(40.0001199518237,7.49999842037802,-1.4999999929124));
#1756=CARTESIAN_POINT('',(40.0001199518237,7.49999842037802,-1.4999999929124));
#1757=CARTESIAN_POINT('Origin',(43.0001199518237,7.49999842037803,-1.4999999929124));
#1758=CARTESIAN_POINT('',(43.0001199518237,10.499998420378,-1.49999998987485));
#1759=CARTESIAN_POINT('Origin',(435.,10.499998420378,-1.49999998987485));
#1760=UNCERTAINTY_MEASURE_WITH_UNIT(LENGTH_MEASURE(0.01),#1764,
'DISTANCE_ACCURACY_VALUE',
'Maximum model space distance between geometric entities at asserted c
onnectivities');
#1761=UNCERTAINTY_MEASURE_WITH_UNIT(LENGTH_MEASURE(0.01),#1764,
'DISTANCE_ACCURACY_VALUE',
'Maximum model space distance between geometric entities at asserted c
onnectivities');
#1762=(
GEOMETRIC_REPRESENTATION_CONTEXT(3)
GLOBAL_UNCERTAINTY_ASSIGNED_CONTEXT((#1760))
GLOBAL_UNIT_ASSIGNED_CONTEXT((#1764,#1766,#1767))
REPRESENTATION_CONTEXT('','3D')
);
#1763=(
GEOMETRIC_REPRESENTATION_CONTEXT(3)
GLOBAL_UNCERTAINTY_ASSIGNED_CONTEXT((#1761))
GLOBAL_UNIT_ASSIGNED_CONTEXT((#1764,#1766,#1767))
REPRESENTATION_CONTEXT('','3D')
);
#1764=(
LENGTH_UNIT()
NAMED_UNIT(*)
SI_UNIT(.MILLI.,.METRE.)
);
#1765=(
LENGTH_UNIT()
NAMED_UNIT(*)
SI_UNIT($,.METRE.)
);
#1766=(
NAMED_UNIT(*)
PLANE_ANGLE_UNIT()
SI_UNIT($,.RADIAN.)
);
#1767=(
NAMED_UNIT(*)
SI_UNIT($,.STERADIAN.)
SOLID_ANGLE_UNIT()
);
#1768=SHAPE_DEFINITION_REPRESENTATION(#1769,#1770);
#1769=PRODUCT_DEFINITION_SHAPE('',$,#1772);
#1770=SHAPE_REPRESENTATION('',(#1006),#1762);
#1771=PRODUCT_DEFINITION_CONTEXT('part definition',#1776,'design');
#1772=PRODUCT_DEFINITION('Top Case','Top Case',#1773,#1771);
#1773=PRODUCT_DEFINITION_FORMATION('',$,#1778);
#1774=PRODUCT_RELATED_PRODUCT_CATEGORY('Top Case','Top Case',(#1778));
#1775=APPLICATION_PROTOCOL_DEFINITION('international standard',
'automotive_design',2009,#1776);
#1776=APPLICATION_CONTEXT(
'Core Data for Automotive Mechanical Design Process');
#1777=PRODUCT_CONTEXT('part definition',#1776,'mechanical');
#1778=PRODUCT('Top Case','Top Case',$,(#1777));
#1779=PRESENTATION_STYLE_ASSIGNMENT((#1780));
#1780=SURFACE_STYLE_USAGE(.BOTH.,#1781);
#1781=SURFACE_SIDE_STYLE('',(#1782));
#1782=SURFACE_STYLE_FILL_AREA(#1783);
#1783=FILL_AREA_STYLE('Steel - Satin',(#1784));
#1784=FILL_AREA_STYLE_COLOUR('Steel - Satin',#1785);
#1785=COLOUR_RGB('Steel - Satin',0.627450980392157,0.627450980392157,0.627450980392157);
ENDSEC;
END-ISO-10303-21;
